<svg width="344" height="327" viewBox="0 0 344 327" fill="none" xmlns="http://www.w3.org/2000/svg">
<path d="M180.829 163.028L343.975 160.209C345.53 250.241 273.766 324.503 183.651 326.074C93.5361 327.644 19.2374 255.898 17.6659 165.848C16.0945 75.7985 87.8923 1.55346 177.99 0L180.812 163.028H180.829Z" fill="#01754C"/>
<path d="M192.237 149.028L190.042 22.4601C270.31 21.0706 336.372 76.6107 337.585 146.504L192.237 149.016V149.028Z" fill="#4F9B86"/>
<path d="M45.555 202.323L61.4353 217.837L76.9661 201.974C78.7947 200.106 79.8057 197.589 79.7766 194.977L79.7717 194.535C79.7138 189.339 75.45 185.173 70.2484 185.231C67.3871 185.263 64.6956 186.592 62.9331 188.844L61.1378 191.137L59.2919 188.884C57.4797 186.673 54.7592 185.404 51.898 185.435C46.6963 185.493 42.5264 189.752 42.5843 194.948L42.5892 195.39C42.6184 198.002 43.6852 200.496 45.555 202.323Z" fill="#E75F69"/>
<path d="M15.3341 221.052L27.7036 222.789L29.4426 210.433C29.6473 208.978 29.2651 207.502 28.38 206.329L28.2303 206.13C26.4699 203.796 23.1487 203.33 20.8124 205.088C19.5272 206.056 18.752 207.554 18.7053 209.16L18.6578 210.797L17.0699 210.391C15.5109 209.993 13.8553 210.324 12.5702 211.292C10.2338 213.05 9.76697 216.368 11.5274 218.701L11.6771 218.9C12.5622 220.073 13.8777 220.847 15.3341 221.052Z" fill="#E75F69"/>
<path d="M106.871 220.019L94.5014 221.756L92.7625 209.4C92.5578 207.945 92.94 206.469 93.8251 205.295L93.9748 205.097C95.7352 202.763 99.0563 202.297 101.393 204.055C102.678 205.022 103.453 206.521 103.5 208.127L103.547 209.764L105.135 209.358C106.694 208.96 108.35 209.291 109.635 210.258C111.971 212.017 112.438 215.334 110.678 217.668L110.528 217.867C109.643 219.04 108.327 219.814 106.871 220.019Z" fill="#E75F69"/>
<path d="M104.159 285.62C114.683 289.601 129.904 298.483 120.663 309.985C112.352 320.329 94.4905 323.675 82.2501 324.902C78.5894 325.269 66.4695 325.977 61.7611 326.026C57.0541 325.977 44.9331 325.269 41.2724 324.902C29.0305 323.675 11.1695 320.329 2.85822 309.985C-8.04032 296.421 15.0852 286.5 24.4011 283.964L104.159 285.62Z" fill="#C0BCBC"/>
<path d="M118.056 270.345C117.636 276.717 112.754 282.43 107.942 285.948C104.866 288.198 96.3364 294.76 95.4515 295.181C95.4515 295.181 96.4725 294.648 96.1534 294.803C97.557 291.676 95.7385 292.7 98.5458 285.948L99.6625 281.483C103.19 279.629 106.963 277.18 108.198 273.08C109.348 269.262 104.819 265.293 101.127 268.731C101.344 265.938 101.806 259.621 101.768 256.947L102.47 259.751C105.862 258.518 109.077 258.796 112.297 260.036C115.072 261.106 117.248 263.369 117.906 267.301C118.073 268.307 118.124 269.328 118.056 270.345Z" fill="#FAFAFA"/>
<path d="M32.9844 299.009C25.5336 288.445 22.1996 269.667 21.9108 256.96C21.8778 255.509 21.8839 254.026 22.3354 252.645C23.1255 250.229 26.1055 247.932 28.3213 246.682C33.8822 243.543 43.8815 240.462 52.6476 239.647C56.057 239.331 59.312 239.145 62.4954 239.098C65.6796 239.145 68.9343 239.331 72.3433 239.647C78.6485 240.175 84.8421 241.623 90.7266 243.946C94.7462 245.557 99.9845 247.744 102.082 251.791C103.265 254.077 103.321 256.776 103.051 259.334C101.505 273.989 101.61 293.708 89.8323 303.916C66.2057 313.202 52.1455 313.31 32.9844 299.009Z" fill="url(#paint0_linear_87_8224)"/>
<path d="M64.5535 313.205C59.4035 312.732 52.2908 311.012 47.2917 311.821C42.0341 312.671 38.2491 316.875 32.7834 317.339C27.2023 317.812 20.2797 315.092 18.4663 309.286C16.4665 302.884 24.0687 299.665 28.8329 299.85C34.6722 300.079 38.7328 302.558 43.6124 305.66C44.6713 306.37 46.1894 306.283 47.3514 306.276C52.7072 306.24 58.2241 306.137 63.5087 305.796C69.2183 305.428 75.4315 305.003 81.1239 304.65C85.4468 304.382 93.6765 302.618 92.7016 309.879C91.8826 315.99 85.7153 315.888 80.7354 315.414C75.082 314.876 64.6434 313.214 64.5535 313.205Z" fill="#9C9898"/>
<path d="M98.2543 258.633C98.2543 263.331 82.8399 267.139 63.8252 267.139C44.8104 267.139 28.0718 263.331 28.0718 258.633C28.0718 253.935 44.8104 247.51 63.8252 247.51C82.8399 247.51 98.2543 253.935 98.2543 258.633Z" fill="#957F6E"/>
<defs>
<linearGradient id="paint0_linear_87_8224" x1="62.5415" y1="239.098" x2="62.5415" y2="299.976" gradientUnits="userSpaceOnUse">
<stop stop-color="#F3F1F1"/>
<stop offset="1" stop-color="#E1DFDF"/>
</linearGradient>
</defs>
</svg>
