<svg width="279" height="351" viewBox="0 0 279 351" fill="none" xmlns="http://www.w3.org/2000/svg">
<path d="M60.1109 92.8194L68.1681 25.582L0.570312 26.1377L13.4737 92.8194C26.9933 111.169 51.011 106.321 60.1109 92.8194Z" fill="url(#paint0_linear_87_8278)"/>
<path d="M56.5628 70.3111C60.4454 59.568 55.0394 47.7811 44.4882 43.9845C33.9369 40.1879 22.236 45.8192 18.3533 56.5624C14.4707 67.3056 19.8767 79.0924 30.428 82.889C40.9792 86.6856 52.6802 81.0543 56.5628 70.3111Z" fill="#016242"/>
<path d="M34.9348 38.3406C53.8952 37.9542 69.1305 31.0362 68.9637 22.8889C68.7969 14.7416 53.2913 8.45013 34.3309 8.83652C15.3705 9.2229 0.135184 16.1408 0.301943 24.2882C0.468701 32.4355 15.9743 38.7269 34.9348 38.3406Z" fill="#CDC9C1"/>
<path d="M65.7882 13.3096L68.6793 20.9827L67.2693 18.5826L64.9351 17.3649L65.7882 13.3096Z" fill="#CDC9C1"/>
<path d="M1.75588 15.8047L0.286621 23.7143L1.22268 21.1369L3.29624 19.588L1.75588 15.8047Z" fill="#CDC9C1"/>
<path d="M34.1158 29.0196C51.8528 28.6582 66.105 22.1891 65.9491 14.5706C65.7932 6.95205 51.2881 1.06904 33.5511 1.43049C15.8142 1.79194 1.56196 8.26099 1.71789 15.8795C1.87383 23.498 16.3789 29.3811 34.1158 29.0196Z" fill="#DAD9D9"/>
<path d="M170.22 13.9395L173.111 21.6126L171.701 19.2125L169.367 17.9947L170.22 13.9395Z" fill="#CDC9C1"/>
<path d="M164.554 93.4503L172.611 26.2129L105.025 26.7686L117.929 93.4503C131.448 111.8 155.466 106.952 164.566 93.4503H164.554Z" fill="url(#paint1_linear_87_8278)"/>
<path d="M161.003 70.9488C164.885 60.2057 159.479 48.4188 148.928 44.6222C138.377 40.8256 126.676 46.4569 122.793 57.2001C118.911 67.9433 124.317 79.7301 134.868 83.5267C145.419 87.3233 157.12 81.692 161.003 70.9488Z" fill="#1E3932"/>
<path d="M139.384 38.9802C158.345 38.5938 173.58 31.6759 173.413 23.5286C173.247 15.3813 157.741 9.08978 138.781 9.47617C119.82 9.86255 104.585 16.7805 104.752 24.9278C104.918 33.0751 120.424 39.3666 139.384 38.9802Z" fill="#CDC9C1"/>
<path d="M106.188 16.4346L104.719 24.3442L105.655 21.7667L107.729 20.2179L106.188 16.4346Z" fill="#CDC9C1"/>
<path d="M138.555 29.6593C156.292 29.2978 170.544 22.8288 170.388 15.2102C170.232 7.5917 155.727 1.70868 137.99 2.07014C120.253 2.43159 106.001 8.90064 106.157 16.5192C106.313 24.1377 120.818 30.0207 138.555 29.6593Z" fill="#DAD9D9"/>
<path d="M274.69 13.9385L277.581 21.6116L276.171 19.2115L273.836 17.9938L274.69 13.9385Z" fill="#CDC9C1"/>
<path d="M210.645 16.4336L209.176 24.3432L210.112 21.7658L212.185 20.217L210.645 16.4336Z" fill="#CDC9C1"/>
<path d="M269.013 93.4503L277.07 26.2129L209.484 26.7686L222.388 93.4503C235.907 111.8 259.925 106.952 269.025 93.4503H269.013Z" fill="url(#paint2_linear_87_8278)"/>
<path d="M265.47 70.9352C269.353 60.192 263.947 48.4051 253.395 44.6085C242.844 40.8119 231.143 46.4432 227.261 57.1864C223.378 67.9296 228.784 79.7164 239.335 83.513C249.886 87.3097 261.587 81.6783 265.47 70.9352Z" fill="#4F9B86"/>
<path d="M243.837 38.9802C262.798 38.5938 278.033 31.6759 277.866 23.5286C277.699 15.3813 262.194 9.08978 243.233 9.47617C224.273 9.86255 209.038 16.7805 209.204 24.9278C209.371 33.0751 224.877 39.3666 243.837 38.9802Z" fill="#CDC9C1"/>
<path d="M243.018 29.6593C260.755 29.2978 275.007 22.8288 274.851 15.2102C274.696 7.5917 260.19 1.70868 242.453 2.07014C224.717 2.43159 210.464 8.90064 210.62 16.5192C210.776 24.1377 225.281 30.0207 243.018 29.6593Z" fill="#DAD9D9"/>
<path d="M65.7926 136.324L68.6837 143.997L67.2737 141.597L64.9395 140.38L65.7926 136.324Z" fill="#CDC9C1"/>
<path d="M1.76076 138.809L0.291504 146.718L1.22756 144.141L3.30112 142.592L1.76076 138.809Z" fill="#CDC9C1"/>
<path d="M60.1171 215.823L68.1744 148.586L0.588379 149.142L13.4918 215.823C27.0114 234.173 51.029 229.325 60.129 215.823H60.1171Z" fill="url(#paint3_linear_87_8278)"/>
<path d="M56.5642 193.314C60.4469 182.571 55.0409 170.784 44.4896 166.987C33.9384 163.191 22.2374 168.822 18.3548 179.565C14.4722 190.309 19.8782 202.095 30.4294 205.892C40.9807 209.689 52.6816 204.057 56.5642 193.314Z" fill="#4F9B86"/>
<path d="M34.9348 161.339C53.8952 160.952 69.1305 154.034 68.9637 145.887C68.7969 137.74 53.2913 131.448 34.3309 131.835C15.3705 132.221 0.135184 139.139 0.301943 147.286C0.468701 155.434 15.9743 161.725 34.9348 161.339Z" fill="#CDC9C1"/>
<path d="M34.1046 152.04C51.8416 151.679 66.0938 145.21 65.9379 137.591C65.7819 129.973 51.2769 124.09 33.5399 124.451C15.803 124.812 1.55073 131.282 1.70666 138.9C1.8626 146.519 16.3677 152.402 34.1046 152.04Z" fill="#DAD9D9"/>
<path d="M170.237 136.315L173.128 143.989L171.718 141.588L169.384 140.371L170.237 136.315Z" fill="#CDC9C1"/>
<path d="M164.573 215.815L172.63 148.577L105.044 149.133L117.947 215.815C131.467 234.164 155.485 229.316 164.585 215.815H164.573Z" fill="url(#paint4_linear_87_8278)"/>
<path d="M161.016 193.314C164.899 182.571 159.493 170.784 148.942 166.987C138.391 163.191 126.69 168.822 122.807 179.565C118.924 190.309 124.33 202.095 134.882 205.892C145.433 209.689 157.134 204.057 161.016 193.314Z" fill="#1E3932"/>
<path d="M139.385 161.339C158.346 160.952 173.581 154.034 173.414 145.887C173.248 137.74 157.742 131.448 138.782 131.835C119.821 132.221 104.586 139.139 104.753 147.286C104.919 155.434 120.425 161.725 139.385 161.339Z" fill="#CDC9C1"/>
<path d="M106.205 138.799L104.735 146.708L105.671 144.131L107.745 142.582L106.205 138.799Z" fill="#CDC9C1"/>
<path d="M138.567 152.04C156.303 151.679 170.556 145.21 170.4 137.591C170.244 129.973 155.739 124.09 138.002 124.451C120.265 124.812 106.013 131.282 106.169 138.9C106.325 146.519 120.83 152.402 138.567 152.04Z" fill="#DAD9D9"/>
<path d="M210.65 138.798L209.181 146.707L210.117 144.13L212.19 142.581L210.65 138.798Z" fill="#CDC9C1"/>
<path d="M274.693 136.315L277.584 143.989L276.174 141.588L273.84 140.371L274.693 136.315Z" fill="#CDC9C1"/>
<path d="M269.018 215.813L277.075 148.575L209.489 149.131L222.393 215.813C235.912 234.162 259.93 229.314 269.03 215.813H269.018Z" fill="url(#paint5_linear_87_8278)"/>
<path d="M265.462 193.301C269.344 182.558 263.938 170.771 253.387 166.975C242.836 163.178 231.135 168.809 227.252 179.553C223.37 190.296 228.776 202.083 239.327 205.879C249.878 209.676 261.579 204.045 265.462 193.301Z" fill="#01754C"/>
<path d="M243.837 161.339C262.798 160.952 278.033 154.034 277.866 145.887C277.699 137.74 262.194 131.448 243.233 131.835C224.273 132.221 209.038 139.139 209.204 147.286C209.371 155.434 224.877 161.725 243.837 161.339Z" fill="#CDC9C1"/>
<path d="M243.006 152.04C260.743 151.679 274.996 145.21 274.84 137.591C274.684 129.973 260.179 124.09 242.442 124.451C224.705 124.812 210.453 131.282 210.609 138.9C210.764 146.519 225.27 152.402 243.006 152.04Z" fill="#DAD9D9"/>
<path d="M65.796 258.701L68.6871 266.374L67.2771 263.974L64.9429 262.756L65.796 258.701Z" fill="#CDC9C1"/>
<path d="M1.76614 261.185L0.296875 269.094L1.23294 266.517L3.30649 264.968L1.76614 261.185Z" fill="#CDC9C1"/>
<path d="M60.1201 338.211L68.1773 270.974L0.591309 271.529L13.4947 338.211C27.0143 356.56 51.032 351.713 60.1319 338.211H60.1201Z" fill="url(#paint6_linear_87_8278)"/>
<path d="M56.5677 315.695C60.4503 304.952 55.0443 293.165 44.493 289.368C33.9418 285.572 22.2408 291.203 18.3582 301.946C14.4756 312.689 19.8816 324.476 30.4328 328.273C40.9841 332.069 52.685 326.438 56.5677 315.695Z" fill="#01754C"/>
<path d="M34.9348 283.73C53.8952 283.344 69.1305 276.426 68.9637 268.279C68.7969 260.131 53.2913 253.84 34.3309 254.226C15.3705 254.613 0.135185 261.53 0.301943 269.678C0.468702 277.825 15.9743 284.117 34.9348 283.73Z" fill="#CDC9C1"/>
<path d="M34.1046 274.41C51.8416 274.049 66.0938 267.58 65.9379 259.961C65.7819 252.343 51.2769 246.46 33.5399 246.821C15.803 247.183 1.55073 253.652 1.70666 261.27C1.8626 268.889 16.3677 274.772 34.1046 274.41Z" fill="#DAD9D9"/>
<path d="M170.242 258.69L173.133 266.364L171.723 263.963L169.389 262.746L170.242 258.69Z" fill="#CDC9C1"/>
<path d="M106.209 261.174L104.74 269.083L105.676 266.506L107.75 264.957L106.209 261.174Z" fill="#CDC9C1"/>
<path d="M164.578 338.202L172.635 270.965L105.049 271.521L117.952 338.202C131.472 356.552 155.489 351.704 164.589 338.202H164.578Z" fill="url(#paint7_linear_87_8278)"/>
<path d="M161.018 315.695C164.9 304.952 159.494 293.165 148.943 289.368C138.392 285.572 126.691 291.203 122.808 301.946C118.926 312.689 124.332 324.476 134.883 328.273C145.434 332.069 157.135 326.438 161.018 315.695Z" fill="#4F9B86"/>
<path d="M139.385 283.73C158.345 283.344 173.581 276.426 173.414 268.279C173.247 260.131 157.742 253.84 138.781 254.226C119.821 254.613 104.585 261.53 104.752 269.678C104.919 277.825 120.425 284.117 139.385 283.73Z" fill="#CDC9C1"/>
<path d="M138.567 274.41C156.303 274.049 170.556 267.58 170.4 259.961C170.244 252.343 155.739 246.46 138.002 246.821C120.265 247.183 106.013 253.652 106.169 261.27C106.325 268.889 120.83 274.772 138.567 274.41Z" fill="#DAD9D9"/>
<path d="M274.698 258.68L277.589 266.353L276.179 263.953L273.845 262.735L274.698 258.68Z" fill="#CDC9C1"/>
<path d="M210.655 261.163L209.186 269.073L210.122 266.495L212.195 264.946L210.655 261.163Z" fill="#CDC9C1"/>
<path d="M269.022 338.189L277.08 270.951L209.494 271.507L222.397 338.189C235.917 356.538 259.934 351.69 269.034 338.189H269.022Z" fill="url(#paint8_linear_87_8278)"/>
<path d="M265.528 315.834C269.411 305.09 264.005 293.304 253.454 289.507C242.902 285.71 231.201 291.342 227.319 302.085C223.436 312.828 228.842 324.615 239.393 328.411C249.945 332.208 261.645 326.577 265.528 315.834Z" fill="#1E3932"/>
<path d="M243.837 283.719C262.797 283.333 278.032 276.415 277.866 268.268C277.699 260.121 262.193 253.829 243.233 254.215C224.272 254.602 209.037 261.52 209.204 269.667C209.371 277.814 224.876 284.106 243.837 283.719Z" fill="#CDC9C1"/>
<path d="M243.006 274.41C260.743 274.049 274.995 267.58 274.839 259.961C274.683 252.343 260.178 246.46 242.441 246.821C224.704 247.183 210.452 253.652 210.608 261.27C210.764 268.889 225.269 274.772 243.006 274.41Z" fill="#DAD9D9"/>
<defs>
<linearGradient id="paint0_linear_87_8278" x1="45.4877" y1="17.4331" x2="16.0476" y2="99.2721" gradientUnits="userSpaceOnUse">
<stop stop-color="#F3F1EB"/>
<stop offset="1" stop-color="#C4C1B9"/>
</linearGradient>
<linearGradient id="paint1_linear_87_8278" x1="149.927" y1="18.058" x2="120.487" y2="99.897" gradientUnits="userSpaceOnUse">
<stop stop-color="#F3F1EB"/>
<stop offset="1" stop-color="#C4C1B9"/>
</linearGradient>
<linearGradient id="paint2_linear_87_8278" x1="254.388" y1="18.0529" x2="224.948" y2="99.8919" gradientUnits="userSpaceOnUse">
<stop stop-color="#F3F1EB"/>
<stop offset="1" stop-color="#C4C1B9"/>
</linearGradient>
<linearGradient id="paint3_linear_87_8278" x1="45.5" y1="140.448" x2="16.0632" y2="222.276" gradientUnits="userSpaceOnUse">
<stop stop-color="#F3F1EB"/>
<stop offset="1" stop-color="#C4C1B9"/>
</linearGradient>
<linearGradient id="paint4_linear_87_8278" x1="149.952" y1="140.434" x2="120.515" y2="222.261" gradientUnits="userSpaceOnUse">
<stop stop-color="#F3F1EB"/>
<stop offset="1" stop-color="#C4C1B9"/>
</linearGradient>
<linearGradient id="paint5_linear_87_8278" x1="254.402" y1="140.415" x2="224.962" y2="222.254" gradientUnits="userSpaceOnUse">
<stop stop-color="#F3F1EB"/>
<stop offset="1" stop-color="#C4C1B9"/>
</linearGradient>
<linearGradient id="paint6_linear_87_8278" x1="45.5122" y1="262.824" x2="16.0754" y2="344.652" gradientUnits="userSpaceOnUse">
<stop stop-color="#F3F1EB"/>
<stop offset="1" stop-color="#C4C1B9"/>
</linearGradient>
<linearGradient id="paint7_linear_87_8278" x1="149.966" y1="262.81" x2="120.529" y2="344.637" gradientUnits="userSpaceOnUse">
<stop stop-color="#F3F1EB"/>
<stop offset="1" stop-color="#C4C1B9"/>
</linearGradient>
<linearGradient id="paint8_linear_87_8278" x1="254.412" y1="262.791" x2="224.976" y2="344.619" gradientUnits="userSpaceOnUse">
<stop stop-color="#F3F1EB"/>
<stop offset="1" stop-color="#C4C1B9"/>
</linearGradient>
</defs>
</svg>
