<svg width="226" height="221" viewBox="0 0 226 221" fill="none" xmlns="http://www.w3.org/2000/svg">
<g filter="url(#filter0_d_87_8160)">
<path d="M174.26 20.7458C174.375 20.6087 174.598 20.6982 174.586 20.8764L171.961 59.7047C171.955 59.7844 172.002 59.8585 172.076 59.8882L208.193 74.3833C208.358 74.4498 208.342 74.6896 208.169 74.7332L170.43 84.2353C170.353 84.2548 170.296 84.322 170.291 84.4016L167.666 123.23C167.654 123.408 167.421 123.467 167.326 123.316L146.627 90.3599C146.584 90.2923 146.503 90.2597 146.426 90.2792L108.687 99.7813C108.514 99.8249 108.386 99.6215 108.5 99.4844L133.447 69.6145C133.498 69.5532 133.504 69.4659 133.461 69.3983L112.762 36.4426C112.667 36.2914 112.821 36.107 112.987 36.1735L149.104 50.6686C149.178 50.6983 149.263 50.6769 149.314 50.6156L174.26 20.7458Z" fill="#C09C56" class="stars"/>
</g>
<g filter="url(#filter1_d_87_8160)" class="stars">
<path d="M18.9519 101.975C18.9605 101.931 19.0201 101.924 19.0389 101.965L21.8722 108.076C21.8806 108.094 21.8998 108.104 21.9196 108.102L28.607 107.296C28.6514 107.29 28.6766 107.345 28.6439 107.375L23.7075 111.958C23.6929 111.972 23.6887 111.993 23.6971 112.012L26.5304 118.123C26.5492 118.163 26.5052 118.204 26.4662 118.182L20.582 114.904C20.5646 114.894 20.5428 114.897 20.5282 114.91L15.5918 119.493C15.5591 119.524 15.5066 119.494 15.5153 119.451L16.815 112.841C16.8189 112.822 16.8097 112.802 16.7922 112.792L10.908 109.514C10.869 109.492 10.8806 109.433 10.925 109.428L17.6124 108.621C17.6322 108.619 17.6483 108.604 17.6521 108.584L18.9519 101.975Z" fill="#FFD156" />
</g>
<g filter="url(#filter2_d_87_8160)">
<path d="M111.713 167.226C111.699 167.183 111.748 167.148 111.784 167.174L117.235 171.132C117.251 171.143 117.273 171.143 117.289 171.132L122.737 167.17C122.773 167.144 122.822 167.179 122.808 167.222L120.728 173.629C120.722 173.648 120.729 173.669 120.745 173.68L126.196 177.638C126.232 177.664 126.214 177.721 126.169 177.721L119.433 177.723C119.413 177.723 119.395 177.736 119.389 177.755L117.31 184.162C117.296 184.205 117.236 184.205 117.222 184.162L115.138 177.757C115.132 177.738 115.115 177.725 115.095 177.725L108.359 177.727C108.314 177.727 108.296 177.67 108.332 177.644L113.78 173.683C113.796 173.671 113.803 173.65 113.797 173.631L111.713 167.226Z" fill="#C09C56"/>
</g>
<path d="M135.253 157.736C135.262 157.692 135.321 157.685 135.34 157.725L136.671 160.596C136.68 160.614 136.699 160.624 136.718 160.622L139.86 160.243C139.904 160.238 139.929 160.292 139.897 160.323L137.578 162.476C137.563 162.489 137.559 162.511 137.567 162.529L138.898 165.399C138.917 165.44 138.873 165.481 138.834 165.459L136.07 163.919C136.053 163.909 136.031 163.912 136.016 163.925L133.698 166.078C133.665 166.109 133.612 166.079 133.621 166.036L134.231 162.931C134.235 162.911 134.226 162.891 134.209 162.882L131.445 161.342C131.406 161.32 131.417 161.261 131.462 161.256L134.603 160.877C134.623 160.875 134.639 160.86 134.643 160.84L135.253 157.736Z" fill="#FFD156"/>
<g filter="url(#filter3_d_87_8160)">
<path d="M29.8151 46.4362C29.786 46.4023 29.8172 46.351 29.8607 46.3613L36.4145 47.9168C36.4339 47.9214 36.4541 47.913 36.4645 47.8959L39.9691 42.1435C39.9923 42.1054 40.0508 42.1193 40.0544 42.1638L40.6003 48.8775C40.6019 48.8974 40.6162 48.914 40.6356 48.9186L47.1894 50.4741C47.2329 50.4844 47.2377 50.5443 47.1965 50.5615L40.9801 53.1553C40.9616 53.163 40.9503 53.1817 40.9519 53.2016L41.4978 59.9153C41.5014 59.9598 41.446 59.983 41.4169 59.9491L37.029 54.8384C37.016 54.8233 36.9947 54.8182 36.9763 54.8259L30.7598 57.4198C30.7186 57.437 30.6795 57.3914 30.7027 57.3532L34.2073 51.6008C34.2177 51.5838 34.2159 51.562 34.2029 51.5468L29.8151 46.4362Z" fill="#FFD156"/>
</g>
<g filter="url(#filter4_d_87_8160)">
<path d="M52.9647 109.334C53.0336 108.984 53.5107 108.926 53.6609 109.25L69.4419 143.287C69.5091 143.432 69.662 143.517 69.8206 143.498L107.068 139.008C107.423 138.965 107.625 139.401 107.363 139.644L79.8687 165.17C79.7517 165.279 79.7179 165.451 79.7851 165.596L95.5661 199.633C95.7164 199.957 95.3642 200.284 95.0522 200.11L62.2787 181.849C62.1391 181.771 61.9654 181.792 61.8484 181.901L34.3539 207.428C34.0922 207.671 33.6724 207.437 33.7413 207.086L40.9806 170.274C41.0114 170.117 40.9378 169.959 40.7983 169.881L8.02477 151.62C7.71277 151.446 7.80549 150.975 8.16009 150.932L45.4077 146.441C45.5663 146.422 45.6945 146.303 45.7254 146.147L52.9647 109.334Z" fill="#FFD156"/>
</g>
<g filter="url(#filter5_d_87_8160)">
<path d="M51.1 36.4296C51.1332 36.3998 51.1852 36.4299 51.1758 36.4736L50.6057 39.1317C50.6015 39.1513 50.6103 39.1713 50.6276 39.1813L52.9795 40.5449C53.0181 40.5673 53.0055 40.6261 52.9611 40.6307L50.2568 40.9098C50.237 40.9119 50.2207 40.9265 50.2165 40.946L49.6463 43.6041C49.637 43.6478 49.5772 43.654 49.5591 43.6131L48.458 41.1275C48.4499 41.1093 48.431 41.0983 48.4111 41.1003L45.7069 41.3795C45.6625 41.3841 45.6381 41.3291 45.6714 41.2993L47.6951 39.484C47.7099 39.4706 47.7145 39.4493 47.7064 39.431L46.6053 36.9454C46.5872 36.9046 46.6319 36.8645 46.6705 36.8868L49.0224 38.2505C49.0397 38.2605 49.0614 38.2583 49.0763 38.245L51.1 36.4296Z" fill="#C09C56"/>
</g>
<g filter="url(#filter6_d_87_8160)">
<path d="M134.012 139.823L121.968 64.3699L48.9449 85.8025L83.5138 154.199C103.827 169.951 128.336 157.29 134.012 139.823Z" fill="url(#paint0_linear_87_8160)"/>
<ellipse cx="100.404" cy="114.918" rx="22.86" ry="23.3363" transform="rotate(3.94531 100.404 114.918)" fill="#1E3932"/>
<ellipse cx="85.0472" cy="72.5357" rx="38.6675" ry="16.6493" transform="rotate(-17.0586 85.0472 72.5357)" fill="#CDCAC2"/>
<path d="M115.604 51.7949L121.098 59.2297L118.829 57.0572L115.927 56.4537L115.604 51.7949Z" fill="#CDCAC2"/>
<path d="M47.0259 74.2197L47.8837 83.2543L48.0965 80.1685L49.8697 77.8528L47.0259 74.2197Z" fill="#CDCAC2"/>
<ellipse cx="81.5925" cy="63.7139" rx="36.1617" ry="15.5704" transform="rotate(-17.0586 81.5925 63.7139)" fill="#D9D9D9"/>
<path d="M95.2685 117.688L102.929 121.298L106.539 113.638C106.964 112.736 107.013 111.703 106.676 110.764L106.619 110.605C105.949 108.739 103.892 107.77 102.026 108.44C100.999 108.809 100.196 109.625 99.8424 110.657L99.4826 111.708L98.5359 111.126C97.6066 110.555 96.468 110.437 95.4414 110.806C93.575 111.477 92.6057 113.534 93.2763 115.4L93.3333 115.559C93.6705 116.497 94.3666 117.263 95.2685 117.688Z" fill="#E75F69"/>
</g>
<rect x="161.286" y="158.706" width="19.6994" height="2.27301" rx="1.13651" fill="#7E7E7E"/>
<rect x="147.647" y="158.706" width="6.06137" height="2.27301" rx="1.13651" fill="#7E7E7E"/>
<circle cx="157.497" cy="159.841" r="3.03068" fill="#7E7E7E"/>
<rect x="167.346" y="174.62" width="19.6994" height="2.27301" rx="1.13651" transform="rotate(-180 167.346 174.62)" fill="#7E7E7E"/>
<rect x="180.985" y="174.62" width="6.06137" height="2.27301" rx="1.13651" transform="rotate(-180 180.985 174.62)" fill="#7E7E7E"/>
<circle cx="171.135" cy="173.485" r="3.03068" transform="rotate(-180 171.135 173.485)" fill="#7E7E7E"/>
<rect x="167.346" y="148.102" width="19.6994" height="2.27301" rx="1.13651" transform="rotate(-180 167.346 148.102)" fill="#7E7E7E"/>
<rect x="180.984" y="148.102" width="6.06137" height="2.27301" rx="1.13651" transform="rotate(-180 180.984 148.102)" fill="#7E7E7E"/>
<circle cx="171.134" cy="146.966" r="3.03068" transform="rotate(-180 171.134 146.966)" fill="#7E7E7E"/>
<defs>
<filter id="filter0_d_87_8160" x="107.719" y="20.31" width="101.327" height="104.198" filterUnits="userSpaceOnUse" color-interpolation-filters="sRGB">
<feFlood flood-opacity="0" result="BackgroundImageFix"/>
<feColorMatrix in="SourceAlpha" type="matrix" values="0 0 0 0 0 0 0 0 0 0 0 0 0 0 0 0 0 0 127 0" result="hardAlpha"/>
<feOffset dy="0.368695"/>
<feGaussianBlur stdDeviation="0.368695"/>
<feComposite in2="hardAlpha" operator="out"/>
<feColorMatrix type="matrix" values="0 0 0 0 1 0 0 0 0 0.819608 0 0 0 0 0.337255 0 0 0 0.29 0"/>
<feBlend mode="normal" in2="BackgroundImageFix" result="effect1_dropShadow_87_8160"/>
<feBlend mode="normal" in="SourceGraphic" in2="effect1_dropShadow_87_8160" result="shape"/>
</filter>
<filter id="filter1_d_87_8160" x="10.1469" y="101.569" width="19.2492" height="19.0431" filterUnits="userSpaceOnUse" color-interpolation-filters="sRGB">
<feFlood flood-opacity="0" result="BackgroundImageFix"/>
<feColorMatrix in="SourceAlpha" type="matrix" values="0 0 0 0 0 0 0 0 0 0 0 0 0 0 0 0 0 0 127 0" result="hardAlpha"/>
<feOffset dy="0.368695"/>
<feGaussianBlur stdDeviation="0.368695"/>
<feComposite in2="hardAlpha" operator="out"/>
<feColorMatrix type="matrix" values="0 0 0 0 1 0 0 0 0 0.819608 0 0 0 0 0.337255 0 0 0 0.29 0"/>
<feBlend mode="normal" in2="BackgroundImageFix" result="effect1_dropShadow_87_8160"/>
<feBlend mode="normal" in="SourceGraphic" in2="effect1_dropShadow_87_8160" result="shape"/>
</filter>
<filter id="filter2_d_87_8160" x="107.575" y="166.792" width="19.3771" height="18.508" filterUnits="userSpaceOnUse" color-interpolation-filters="sRGB">
<feFlood flood-opacity="0" result="BackgroundImageFix"/>
<feColorMatrix in="SourceAlpha" type="matrix" values="0 0 0 0 0 0 0 0 0 0 0 0 0 0 0 0 0 0 127 0" result="hardAlpha"/>
<feOffset dy="0.368695"/>
<feGaussianBlur stdDeviation="0.368695"/>
<feComposite in2="hardAlpha" operator="out"/>
<feColorMatrix type="matrix" values="0 0 0 0 0.752941 0 0 0 0 0.611765 0 0 0 0 0.337255 0 0 0 0.25 0"/>
<feBlend mode="normal" in2="BackgroundImageFix" result="effect1_dropShadow_87_8160"/>
<feBlend mode="normal" in="SourceGraphic" in2="effect1_dropShadow_87_8160" result="shape"/>
</filter>
<filter id="filter3_d_87_8160" x="29.0663" y="41.7524" width="18.8962" height="19.3185" filterUnits="userSpaceOnUse" color-interpolation-filters="sRGB">
<feFlood flood-opacity="0" result="BackgroundImageFix"/>
<feColorMatrix in="SourceAlpha" type="matrix" values="0 0 0 0 0 0 0 0 0 0 0 0 0 0 0 0 0 0 127 0" result="hardAlpha"/>
<feOffset dy="0.368695"/>
<feGaussianBlur stdDeviation="0.368695"/>
<feComposite in2="hardAlpha" operator="out"/>
<feColorMatrix type="matrix" values="0 0 0 0 1 0 0 0 0 0.819608 0 0 0 0 0.337255 0 0 0 0.29 0"/>
<feBlend mode="normal" in2="BackgroundImageFix" result="effect1_dropShadow_87_8160"/>
<feBlend mode="normal" in="SourceGraphic" in2="effect1_dropShadow_87_8160" result="shape"/>
</filter>
<filter id="filter4_d_87_8160" x="7.09806" y="108.668" width="101.121" height="99.965" filterUnits="userSpaceOnUse" color-interpolation-filters="sRGB">
<feFlood flood-opacity="0" result="BackgroundImageFix"/>
<feColorMatrix in="SourceAlpha" type="matrix" values="0 0 0 0 0 0 0 0 0 0 0 0 0 0 0 0 0 0 127 0" result="hardAlpha"/>
<feOffset dy="0.368695"/>
<feGaussianBlur stdDeviation="0.368695"/>
<feComposite in2="hardAlpha" operator="out"/>
<feColorMatrix type="matrix" values="0 0 0 0 0.752941 0 0 0 0 0.611765 0 0 0 0 0.337255 0 0 0 0.25 0"/>
<feBlend mode="normal" in2="BackgroundImageFix" result="effect1_dropShadow_87_8160"/>
<feBlend mode="normal" in="SourceGraphic" in2="effect1_dropShadow_87_8160" result="shape"/>
</filter>
<filter id="filter5_d_87_8160" x="44.9184" y="36.0493" width="8.82146" height="8.69744" filterUnits="userSpaceOnUse" color-interpolation-filters="sRGB">
<feFlood flood-opacity="0" result="BackgroundImageFix"/>
<feColorMatrix in="SourceAlpha" type="matrix" values="0 0 0 0 0 0 0 0 0 0 0 0 0 0 0 0 0 0 127 0" result="hardAlpha"/>
<feOffset dy="0.368695"/>
<feGaussianBlur stdDeviation="0.368695"/>
<feComposite in2="hardAlpha" operator="out"/>
<feColorMatrix type="matrix" values="0 0 0 0 0.752941 0 0 0 0 0.611765 0 0 0 0 0.337255 0 0 0 0.25 0"/>
<feBlend mode="normal" in2="BackgroundImageFix" result="effect1_dropShadow_87_8160"/>
<feBlend mode="normal" in="SourceGraphic" in2="effect1_dropShadow_87_8160" result="shape"/>
</filter>
<filter id="filter6_d_87_8160" x="46.2195" y="45.3046" width="87.9217" height="116.559" filterUnits="userSpaceOnUse" color-interpolation-filters="sRGB">
<feFlood flood-opacity="0" result="BackgroundImageFix"/>
<feColorMatrix in="SourceAlpha" type="matrix" values="0 0 0 0 0 0 0 0 0 0 0 0 0 0 0 0 0 0 127 0" result="hardAlpha"/>
<feOffset dx="-0.184347" dy="0.184347"/>
<feGaussianBlur stdDeviation="0.156695"/>
<feComposite in2="hardAlpha" operator="out"/>
<feColorMatrix type="matrix" values="0 0 0 0 0.117647 0 0 0 0 0.223529 0 0 0 0 0.196078 0 0 0 0.09 0"/>
<feBlend mode="normal" in2="BackgroundImageFix" result="effect1_dropShadow_87_8160"/>
<feBlend mode="normal" in="SourceGraphic" in2="effect1_dropShadow_87_8160" result="shape"/>
</filter>
<linearGradient id="paint0_linear_87_8160" x1="94.948" y1="62.5064" x2="88.1978" y2="160.381" gradientUnits="userSpaceOnUse">
<stop stop-color="#F2F0EA"/>
<stop offset="1" stop-color="#C4C1B9"/>
</linearGradient>
</defs>
</svg>
