<svg width="154" height="177" viewBox="0 0 154 177" fill="none" xmlns="http://www.w3.org/2000/svg">
<g clip-path="url(#clip0_87_8247)">
<path d="M97.8951 78.8022C74.7432 96.5932 45.9106 96.5932 33.4593 78.6238C31.8694 76.4289 30.7082 73.9485 29.7793 71.3967C96.6625 107.425 41.8197 -8.99292 116.813 13.5983C129.8 31.4428 121.154 60.7614 97.8951 78.7844V78.8022Z" fill="#5E3938"/>
<path d="M119.082 17.2563C44.1243 -6.79811 97.2522 111.351 30.3868 72.9313C23.9557 53.9626 33.1379 28.2129 53.3779 11.5818C76.2797 -7.29775 106.47 -1.44474 119.082 17.2563Z" fill="#232121"/>
<path d="M89.9282 113.757C81.4249 134.76 87.4272 156.299 103.487 161.866C105.47 162.598 107.56 162.955 109.668 163.115C68.7592 120.663 167.351 137.401 134.821 86.0626C118.761 80.0847 98.6101 92.6472 89.946 113.775L89.9282 113.757Z" fill="#5E3938"/>
<path d="M131.605 85.1162C165.225 136.116 65.6865 121.019 108.382 162.972C123.923 163.828 141.287 151.605 149.523 133.029C158.884 111.99 148.219 90.648 131.587 85.1162H131.605Z" fill="#232121"/>
<path d="M53.8963 125.822C43.2672 107.817 24.0812 100.144 11.0046 108.763C9.36114 109.798 7.93201 111.136 6.62793 112.581C60.7026 106.443 -6.8416 169.22 49.0552 174.198C62.4532 165.794 64.5433 144.006 53.8963 125.822Z" fill="#5E3938"/>
<path d="M51.5559 172.377C-4.69817 168.398 62.1672 103.997 7.46728 111.724C-1.87564 122.627 -2.6438 142.185 6.35971 158.637C16.5422 177.285 38.1757 181.443 51.5559 172.377Z" fill="#232121"/>
<path d="M62.6318 32.763C66.419 34.3868 68.652 29.1584 64.8827 27.5345C61.0955 25.9106 58.8625 31.1391 62.6318 32.763Z" fill="white"/>
<path d="M90.6427 46.1993C94.4299 47.8231 96.9487 41.9701 93.1615 40.3463C89.3743 38.7224 86.8555 44.5754 90.6427 46.1993Z" fill="white"/>
<path d="M78.5843 50.0184C72.9928 52.2311 68.1159 49.6615 65.7757 44.326C64.8646 42.2382 61.5419 43.5408 62.4709 45.6465C65.5971 52.7665 72.4926 56.2461 79.9062 53.3196C82.0499 52.481 80.728 49.1797 78.5843 50.0184Z" fill="white"/>
<path d="M16.917 143.256C20.1325 141.989 18.3997 137.546 15.1663 138.813C11.9508 140.08 13.6836 144.523 16.917 143.256Z" fill="white"/>
<path d="M41.6227 134.745C44.8383 133.478 42.8911 128.499 39.6577 129.748C36.4243 130.997 38.3893 136.012 41.6227 134.745Z" fill="white"/>
<path d="M36.6747 144.166C34.6382 148.788 30.2079 150.144 25.6347 148.324C23.8483 147.61 22.6335 150.358 24.4378 151.054C30.5116 153.463 36.7104 151.482 39.4079 145.344C40.1939 143.577 37.4429 142.382 36.6747 144.148V144.166Z" fill="white"/>
<path d="M112.329 114.365C115.509 115.757 117.421 111.367 114.241 109.993C111.061 108.601 109.15 112.991 112.329 114.365Z" fill="white"/>
<path d="M135.821 125.803C139.001 127.195 141.144 122.27 137.964 120.896C134.785 119.522 132.641 124.429 135.821 125.803Z" fill="white"/>
<path d="M125.656 128.962C120.94 130.782 116.849 128.623 114.902 124.108C114.134 122.342 111.347 123.43 112.115 125.197C114.705 131.193 120.493 134.155 126.746 131.746C128.55 131.05 127.46 128.266 125.656 128.962Z" fill="white"/>
</g>
<defs>
<clipPath id="clip0_87_8247">
<rect width="153.024" height="177" fill="white"/>
</clipPath>
</defs>
</svg>
