<svg width="514" height="498" viewBox="0 0 514 498" fill="none" xmlns="http://www.w3.org/2000/svg">
<ellipse cx="252.626" cy="251.464" rx="252.626" ry="246.464" fill="#53A185"/>
<path d="M66.9238 206.178L34.4025 195.995L37.5751 184.325C38.2555 181.822 39.2037 179.673 40.4199 177.878C41.6252 176.063 43.0848 174.622 44.7987 173.555C46.5167 172.473 48.5281 171.859 50.8329 171.714C53.1418 171.553 55.6531 171.898 58.367 172.748C61.0808 173.597 63.3729 174.749 65.2432 176.201C67.1135 177.654 68.5019 179.332 69.4083 181.236C70.3188 183.124 70.8349 185.184 70.9567 187.414C71.0635 189.64 70.7767 192.005 70.0963 194.507L66.9238 206.178ZM62.3556 196.109L63.327 192.535C64.0116 190.017 63.7854 187.754 62.6486 185.746C61.5119 183.737 59.3182 182.224 56.0675 181.206C52.8318 180.193 50.2295 180.213 48.2607 181.265C46.2769 182.313 44.9469 184.081 44.2706 186.568L43.2991 190.142L62.3556 196.109Z" fill="white"/>
<path d="M80.3808 137.007L82.7792 138.52L74.3378 153.267C77.449 154.4 80.0214 153.19 82.0551 149.637C83.2427 147.562 83.8015 145.266 83.7317 142.748L89.8281 143.882C90.0548 147.476 89.1863 150.989 87.2224 154.42C84.9791 158.339 82.2404 160.782 79.0062 161.75C75.7666 162.697 72.4289 162.086 68.9931 159.918C65.5838 157.767 63.455 154.965 62.6068 151.514C61.7585 148.062 62.2931 144.662 64.2103 141.312C66.0422 138.112 68.4222 136.106 71.3503 135.296C74.2785 134.486 77.2886 135.056 80.3808 137.007ZM69.2777 144.62C68.6878 145.651 68.5307 146.742 68.8065 147.895C69.0822 149.047 69.795 150.143 70.9449 151.182L75.4043 143.391C74.0161 142.737 72.7949 142.529 71.7406 142.769C70.6808 142.986 69.8599 143.603 69.2777 144.62Z" fill="white"/>
<path d="M110.674 129.179C107.075 132.182 103.446 133.564 99.7871 133.323L98.9003 127.567C100.537 127.422 101.996 127.16 103.278 126.781C104.551 126.39 105.733 125.74 106.825 124.829C107.496 124.268 107.919 123.702 108.092 123.131C108.267 122.537 108.17 121.998 107.8 121.514C107.383 120.967 106.835 120.764 106.156 120.903C105.468 121.03 104.349 121.456 102.8 122.179C101.983 122.576 101.262 122.903 100.634 123.162C100.01 123.399 99.2637 123.605 98.3959 123.78C97.5187 123.943 96.727 123.973 96.0208 123.871C95.3146 123.769 94.5736 123.493 93.7979 123.042C93.0126 122.579 92.293 121.919 91.639 121.062C90.7859 119.944 90.2471 118.787 90.0225 117.592C89.8098 116.387 89.8906 115.232 90.2648 114.127C90.6295 113.01 91.1777 111.953 91.9094 110.956C92.6436 109.937 93.5506 108.976 94.6304 108.076C96.262 106.714 97.9058 105.729 99.5617 105.12C101.22 104.488 102.747 104.251 104.143 104.408L104.716 109.907C103.244 110.139 102.016 110.421 101.033 110.754C100.04 111.074 99.1359 111.574 98.3201 112.255C97.6482 112.815 97.2092 113.385 97.0028 113.964C96.8085 114.533 96.8819 115.041 97.2231 115.488C97.3937 115.711 97.6041 115.871 97.8543 115.968C98.1164 116.054 98.3729 116.094 98.6236 116.088C98.8744 116.082 99.2091 116.006 99.6278 115.86C100.047 115.714 100.41 115.573 100.719 115.437C101.04 115.292 101.488 115.081 102.062 114.805C102.74 114.483 103.312 114.229 103.779 114.043C104.248 113.835 104.81 113.62 105.466 113.398C106.121 113.176 106.698 113.031 107.195 112.962C107.682 112.88 108.229 112.851 108.836 112.874C109.445 112.874 109.988 112.969 110.467 113.159C110.958 113.339 111.464 113.629 111.984 114.028C112.507 114.405 112.997 114.891 113.451 115.487C115.195 117.773 115.798 120.106 115.259 122.488C114.71 124.857 113.182 127.087 110.674 129.179Z" fill="white"/>
<path d="M119.963 87.3649C118.856 88.2571 117.726 88.6865 116.573 88.653C115.421 88.6195 114.481 88.1135 113.755 87.135C113 86.1189 112.743 85.0129 112.983 83.8169C113.223 82.621 113.896 81.5769 115.003 80.6847C116.135 79.7729 117.28 79.3512 118.439 79.4196C119.598 79.4879 120.555 80.0302 121.31 81.0463C122.036 82.0249 122.27 83.0995 122.012 84.2703C121.765 85.4314 121.083 86.4629 119.963 87.3649ZM133.795 112.672L118.971 92.7065L125.175 87.7062L140 107.671L133.795 112.672Z" fill="white"/>
<path d="M163.977 89.0467L170.169 84.8607C172.505 83.2386 174.562 82.5511 176.342 82.7983C178.126 83.0234 179.549 83.9553 180.612 85.594C181.08 86.315 181.413 87.0724 181.611 87.8663C181.81 88.6602 181.824 89.5723 181.655 90.6026C181.485 91.6329 181.089 92.6873 180.467 93.7659C179.867 94.8486 178.911 96.0445 177.601 97.3537C176.312 98.667 174.712 99.9877 172.799 101.316C170.772 102.724 168.93 103.803 167.276 104.552C165.634 105.293 164.148 105.641 162.816 105.596C161.484 105.552 160.49 105.025 159.836 104.015C158.696 102.259 159.208 100.163 161.371 97.7296C158.992 98.3365 157.236 97.7682 156.105 96.0247C155.417 94.9628 155.166 93.8441 155.353 92.6685C155.544 91.471 156.033 90.086 156.818 88.5135C153.573 88.7901 151.087 87.5977 149.361 84.9365C147.924 82.721 147.654 80.3232 148.549 77.7429C149.444 75.1627 151.329 72.8744 154.204 70.878C156.54 69.2559 158.816 68.3026 161.033 68.0181L162.368 62.2421L168.065 63.3626L166.014 68.6376C167.212 69.1935 168.206 70.0811 168.997 71.3003C170.493 73.6075 170.757 76.067 169.789 78.6786C168.813 81.2772 166.836 83.6103 163.858 85.678C162.806 86.4089 161.686 87.0348 160.497 87.5559C160.123 88.3859 160.111 89.0697 160.459 89.6071C160.731 90.0266 161.139 90.2097 161.681 90.1563C162.215 90.0897 162.98 89.7199 163.977 89.0467ZM159.907 74.1615C158.96 73.9637 158.024 74.1857 157.1 74.8274C156.176 75.4691 155.604 76.2944 155.384 77.3032C155.163 78.312 155.376 79.3146 156.022 80.3109C156.702 81.3596 157.533 81.9805 158.514 82.1736C159.509 82.3577 160.474 82.1245 161.411 81.4739C162.335 80.8322 162.884 80.0137 163.057 79.0185C163.231 78.0233 162.978 77.0014 162.298 75.9526C161.643 74.9432 160.846 74.3461 159.907 74.1615ZM171.332 97.2012C172.949 96.0783 174.087 95.0213 174.748 94.0303C175.408 93.0394 175.513 92.1965 175.062 91.5017C174.688 90.9249 174.176 90.6527 173.527 90.6852C172.887 90.7307 171.998 91.1391 170.86 91.9103L164.809 96.0554C164.623 97.0024 164.712 97.7577 165.078 98.3214C166.038 99.8028 168.123 99.4294 171.332 97.2012Z" fill="white"/>
<path d="M201.878 47.317C206.916 45.633 210.317 47.6178 212.079 53.2714L217.079 69.3148L209.566 71.8259L205.381 58.4005C204.889 56.8193 204.247 55.7573 203.456 55.2145C202.66 54.6569 201.625 54.5911 200.351 55.017C199.402 55.334 198.611 55.9444 197.976 56.8483C197.352 57.7323 196.938 58.7931 196.734 60.0305L201.275 74.5971L193.717 77.1231L186.317 53.3824L193.875 50.8564L194.991 54.4365C195.922 50.9135 198.217 48.5403 201.878 47.317Z" fill="white"/>
<path d="M279.514 36.3572C283.663 36.9233 286.741 38.3446 288.747 40.6211C290.77 42.8841 291.534 45.9294 291.039 49.7569C290.535 53.6619 288.979 56.6192 286.371 58.6288C283.766 60.623 280.428 61.3423 276.356 60.7867L271.549 60.1307L270.338 69.4981L262.164 68.3827L266.533 34.5858L279.514 36.3572ZM272.363 53.8316L275.452 54.2531C277.434 54.5235 279.011 54.2026 280.185 53.2904C281.358 52.3782 282.061 51.0233 282.293 49.2258C282.518 47.4902 282.172 46.079 281.257 44.9922C280.36 43.8921 278.913 43.2057 276.915 42.9332L273.827 42.5118L272.363 53.8316Z" fill="white"/>
<path d="M320.266 53.1201L318.642 58.7012C319.787 57.112 321.235 55.994 322.985 55.3471C324.755 54.6899 326.564 54.6508 328.413 55.2299L326.056 63.3315C324.952 62.9859 323.928 62.7879 322.983 62.7374C322.057 62.6765 321.13 62.7873 320.202 63.0695C319.274 63.3518 318.438 63.933 317.693 64.8131C316.949 65.6931 316.336 66.8515 315.853 68.2881L313.319 76.9973L305.714 74.6155L312.661 50.7384L320.266 53.1201Z" fill="white"/>
<path d="M348.89 90.1031C347.148 89.9184 345.448 89.4047 343.79 88.5622C342.133 87.7196 340.699 86.6401 339.488 85.3237C338.277 84.0074 337.36 82.5603 336.737 80.9824C336.115 79.4045 335.838 77.696 335.908 75.8567C335.984 74.0032 336.446 72.1712 337.296 70.3605C338.43 67.9416 339.979 66.0923 341.942 64.8128C343.919 63.5403 346.039 62.901 348.302 62.8949C350.571 62.8747 352.82 63.431 355.049 64.5639C357.291 65.7039 359.102 67.2115 360.482 69.0868C361.883 70.9551 362.709 73.0919 362.961 75.4973C363.212 77.9027 362.771 80.3148 361.636 82.7337C360.787 84.5444 359.676 86.0472 358.305 87.2422C356.954 88.43 355.483 89.25 353.89 89.7021C352.298 90.1541 350.631 90.2878 348.89 90.1031ZM346.807 82.1329C348.158 82.8197 349.49 82.8663 350.803 82.2726C352.124 81.6648 353.179 80.5193 353.968 78.8359C354.758 77.1526 354.974 75.5892 354.616 74.1459C354.258 72.7026 353.404 71.6375 352.052 70.9507C350.701 70.2639 349.369 70.2173 348.056 70.811C346.742 71.4046 345.69 72.5431 344.901 74.2265C344.104 75.924 343.878 77.4908 344.222 78.9271C344.58 80.3704 345.442 81.439 346.807 82.1329Z" fill="white"/>
<path d="M375.355 89.4149C377.573 86.1427 380.33 84.2182 383.626 83.6415C386.943 83.0612 390.223 83.9672 393.468 86.3595C394.952 87.4537 396.171 88.6334 397.124 89.8987C398.077 91.164 398.723 92.3389 399.063 93.4236L393.872 97.743C393.214 95.9585 391.999 94.4125 390.225 93.105C388.829 92.0757 387.374 91.6911 385.858 91.951C384.356 92.2202 383.131 93.0532 382.184 94.45C381.211 95.8857 380.87 97.39 381.162 98.963C381.454 100.536 382.367 101.888 383.901 103.019C385.523 104.216 387.339 104.904 389.347 105.086L387.419 111.52C386.736 111.443 386.288 111.394 386.076 111.373C385.885 111.349 385.408 111.259 384.645 111.104C383.883 110.949 383.248 110.772 382.742 110.573C382.248 110.384 381.615 110.092 380.845 109.699C380.087 109.314 379.349 108.858 378.633 108.329C375.25 105.835 373.29 102.896 372.754 99.5137C372.226 96.1181 373.093 92.7518 375.355 89.4149Z" fill="white"/>
<path d="M422.845 127.004L420.902 129.07L409.043 116.901C407.296 119.783 407.852 122.691 410.709 125.622C412.377 127.334 414.392 128.462 416.752 129.005L414.341 134.919C410.942 134.272 407.864 132.533 405.104 129.702C401.953 126.468 400.286 123.091 400.103 119.571C399.942 116.051 401.253 112.811 404.036 109.852C406.798 106.915 409.881 105.437 413.285 105.418C416.688 105.399 419.737 106.772 422.43 109.536C425.004 112.177 426.343 115.082 426.447 118.253C426.551 121.424 425.35 124.341 422.845 127.004ZM418.222 113.873C417.394 113.023 416.412 112.597 415.277 112.596C414.143 112.595 412.963 113.051 411.74 113.965L418.005 120.394C418.923 119.144 419.388 117.955 419.399 116.826C419.433 115.697 419.04 114.713 418.222 113.873Z" fill="white"/>
<path d="M428.771 159.483C426.078 155.646 424.942 151.825 425.361 148.019L430.923 147.262C430.978 148.971 431.154 150.499 431.45 151.846C431.759 153.183 432.322 154.434 433.139 155.598C433.641 156.314 434.162 156.771 434.7 156.967C435.26 157.167 435.782 157.082 436.265 156.711C436.81 156.292 437.034 155.727 436.935 155.015C436.849 154.294 436.499 153.116 435.885 151.481C435.547 150.619 435.27 149.857 435.055 149.197C434.86 148.539 434.701 147.755 434.578 146.846C434.468 145.927 434.479 145.102 434.614 144.369C434.748 143.636 435.051 142.872 435.522 142.077C436.007 141.272 436.676 140.541 437.531 139.885C438.647 139.028 439.783 138.5 440.94 138.301C442.106 138.114 443.208 138.232 444.248 138.654C445.3 139.066 446.285 139.668 447.203 140.459C448.141 141.254 449.015 142.227 449.823 143.378C451.043 145.117 451.902 146.859 452.401 148.601C452.92 150.348 453.069 151.946 452.847 153.396L447.548 153.834C447.401 152.293 447.194 151.005 446.926 149.971C446.67 148.928 446.237 147.971 445.627 147.101C445.124 146.385 444.601 145.911 444.057 145.679C443.522 145.46 443.032 145.522 442.585 145.864C442.362 146.036 442.198 146.25 442.093 146.508C441.997 146.779 441.945 147.045 441.938 147.306C441.931 147.568 441.986 147.919 442.105 148.359C442.223 148.8 442.339 149.183 442.453 149.509C442.576 149.847 442.756 150.32 442.991 150.926C443.264 151.642 443.477 152.245 443.632 152.737C443.807 153.232 443.984 153.824 444.163 154.514C444.342 155.203 444.451 155.808 444.492 156.328C444.545 156.838 444.545 157.409 444.492 158.04C444.46 158.674 444.341 159.238 444.134 159.732C443.936 160.238 443.633 160.756 443.223 161.287C442.835 161.821 442.344 162.317 441.749 162.773C439.469 164.524 437.201 165.084 434.947 164.454C432.705 163.813 430.647 162.156 428.771 159.483Z" fill="white"/>
<path d="M444.438 191.277C442.385 187.063 441.869 183.116 442.889 179.436L448.512 179.588C448.295 181.28 448.226 182.814 448.305 184.188C448.397 185.555 448.755 186.878 449.378 188.156C449.761 188.942 450.204 189.476 450.705 189.757C451.227 190.044 451.757 190.044 452.294 189.756C452.9 189.432 453.211 188.912 453.227 188.195C453.256 187.471 453.097 186.254 452.751 184.545C452.554 183.641 452.401 182.846 452.293 182.16C452.205 181.481 452.173 180.684 452.196 179.768C452.232 178.845 452.375 178.034 452.625 177.334C452.874 176.634 453.296 175.93 453.889 175.223C454.496 174.508 455.275 173.897 456.226 173.388C457.465 172.725 458.674 172.388 459.85 172.379C461.033 172.383 462.105 172.677 463.067 173.26C464.042 173.836 464.921 174.588 465.703 175.515C466.505 176.45 467.214 177.549 467.83 178.813C468.761 180.723 469.334 182.577 469.55 184.374C469.786 186.178 469.679 187.776 469.228 189.168L463.915 188.744C464.015 187.203 464.015 185.901 463.915 184.84C463.828 183.77 463.552 182.758 463.087 181.803C462.703 181.016 462.261 180.465 461.76 180.149C461.265 179.847 460.77 179.828 460.274 180.094C460.026 180.227 459.83 180.411 459.684 180.648C459.546 180.899 459.453 181.153 459.404 181.41C459.355 181.666 459.354 182.02 459.401 182.473C459.448 182.926 459.502 183.323 459.563 183.662C459.631 184.015 459.733 184.509 459.869 185.145C460.025 185.894 460.141 186.523 460.215 187.032C460.31 187.548 460.391 188.159 460.458 188.867C460.525 189.575 460.537 190.189 460.495 190.707C460.466 191.218 460.375 191.781 460.222 192.394C460.09 193.013 459.882 193.55 459.599 194.002C459.323 194.469 458.94 194.931 458.45 195.387C457.981 195.851 457.416 196.259 456.755 196.613C454.22 197.97 451.888 198.155 449.758 197.17C447.641 196.177 445.868 194.213 444.438 191.277Z" fill="white"/>
</svg>
