<svg width="199" height="187" viewBox="0 0 199 187" fill="none" xmlns="http://www.w3.org/2000/svg">
<g filter="url(#filter0_d_87_8389)">
<rect width="107.843" height="142.882" transform="matrix(0.956289 -0.292422 0.280227 0.959934 4 44.5659)" fill="white"/>
</g>
<path d="M17.7887 47.4581C31.8658 42.6808 24.0718 28.6385 15.7374 31.1871C10.6225 32.7511 7.60813 37.8969 9.13632 43.1319" stroke="#B8ACAC" stroke-width="5.10397"/>
<path d="M44.4205 39.3136C58.4976 34.5363 50.7036 20.494 42.3692 23.0425C37.2543 24.6066 34.24 29.7524 35.7682 34.9873" stroke="#B8ACAC" stroke-width="5.10397"/>
<path d="M71.0524 31.1695C85.1295 26.3923 77.3354 12.3499 69.001 14.8985C63.8862 16.4625 60.8718 21.6084 62.4 26.8433" stroke="#B8ACAC" stroke-width="5.10397"/>
<path d="M97.6842 23.026C111.761 18.2487 103.967 4.20636 95.6329 6.75492C90.518 8.31899 87.5036 13.4648 89.0318 18.6997" stroke="#B8ACAC" stroke-width="5.10397"/>
<path d="M161.874 36.5464C165 30.8979 172.072 28.9248 177.671 32.1393L183.026 35.2143L143.516 106.609L128.024 97.7131L161.874 36.5464Z" fill="#F0EAD8"/>
<rect width="20.098" height="16.5991" transform="matrix(0.867217 0.497931 -0.484204 0.874955 173.453 14.2051)" fill="#E3E3E3"/>
<path d="M125.385 120.574L143.919 106.436L127.664 97.1029L125.385 120.574Z" fill="#F0EAD8"/>
<path d="M143.668 106.694L186.062 32.9268C177.564 32.7243 173.566 30.9278 168.632 22.9194L127.877 97.6279L131.166 95.5876L133.613 100.921L137.966 99.7942L138.454 103.701L142.36 102.317L143.668 106.694Z" fill="#FFD156"/>
<path d="M125.308 120.53L134.156 113.983L126.226 109.429L125.308 120.53Z" fill="black"/>
<path d="M177.694 6.54195C177.853 6.25339 178.085 6.00712 178.369 5.84378C186.166 1.357 194.424 6.35241 195.32 15.5309C195.357 15.9064 195.27 16.2838 195.089 16.6114L191.535 23.0324C191.143 23.7419 190.353 24.1305 189.559 23.9843C182.55 22.6928 178.938 20.5183 174.338 15.2416C173.8 14.6247 173.715 13.7314 174.109 13.0188L177.694 6.54195Z" fill="#E75F69"/>
<path d="M77.6262 84.2072C72.4347 94.4056 62.6571 100.147 55.7482 96.9827C54.8809 96.6099 54.1163 96.0621 53.4198 95.4456C81.4873 93.4427 45.4847 67.7984 74.2937 59.9601C81.3656 62.9786 82.8167 73.9091 77.6235 84.2016L77.6262 84.2072Z" fill="#5E3938"/>
<path d="M75.3673 60.3852C46.3328 67.7617 82.0373 94.3139 53.5996 95.5621C48.5794 90.8809 47.8428 80.9567 52.2227 71.6952C57.1695 61.1965 68.2898 57.02 75.3673 60.3852Z" fill="#232121"/>
<path d="M81.3244 99.0165C81.5841 107.487 86.9581 113.175 93.3807 111.692C94.1804 111.523 94.9601 111.212 95.716 110.834C75.0355 105.542 111.799 90.8404 92.6667 80.991C86.1814 82.3426 81.1103 90.4757 81.3333 99.0186L81.3244 99.0165Z" fill="#5E3938"/>
<path d="M91.1899 81.6806C110.64 91.1968 73.8159 106.612 95.0305 111.379C100.551 108.491 104.705 101.037 104.723 93.4022C104.755 84.749 97.7962 80.0739 91.1837 81.6842L91.1899 81.6806Z" fill="#232121"/>
<path d="M72.5445 108.121C66.1388 104.521 58.3526 105.956 55.1522 111.36C54.7427 112.024 54.4532 112.741 54.2231 113.467C71.9449 100.549 58.1913 134.295 78.2327 124.561C81.5766 119.16 78.9835 111.774 72.5445 108.121Z" fill="#5E3938"/>
<path d="M79.0582 123.306C59.0434 133.433 72.3174 99.3022 54.6195 112.856C53.0545 118.233 55.7646 124.639 61.3739 128.073C67.7239 131.969 75.8206 128.914 79.0582 123.306Z" fill="#232121"/>
<path d="M58.3065 80.7057C59.7217 80.4795 59.6988 78.5441 58.2891 78.767C56.8738 78.9932 56.8968 80.9286 58.3065 80.7057Z" fill="white"/>
<path d="M68.9399 80.3068C70.3597 80.0799 70.3398 77.9024 68.92 78.1293C67.5002 78.3561 67.5202 80.5337 68.9399 80.3068Z" fill="white"/>
<path d="M66.0057 83.272C64.5769 84.9099 62.7208 85.0618 61.2739 83.9706C60.7092 83.5428 59.8585 84.5126 60.4311 84.9423C62.363 86.3979 64.9666 86.1395 66.8619 83.9699C67.411 83.3446 66.5547 82.6467 66.0057 83.272Z" fill="white"/>
<path d="M62.3524 121.903C63.1871 120.941 62.0269 119.967 61.1866 120.933C60.3519 121.895 61.512 122.869 62.3524 121.903Z" fill="white"/>
<path d="M68.4482 115.303C69.2858 114.337 67.9795 113.242 67.1338 114.206C66.2881 115.171 67.605 116.272 68.4482 115.303Z" fill="white"/>
<path d="M68.6384 119.039C68.6344 120.71 67.4507 121.89 65.7939 122.2C65.1464 122.32 65.1427 123.314 65.7934 123.186C67.9927 122.773 69.6376 121.098 69.6408 118.879C69.6447 118.239 68.6344 118.396 68.636 119.034L68.6384 119.039Z" fill="white"/>
<path d="M86.5235 97.6973C87.7156 97.5157 87.7078 95.8843 86.5183 96.0711C85.3262 96.2527 85.334 97.884 86.5235 97.6973Z" fill="white"/>
<path d="M95.4664 97.4147C96.6624 97.2325 96.6532 95.3958 95.4598 95.5832C94.2663 95.7706 94.273 97.602 95.4664 97.4147Z" fill="white"/>
<path d="M92.9837 99.8942C91.7721 101.263 90.2143 101.389 88.9999 100.46C88.5227 100.097 87.8086 100.91 88.2857 101.272C89.8998 102.506 92.0914 102.301 93.6982 100.487C94.1617 99.9639 93.4472 99.3706 92.9837 99.8942Z" fill="white"/>
<defs>
<filter id="filter0_d_87_8389" x="0.304774" y="10.6339" width="150.559" height="176.083" filterUnits="userSpaceOnUse" color-interpolation-filters="sRGB">
<feFlood flood-opacity="0" result="BackgroundImageFix"/>
<feColorMatrix in="SourceAlpha" type="matrix" values="0 0 0 0 0 0 0 0 0 0 0 0 0 0 0 0 0 0 127 0" result="hardAlpha"/>
<feMorphology radius="0.671859" operator="dilate" in="SourceAlpha" result="effect1_dropShadow_87_8389"/>
<feOffset dy="1.29881"/>
<feGaussianBlur stdDeviation="1.51168"/>
<feComposite in2="hardAlpha" operator="out"/>
<feColorMatrix type="matrix" values="0 0 0 0 0 0 0 0 0 0 0 0 0 0 0 0 0 0 0.25 0"/>
<feBlend mode="normal" in2="BackgroundImageFix" result="effect1_dropShadow_87_8389"/>
<feBlend mode="normal" in="SourceGraphic" in2="effect1_dropShadow_87_8389" result="shape"/>
</filter>
</defs>
</svg>
