<svg width="70" height="105" viewBox="0 0 70 105" fill="none" xmlns="http://www.w3.org/2000/svg">
<path d="M60.111 92.8196L68.1683 25.5823L0.570435 26.138L13.4739 92.8196C26.9934 111.169 51.0111 106.322 60.111 92.8196Z" fill="url(#paint0_linear_2_1163)"/>
<path d="M56.5629 70.3114C60.4455 59.5682 55.0395 47.7814 44.4883 43.9848C33.937 40.1881 22.2361 45.8195 18.3535 56.5626C14.4708 67.3058 19.8768 79.0927 30.4281 82.8893C40.9793 86.6859 52.6803 81.0546 56.5629 70.3114Z" fill="#016242"/>
<path d="M34.9349 38.3408C53.8953 37.9544 69.1306 31.0365 68.9638 22.8892C68.7971 14.7419 53.2914 8.45038 34.331 8.83676C15.3706 9.22315 0.135306 16.1411 0.302065 24.2884C0.468823 32.4357 15.9745 38.7272 34.9349 38.3408Z" fill="#CDC9C1"/>
<path d="M65.7883 13.3098L68.6794 20.9829L67.2694 18.5829L64.9352 17.3651L65.7883 13.3098Z" fill="#CDC9C1"/>
<path d="M1.756 15.8049L0.286743 23.7145L1.2228 21.1371L3.29636 19.5883L1.756 15.8049Z" fill="#CDC9C1"/>
<path d="M34.116 29.0199C51.8529 28.6584 66.1051 22.1893 65.9492 14.5708C65.7933 6.9523 51.2882 1.06928 33.5513 1.43073C15.8143 1.79219 1.56208 8.26124 1.71801 15.8798C1.87395 23.4983 16.379 29.3813 34.116 29.0199Z" fill="#DAD9D9"/>
<defs>
<linearGradient id="paint0_linear_2_1163" x1="45.4878" y1="17.4334" x2="16.0478" y2="99.2724" gradientUnits="userSpaceOnUse">
<stop stop-color="#F3F1EB"/>
<stop offset="1" stop-color="#C4C1B9"/>
</linearGradient>
</defs>
</svg>
