<svg width="226" height="221" viewBox="0 0 226 221" fill="none" xmlns="http://www.w3.org/2000/svg">
<g filter="url(#filter0_d_248_376)">
<path d="M174.26 20.7454C174.375 20.6083 174.598 20.6978 174.586 20.876L171.961 59.7043C171.955 59.784 172.002 59.8581 172.076 59.8878L208.193 74.3829C208.358 74.4494 208.342 74.6892 208.169 74.7328L170.43 84.2349C170.353 84.2544 170.296 84.3216 170.291 84.4012L167.666 123.23C167.654 123.408 167.421 123.467 167.326 123.316L146.627 90.3595C146.584 90.2919 146.503 90.2593 146.426 90.2788L108.687 99.7809C108.514 99.8245 108.386 99.6211 108.5 99.484L133.447 69.6141C133.498 69.5528 133.504 69.4655 133.461 69.3979L112.762 36.4422C112.667 36.291 112.821 36.1066 112.987 36.1731L149.104 50.6682C149.178 50.6979 149.263 50.6765 149.314 50.6152L174.26 20.7454Z" fill="#C09C56"/>
</g>
<g filter="url(#filter1_d_248_376)">
<path d="M18.9519 101.975C18.9605 101.931 19.0201 101.924 19.0389 101.965L21.8722 108.076C21.8806 108.094 21.8998 108.104 21.9196 108.102L28.607 107.296C28.6514 107.29 28.6766 107.345 28.6439 107.375L23.7075 111.958C23.6929 111.972 23.6887 111.993 23.6971 112.012L26.5304 118.123C26.5492 118.163 26.5052 118.204 26.4662 118.182L20.582 114.904C20.5646 114.894 20.5428 114.897 20.5282 114.91L15.5918 119.493C15.5591 119.524 15.5066 119.494 15.5153 119.451L16.815 112.841C16.8189 112.822 16.8097 112.802 16.7922 112.792L10.908 109.514C10.869 109.492 10.8806 109.433 10.925 109.428L17.6124 108.621C17.6322 108.619 17.6483 108.604 17.6521 108.584L18.9519 101.975Z" fill="#FFD156"/>
</g>
<g filter="url(#filter2_d_248_376)">
<path d="M111.713 167.226C111.699 167.183 111.748 167.148 111.784 167.174L117.235 171.132C117.251 171.143 117.273 171.143 117.289 171.132L122.737 167.17C122.773 167.144 122.822 167.179 122.808 167.222L120.728 173.629C120.722 173.648 120.729 173.669 120.745 173.68L126.196 177.638C126.232 177.664 126.214 177.721 126.169 177.721L119.433 177.723C119.413 177.723 119.395 177.736 119.389 177.755L117.31 184.162C117.296 184.205 117.236 184.205 117.222 184.162L115.138 177.757C115.132 177.738 115.115 177.725 115.095 177.725L108.359 177.727C108.314 177.727 108.296 177.67 108.332 177.644L113.78 173.683C113.796 173.671 113.803 173.65 113.797 173.631L111.713 167.226Z" fill="#C09C56"/>
</g>
<path d="M135.253 157.736C135.262 157.692 135.321 157.685 135.34 157.725L136.671 160.596C136.68 160.614 136.699 160.624 136.718 160.622L139.86 160.243C139.904 160.238 139.929 160.292 139.897 160.323L137.578 162.476C137.563 162.489 137.559 162.511 137.567 162.529L138.898 165.399C138.917 165.44 138.873 165.481 138.834 165.459L136.07 163.919C136.053 163.909 136.031 163.912 136.016 163.925L133.698 166.078C133.665 166.109 133.612 166.079 133.621 166.036L134.231 162.931C134.235 162.911 134.226 162.891 134.209 162.882L131.445 161.342C131.406 161.32 131.417 161.261 131.462 161.256L134.603 160.877C134.623 160.875 134.639 160.86 134.643 160.84L135.253 157.736Z" fill="#FFD156"/>
<g filter="url(#filter3_d_248_376)">
<path d="M29.815 46.4359C29.7859 46.402 29.8171 46.3507 29.8606 46.361L36.4144 47.9165C36.4338 47.9211 36.454 47.9127 36.4644 47.8956L39.969 42.1432C39.9922 42.1051 40.0507 42.119 40.0543 42.1635L40.6002 48.8772C40.6018 48.8971 40.6161 48.9137 40.6355 48.9183L47.1893 50.4738C47.2328 50.4841 47.2376 50.544 47.1964 50.5612L40.98 53.155C40.9615 53.1627 40.9502 53.1814 40.9518 53.2013L41.4977 59.915C41.5013 59.9595 41.4459 59.9827 41.4168 59.9488L37.0289 54.8381C37.0159 54.823 36.9946 54.8179 36.9762 54.8256L30.7597 57.4195C30.7185 57.4367 30.6794 57.3911 30.7026 57.3529L34.2072 51.6005C34.2176 51.5835 34.2158 51.5617 34.2028 51.5465L29.815 46.4359Z" fill="#FFD156"/>
</g>
<g filter="url(#filter4_d_248_376)">
<path d="M52.9647 109.334C53.0336 108.984 53.5107 108.926 53.6609 109.25L69.4419 143.287C69.5091 143.432 69.662 143.517 69.8206 143.498L107.068 139.008C107.423 138.965 107.625 139.401 107.363 139.644L79.8687 165.17C79.7517 165.279 79.7179 165.451 79.7851 165.596L95.5661 199.633C95.7164 199.957 95.3642 200.284 95.0522 200.11L62.2787 181.849C62.1391 181.771 61.9654 181.792 61.8484 181.901L34.3539 207.428C34.0922 207.671 33.6724 207.437 33.7413 207.086L40.9806 170.274C41.0114 170.117 40.9378 169.959 40.7983 169.881L8.02475 151.62C7.71275 151.446 7.80547 150.975 8.16007 150.932L45.4077 146.441C45.5663 146.422 45.6945 146.303 45.7254 146.147L52.9647 109.334Z" fill="#FFD156"/>
</g>
<g filter="url(#filter5_d_248_376)">
<path d="M51.1001 36.4299C51.1333 36.4001 51.1853 36.4302 51.1759 36.4739L50.6058 39.132C50.6016 39.1516 50.6104 39.1716 50.6277 39.1816L52.9796 40.5452C53.0182 40.5676 53.0056 40.6264 52.9612 40.631L50.2569 40.9101C50.2371 40.9122 50.2208 40.9268 50.2166 40.9463L49.6464 43.6044C49.6371 43.6481 49.5773 43.6543 49.5592 43.6134L48.4581 41.1278C48.45 41.1096 48.4311 41.0986 48.4112 41.1006L45.707 41.3798C45.6626 41.3844 45.6382 41.3294 45.6715 41.2996L47.6952 39.4843C47.71 39.4709 47.7146 39.4496 47.7065 39.4313L46.6054 36.9457C46.5873 36.9049 46.632 36.8648 46.6706 36.8871L49.0225 38.2508C49.0398 38.2608 49.0615 38.2586 49.0764 38.2453L51.1001 36.4299Z" fill="#C09C56"/>
</g>
<g filter="url(#filter6_d_248_376)">
<path d="M134.012 139.823L121.968 64.3701L48.9448 85.8027L83.5137 154.199C103.827 169.951 128.336 157.29 134.012 139.823Z" fill="url(#paint0_linear_248_376)"/>
<path d="M98.7984 138.199C111.394 139.068 122.323 129.349 123.21 116.491C124.097 103.633 114.605 92.506 102.01 91.6373C89.4144 90.7686 78.485 100.488 77.5982 113.345C76.7115 126.203 86.2031 137.331 98.7984 138.199Z" fill="#1E3932"/>
<path d="M89.9312 88.4525C110.347 82.1878 124.711 69.9832 122.014 61.1925C119.316 52.4019 100.579 50.3542 80.1631 56.6188C59.7472 62.8834 45.3834 75.0881 48.0808 83.8787C50.7782 92.6693 69.5153 94.7171 89.9312 88.4525Z" fill="#CDCAC2"/>
<path d="M115.604 51.7949L121.098 59.2297L118.829 57.0572L115.927 56.4537L115.604 51.7949Z" fill="#CDCAC2"/>
<path d="M47.0259 74.2197L47.8837 83.2543L48.0965 80.1685L49.8697 77.8528L47.0259 74.2197Z" fill="#CDCAC2"/>
<path d="M86.16 78.5993C105.253 72.7406 118.686 61.3268 116.163 53.1059C113.641 44.8849 96.1178 42.9699 77.0249 48.8285C57.932 54.6872 44.4991 66.1009 47.0217 74.3219C49.5443 82.5429 67.0671 84.4579 86.16 78.5993Z" fill="#D9D9D9"/>
<path d="M95.2684 117.688L102.929 121.298L106.539 113.638C106.964 112.736 107.013 111.703 106.676 110.764L106.619 110.605C105.949 108.739 103.892 107.77 102.026 108.44C100.999 108.809 100.196 109.625 99.8423 110.657L99.4825 111.708L98.5358 111.126C97.6065 110.555 96.4679 110.437 95.4413 110.806C93.5749 111.477 92.6056 113.534 93.2762 115.4L93.3332 115.559C93.6704 116.497 94.3665 117.263 95.2684 117.688Z" fill="#E75F69"/>
</g>
<path d="M179.849 158.706H162.422C161.795 158.706 161.286 159.215 161.286 159.843C161.286 160.47 161.795 160.979 162.422 160.979H179.849C180.476 160.979 180.985 160.47 180.985 159.843C180.985 159.215 180.476 158.706 179.849 158.706Z" fill="white"/>
<path d="M152.572 158.706H148.783C148.156 158.706 147.647 159.215 147.647 159.843C147.647 160.47 148.156 160.979 148.783 160.979H152.572C153.2 160.979 153.708 160.47 153.708 159.843C153.708 159.215 153.2 158.706 152.572 158.706Z" fill="white"/>
<path d="M157.497 162.872C159.171 162.872 160.528 161.515 160.528 159.841C160.528 158.167 159.171 156.811 157.497 156.811C155.823 156.811 154.466 158.167 154.466 159.841C154.466 161.515 155.823 162.872 157.497 162.872Z" fill="white"/>
<path d="M148.783 174.62H166.209C166.837 174.62 167.346 174.111 167.346 173.484C167.346 172.856 166.837 172.347 166.209 172.347H148.783C148.155 172.347 147.647 172.856 147.647 173.484C147.647 174.111 148.155 174.62 148.783 174.62Z" fill="white"/>
<path d="M176.06 174.62H179.849C180.476 174.62 180.985 174.111 180.985 173.484C180.985 172.856 180.476 172.347 179.849 172.347H176.06C175.433 172.347 174.924 172.856 174.924 173.484C174.924 174.111 175.433 174.62 176.06 174.62Z" fill="white"/>
<path d="M171.135 170.454C169.461 170.454 168.104 171.811 168.104 173.485C168.104 175.159 169.461 176.516 171.135 176.516C172.809 176.516 174.166 175.159 174.166 173.485C174.166 171.811 172.809 170.454 171.135 170.454Z" fill="white"/>
<path d="M148.783 148.102H166.209C166.837 148.102 167.346 147.593 167.346 146.965C167.346 146.337 166.837 145.829 166.209 145.829H148.783C148.155 145.829 147.647 146.337 147.647 146.965C147.647 147.593 148.155 148.102 148.783 148.102Z" fill="white"/>
<path d="M176.059 148.102H179.847C180.475 148.102 180.984 147.593 180.984 146.965C180.984 146.337 180.475 145.829 179.847 145.829H176.059C175.431 145.829 174.923 146.337 174.923 146.965C174.923 147.593 175.431 148.102 176.059 148.102Z" fill="white"/>
<path d="M171.134 143.936C169.46 143.936 168.103 145.293 168.103 146.966C168.103 148.64 169.46 149.997 171.134 149.997C172.808 149.997 174.165 148.64 174.165 146.966C174.165 145.293 172.808 143.936 171.134 143.936Z" fill="white"/>
<defs>
<filter id="filter0_d_248_376" x="107.719" y="20.31" width="101.326" height="104.197" filterUnits="userSpaceOnUse" color-interpolation-filters="sRGB">
<feFlood flood-opacity="0" result="BackgroundImageFix"/>
<feColorMatrix in="SourceAlpha" type="matrix" values="0 0 0 0 0 0 0 0 0 0 0 0 0 0 0 0 0 0 127 0" result="hardAlpha"/>
<feOffset dy="0.368695"/>
<feGaussianBlur stdDeviation="0.368695"/>
<feComposite in2="hardAlpha" operator="out"/>
<feColorMatrix type="matrix" values="0 0 0 0 1 0 0 0 0 0.819608 0 0 0 0 0.337255 0 0 0 0.29 0"/>
<feBlend mode="normal" in2="BackgroundImageFix" result="effect1_dropShadow_248_376"/>
<feBlend mode="normal" in="SourceGraphic" in2="effect1_dropShadow_248_376" result="shape"/>
</filter>
<filter id="filter1_d_248_376" x="10.1469" y="101.569" width="19.2492" height="19.0431" filterUnits="userSpaceOnUse" color-interpolation-filters="sRGB">
<feFlood flood-opacity="0" result="BackgroundImageFix"/>
<feColorMatrix in="SourceAlpha" type="matrix" values="0 0 0 0 0 0 0 0 0 0 0 0 0 0 0 0 0 0 127 0" result="hardAlpha"/>
<feOffset dy="0.368695"/>
<feGaussianBlur stdDeviation="0.368695"/>
<feComposite in2="hardAlpha" operator="out"/>
<feColorMatrix type="matrix" values="0 0 0 0 1 0 0 0 0 0.819608 0 0 0 0 0.337255 0 0 0 0.29 0"/>
<feBlend mode="normal" in2="BackgroundImageFix" result="effect1_dropShadow_248_376"/>
<feBlend mode="normal" in="SourceGraphic" in2="effect1_dropShadow_248_376" result="shape"/>
</filter>
<filter id="filter2_d_248_376" x="107.575" y="166.792" width="19.3771" height="18.508" filterUnits="userSpaceOnUse" color-interpolation-filters="sRGB">
<feFlood flood-opacity="0" result="BackgroundImageFix"/>
<feColorMatrix in="SourceAlpha" type="matrix" values="0 0 0 0 0 0 0 0 0 0 0 0 0 0 0 0 0 0 127 0" result="hardAlpha"/>
<feOffset dy="0.368695"/>
<feGaussianBlur stdDeviation="0.368695"/>
<feComposite in2="hardAlpha" operator="out"/>
<feColorMatrix type="matrix" values="0 0 0 0 0.752941 0 0 0 0 0.611765 0 0 0 0 0.337255 0 0 0 0.25 0"/>
<feBlend mode="normal" in2="BackgroundImageFix" result="effect1_dropShadow_248_376"/>
<feBlend mode="normal" in="SourceGraphic" in2="effect1_dropShadow_248_376" result="shape"/>
</filter>
<filter id="filter3_d_248_376" x="29.0663" y="41.7524" width="18.8959" height="19.3185" filterUnits="userSpaceOnUse" color-interpolation-filters="sRGB">
<feFlood flood-opacity="0" result="BackgroundImageFix"/>
<feColorMatrix in="SourceAlpha" type="matrix" values="0 0 0 0 0 0 0 0 0 0 0 0 0 0 0 0 0 0 127 0" result="hardAlpha"/>
<feOffset dy="0.368695"/>
<feGaussianBlur stdDeviation="0.368695"/>
<feComposite in2="hardAlpha" operator="out"/>
<feColorMatrix type="matrix" values="0 0 0 0 1 0 0 0 0 0.819608 0 0 0 0 0.337255 0 0 0 0.29 0"/>
<feBlend mode="normal" in2="BackgroundImageFix" result="effect1_dropShadow_248_376"/>
<feBlend mode="normal" in="SourceGraphic" in2="effect1_dropShadow_248_376" result="shape"/>
</filter>
<filter id="filter4_d_248_376" x="7.09782" y="108.667" width="101.122" height="99.966" filterUnits="userSpaceOnUse" color-interpolation-filters="sRGB">
<feFlood flood-opacity="0" result="BackgroundImageFix"/>
<feColorMatrix in="SourceAlpha" type="matrix" values="0 0 0 0 0 0 0 0 0 0 0 0 0 0 0 0 0 0 127 0" result="hardAlpha"/>
<feOffset dy="0.368695"/>
<feGaussianBlur stdDeviation="0.368695"/>
<feComposite in2="hardAlpha" operator="out"/>
<feColorMatrix type="matrix" values="0 0 0 0 0.752941 0 0 0 0 0.611765 0 0 0 0 0.337255 0 0 0 0.25 0"/>
<feBlend mode="normal" in2="BackgroundImageFix" result="effect1_dropShadow_248_376"/>
<feBlend mode="normal" in="SourceGraphic" in2="effect1_dropShadow_248_376" result="shape"/>
</filter>
<filter id="filter5_d_248_376" x="44.9186" y="36.0493" width="8.82146" height="8.69744" filterUnits="userSpaceOnUse" color-interpolation-filters="sRGB">
<feFlood flood-opacity="0" result="BackgroundImageFix"/>
<feColorMatrix in="SourceAlpha" type="matrix" values="0 0 0 0 0 0 0 0 0 0 0 0 0 0 0 0 0 0 127 0" result="hardAlpha"/>
<feOffset dy="0.368695"/>
<feGaussianBlur stdDeviation="0.368695"/>
<feComposite in2="hardAlpha" operator="out"/>
<feColorMatrix type="matrix" values="0 0 0 0 0.752941 0 0 0 0 0.611765 0 0 0 0 0.337255 0 0 0 0.25 0"/>
<feBlend mode="normal" in2="BackgroundImageFix" result="effect1_dropShadow_248_376"/>
<feBlend mode="normal" in="SourceGraphic" in2="effect1_dropShadow_248_376" result="shape"/>
</filter>
<filter id="filter6_d_248_376" x="46.2195" y="45.3046" width="87.9215" height="116.559" filterUnits="userSpaceOnUse" color-interpolation-filters="sRGB">
<feFlood flood-opacity="0" result="BackgroundImageFix"/>
<feColorMatrix in="SourceAlpha" type="matrix" values="0 0 0 0 0 0 0 0 0 0 0 0 0 0 0 0 0 0 127 0" result="hardAlpha"/>
<feOffset dx="-0.184347" dy="0.184347"/>
<feGaussianBlur stdDeviation="0.156695"/>
<feComposite in2="hardAlpha" operator="out"/>
<feColorMatrix type="matrix" values="0 0 0 0 0.117647 0 0 0 0 0.223529 0 0 0 0 0.196078 0 0 0 0.09 0"/>
<feBlend mode="normal" in2="BackgroundImageFix" result="effect1_dropShadow_248_376"/>
<feBlend mode="normal" in="SourceGraphic" in2="effect1_dropShadow_248_376" result="shape"/>
</filter>
<linearGradient id="paint0_linear_248_376" x1="94.9479" y1="62.5066" x2="88.1977" y2="160.381" gradientUnits="userSpaceOnUse">
<stop stop-color="#F2F0EA"/>
<stop offset="1" stop-color="#C4C1B9"/>
</linearGradient>
</defs>
</svg>
