<svg width="427" height="427" viewBox="0 0 427 427" fill="none" xmlns="http://www.w3.org/2000/svg">
<circle cx="213.5" cy="213.5" r="213.5" fill="#4F9B86"/>
<path d="M61.4493 114.897C63.6323 112.498 66.006 112.038 68.5703 113.519C70.4603 114.61 71.5166 116.125 71.7392 118.065C71.9578 119.989 71.3597 122.176 69.945 124.627L64.9606 133.26L44.2467 121.301L48.828 113.366C50.2263 110.944 51.7786 109.352 53.4851 108.589C55.1875 107.812 56.979 107.966 58.8595 109.052C61.1864 110.395 62.0496 112.344 61.4493 114.897ZM52.4195 116.028L50.9884 118.507L55.9176 121.353L57.3487 118.874C57.8696 117.972 58.061 117.158 57.9227 116.432C57.775 115.701 57.288 115.097 56.4617 114.62C55.6544 114.154 54.9115 114.048 54.233 114.302C53.5449 114.55 52.9405 115.126 52.4195 116.028ZM64.0094 126.025L65.8107 122.905C66.3206 122.021 66.4985 121.187 66.3442 120.401C66.1899 119.616 65.6996 118.985 64.8733 118.507C64.0755 118.047 63.3121 117.954 62.5832 118.23C61.8542 118.506 61.2347 119.085 60.7248 119.968L58.9235 123.088L64.0094 126.025Z" fill="white"/>
<path d="M67.1952 97.8866L70.4508 100.345C69.6869 99.1911 69.3028 97.9528 69.2984 96.6302C69.2918 95.2922 69.6983 94.0806 70.5178 92.9954L75.2437 96.5642C74.7546 97.2119 74.3808 97.8434 74.1221 98.4589C73.8613 99.059 73.7122 99.7023 73.6749 100.389C73.6375 101.075 73.8173 101.774 74.2141 102.486C74.611 103.198 75.2206 103.892 76.0431 104.568L81.1234 108.405L77.7528 112.868L63.8246 102.35L67.1952 97.8866Z" fill="white"/>
<path d="M91.7721 82.0298L93.2011 83.4154L84.8988 91.9775C86.8878 93.2188 88.8824 92.808 90.8826 90.7452C92.0507 89.5407 92.8155 88.0902 93.1772 86.3939L97.2518 88.0994C96.8241 90.5413 95.6445 92.7581 93.713 94.7501C91.5067 97.0254 89.1948 98.236 86.7773 98.3818C84.3596 98.5121 82.1272 97.5848 80.0802 95.5999C78.0489 93.6302 77.0184 91.4241 76.9885 88.9816C76.9586 86.539 77.8865 84.3454 79.7722 82.4008C81.5739 80.5427 83.5637 79.5698 85.7417 79.4819C87.9197 79.3941 89.9298 80.2434 91.7721 82.0298ZM82.7733 85.4025C82.1931 86.0008 81.9054 86.7071 81.9102 87.5214C81.915 88.3357 82.2343 89.18 82.8682 90.0544L87.2541 85.5312C86.391 84.8775 85.5716 84.5489 84.796 84.5454C84.0201 84.5263 83.3459 84.812 82.7733 85.4025Z" fill="white"/>
<path d="M111.64 69.7653L107.165 59.2191L111.266 55.919L117.633 73.1984L113.673 76.3851L103.802 69.9701L108.213 80.7784L104.253 83.9651L89.1075 73.75L93.5418 70.1818L102.604 76.8252L98.2709 66.3763L102.154 63.2515L111.64 69.7653Z" fill="white"/>
<path d="M118.747 48.4687C117.898 48.9941 117.065 49.2004 116.247 49.0877C115.429 48.975 114.795 48.555 114.345 47.8278C113.877 47.0725 113.77 46.2944 114.022 45.4933C114.274 44.6923 114.824 44.029 115.673 43.5037C116.54 42.9668 117.383 42.7669 118.204 42.904C119.024 43.0411 119.668 43.4873 120.135 44.2426C120.585 44.9698 120.679 45.7247 120.415 46.5071C120.161 47.2837 119.605 47.9376 118.747 48.4687ZM126.865 66.8921L117.677 52.0528L122.432 49.1085L131.62 63.9478L126.865 66.8921Z" fill="white"/>
<path d="M141.508 39.8576C144.895 38.2992 147.458 39.4079 149.195 43.1838L154.124 53.8989L149.073 56.2228L144.948 47.2562C144.462 46.2002 143.918 45.5151 143.314 45.2011C142.707 44.8772 141.974 44.9123 141.118 45.3065C140.48 45.5998 139.978 46.0841 139.613 46.7592C139.253 47.4198 139.056 48.1863 139.023 49.0587L143.499 58.7874L138.418 61.1251L131.123 45.2692L136.204 42.9315L137.304 45.3226C137.646 42.8114 139.047 40.9898 141.508 39.8576Z" fill="white"/>
<path d="M164.236 44.5435L169.257 43.0154C171.159 42.4103 172.694 42.3708 173.863 42.8967C175.038 43.4088 175.834 44.3181 176.249 45.6244C176.432 46.1992 176.516 46.7709 176.502 47.3395C176.487 47.9081 176.324 48.518 176.013 49.1692C175.703 49.8205 175.233 50.4418 174.604 51.0331C173.989 51.6316 173.11 52.2334 171.967 52.8385C170.839 53.4508 169.496 54.0046 167.939 54.4999C166.287 55.0252 164.826 55.3693 163.554 55.5321C162.293 55.6917 161.212 55.6213 160.311 55.3211C159.41 55.0208 158.831 54.4683 158.575 53.6636C158.13 52.2632 158.876 50.9729 160.814 49.7925C159.074 49.7131 157.982 48.9784 157.54 47.5885C157.271 46.742 157.311 45.9466 157.662 45.2022C158.019 44.4441 158.615 43.6217 159.449 42.7348C157.18 42.2597 155.708 40.9614 155.033 38.8399C154.472 37.0737 154.74 35.423 155.84 33.8878C156.94 32.3526 158.66 31.2127 161.001 30.468C162.903 29.8629 164.638 29.6908 166.206 29.9517L168.211 26.3792L171.889 28.2818L169.49 31.3755C170.203 31.9888 170.714 32.7814 171.023 33.7533C171.608 35.5926 171.323 37.283 170.168 38.8244C169.009 40.3553 167.217 41.5064 164.793 42.2777C163.936 42.5503 163.052 42.7393 162.142 42.8447C161.73 43.3211 161.592 43.7736 161.728 44.2021C161.834 44.5365 162.078 44.741 162.458 44.8156C162.836 44.8798 163.428 44.7891 164.236 44.5435ZM164.275 33.8114C163.665 33.4874 162.984 33.445 162.232 33.6844C161.479 33.9238 160.932 34.3567 160.591 34.9833C160.249 35.6098 160.205 36.3202 160.457 37.1144C160.723 37.9505 161.173 38.5324 161.807 38.8602C162.451 39.1847 163.154 39.2256 163.917 38.9829C164.67 38.7435 165.199 38.3103 165.506 37.6833C165.813 37.0563 165.834 36.3248 165.568 35.4887C165.312 34.684 164.881 34.1249 164.275 33.8114ZM167.715 51.4638C169.032 51.0449 170.009 50.5728 170.648 50.0475C171.286 49.5221 171.517 48.9825 171.341 48.4286C171.195 47.9688 170.897 47.6838 170.448 47.5736C170.002 47.4738 169.317 47.5649 168.394 47.847L163.478 49.3766C163.171 49.9689 163.09 50.4898 163.233 50.9391C163.608 52.1201 165.102 52.295 167.715 51.4638Z" fill="white"/>
<path d="M197.368 35.1022C197.198 32.3329 197.903 30.048 199.484 28.2474C201.075 26.4352 203.283 25.442 206.107 25.2678C207.398 25.1881 208.579 25.2746 209.65 25.5272C210.72 25.7799 211.582 26.1223 212.235 26.5545L211.205 31.2328C210.076 30.5662 208.74 30.2806 207.196 30.3757C205.981 30.4507 205.009 30.9007 204.28 31.7258C203.562 32.5502 203.239 33.5535 203.312 34.7357C203.387 35.9507 203.842 36.917 204.677 37.6346C205.513 38.3522 206.598 38.6698 207.934 38.5874C209.346 38.5003 210.647 38.052 211.839 37.2423L213.525 41.5883C213.113 41.8554 212.843 42.0314 212.717 42.1161C212.6 42.1892 212.297 42.3562 211.808 42.6171C211.319 42.878 210.891 43.0692 210.525 43.1907C210.17 43.3115 209.694 43.4397 209.098 43.5754C208.513 43.7103 207.909 43.7971 207.285 43.8355C204.34 44.0171 201.995 43.3157 200.249 41.7313C198.503 40.136 197.543 37.9263 197.368 35.1022Z" fill="white"/>
<path d="M231.016 43.7465C229.829 44.1127 228.584 44.2557 227.281 44.1754C225.979 44.095 224.761 43.8002 223.627 43.2908C222.494 42.7814 221.519 42.1059 220.703 41.2645C219.887 40.4231 219.264 39.4012 218.832 38.1989C218.402 36.9857 218.23 35.6786 218.316 34.2775C218.431 32.4058 218.965 30.7851 219.918 29.4154C220.881 28.0465 222.102 27.045 223.581 26.411C225.06 25.7661 226.675 25.4976 228.427 25.6056C230.189 25.7143 231.764 26.1796 233.153 27.0014C234.553 27.8129 235.647 28.9572 236.435 30.4342C237.223 31.9111 237.559 33.5855 237.444 35.4573C237.358 36.8583 237.021 38.1341 236.433 39.2845C235.858 40.4247 235.108 41.3618 234.183 42.0959C233.259 42.83 232.203 43.3802 231.016 43.7465ZM227.588 39.2004C228.65 39.2659 229.533 38.9249 230.239 38.1773C230.945 37.4187 231.338 36.3882 231.418 35.0856C231.499 33.783 231.235 32.7175 230.627 31.8888C230.018 31.0602 229.183 30.6132 228.122 30.5477C227.06 30.4822 226.176 30.8233 225.471 31.5709C224.766 32.3185 224.373 33.3436 224.292 34.6461C224.211 35.9596 224.47 37.0304 225.067 37.8583C225.675 38.6869 226.515 39.1343 227.588 39.2004Z" fill="white"/>
<path d="M254.419 29.3253C258.085 30.0105 259.535 32.3959 258.772 36.4815L256.604 48.0754L251.139 47.0537L252.953 37.3517C253.166 36.209 253.118 35.3353 252.807 34.7305C252.498 34.1149 251.88 33.7205 250.953 33.5472C250.263 33.4182 249.574 33.5237 248.885 33.8636C248.21 34.1947 247.606 34.7067 247.075 35.3996L245.108 45.9262L239.61 44.8985L242.817 27.7421L248.315 28.7699L247.831 31.3571C249.561 29.5048 251.757 28.8276 254.419 29.3253Z" fill="white"/>
<path d="M277.732 32.595C276.969 32.3523 276.372 32.3293 275.941 32.526C275.51 32.7227 275.19 33.1502 274.981 33.8086L274.432 35.533L277.991 36.665L276.664 40.8348L273.106 39.7028L269.141 52.1652L263.811 50.4697L267.776 38.0073L265.362 37.2393L266.688 33.0695L269.102 33.8375L269.835 31.5331C271.016 27.8231 273.748 26.6497 278.033 28.0127C279.193 28.3818 280.081 28.7389 280.696 29.0842L279.379 33.2227C278.856 32.9871 278.307 32.7779 277.732 32.595Z" fill="white"/>
<path d="M289.218 38.2925C288.311 37.8754 287.679 37.2948 287.321 36.5508C286.963 35.8067 286.963 35.0461 287.321 34.269C287.692 33.462 288.281 32.9424 289.088 32.7101C289.895 32.4778 290.752 32.5702 291.659 32.9873C292.585 33.4136 293.218 34.0065 293.556 34.7659C293.895 35.5253 293.879 36.3085 293.508 37.1155C293.15 37.8926 292.572 38.3873 291.775 38.5997C290.987 38.8166 290.134 38.7142 289.218 38.2925ZM278.344 55.2362L285.639 39.3803L290.72 41.718L283.425 57.5739L278.344 55.2362Z" fill="white"/>
<path d="M308.746 54.1768L313.768 46.0649L318.552 49.0265L305.25 70.5092L300.844 67.7814L301.947 65.8133C299.931 66.7576 297.883 66.586 295.803 65.2985C293.845 64.0862 292.665 62.3881 292.263 60.2043C291.87 58.0263 292.439 55.7019 293.969 53.231C295.51 50.7414 297.341 49.1917 299.46 48.5818C301.584 47.9626 303.63 48.2621 305.598 49.4802C307.463 50.6349 308.512 52.2004 308.746 54.1768ZM299.848 62.1725C300.827 62.7787 301.843 62.8982 302.896 62.5311C303.949 62.164 304.8 61.4339 305.452 60.3407C306.144 59.2218 306.419 58.1216 306.276 57.0399C306.139 55.9489 305.581 55.1003 304.602 54.4941C303.605 53.8764 302.605 53.7411 301.603 54.0882C300.616 54.4318 299.759 55.191 299.032 56.3659C298.31 57.5314 298.013 58.637 298.139 59.6827C298.281 60.7248 298.85 61.5548 299.848 62.1725Z" fill="white"/>
<path d="M330.841 77.6394L329.593 79.1901L320.301 71.7133C319.249 73.8083 319.842 75.7565 322.08 77.5579C323.388 78.6098 324.903 79.2375 326.625 79.4411L325.303 83.6558C322.832 83.4552 320.516 82.4852 318.354 80.7457C315.885 78.7588 314.466 76.5684 314.098 74.1747C313.745 71.7793 314.462 69.4709 316.25 67.2495C318.024 65.0451 320.125 63.8154 322.555 63.5603C324.984 63.3052 327.254 64.0267 329.364 65.7249C331.381 67.3475 332.533 69.2391 332.821 71.3996C333.11 73.5602 332.45 75.6401 330.841 77.6394ZM326.652 68.9902C326.003 68.4677 325.273 68.2464 324.463 68.3263C323.652 68.4061 322.841 68.802 322.029 69.5139L326.937 73.4638C327.509 72.544 327.76 71.6977 327.692 70.9251C327.64 70.1508 327.293 69.5058 326.652 68.9902Z" fill="white"/>
<path d="M350.661 83.964C353.257 86.6408 353.063 89.426 350.079 92.3194L341.611 100.53L337.741 96.5384L344.827 89.6675C345.661 88.8583 346.126 88.117 346.222 87.4438C346.325 86.7629 346.049 86.0839 345.392 85.4068C344.904 84.9029 344.28 84.5908 343.522 84.4706C342.78 84.3506 341.991 84.4198 341.157 84.6784L333.469 92.1333L329.576 88.118L342.106 75.968L345.999 79.9834L344.11 81.8156C346.592 81.3032 348.776 82.0193 350.661 83.964Z" fill="white"/>
<path d="M350.555 100.012C352.769 98.3402 355.064 97.6658 357.438 97.9892C359.828 98.3147 361.875 99.6064 363.58 101.864C364.36 102.897 364.94 103.929 365.321 104.961C365.701 105.993 365.892 106.9 365.892 107.683L361.424 109.409C361.356 108.1 360.856 106.828 359.924 105.594C359.19 104.623 358.278 104.061 357.188 103.909C356.104 103.765 355.089 104.051 354.144 104.764C353.172 105.498 352.618 106.411 352.482 107.504C352.345 108.597 352.68 109.677 353.486 110.745C354.338 111.873 355.431 112.711 356.764 113.257L354.073 117.063C353.622 116.867 353.327 116.739 353.186 116.681C353.061 116.624 352.755 116.464 352.267 116.2C351.779 115.936 351.383 115.685 351.08 115.447C350.783 115.218 350.413 114.892 349.971 114.471C349.536 114.057 349.129 113.601 348.753 113.103C346.975 110.748 346.264 108.406 346.621 106.076C346.986 103.738 348.297 101.717 350.555 100.012Z" fill="white"/>
<path d="M373.552 132.046L371.828 133.042L365.865 122.713C364.127 124.286 363.976 126.317 365.412 128.806C366.251 130.259 367.437 131.391 368.97 132.203L366.214 135.656C363.983 134.576 362.173 132.835 360.786 130.432C359.201 127.687 358.67 125.132 359.191 122.767C359.727 120.406 361.23 118.513 363.699 117.087C366.15 115.672 368.554 115.285 370.911 115.925C373.269 116.564 375.125 118.057 376.479 120.403C377.773 122.644 378.164 124.824 377.653 126.943C377.141 129.062 375.774 130.763 373.552 132.046ZM372.771 122.468C372.354 121.746 371.753 121.276 370.969 121.058C370.184 120.84 369.285 120.916 368.27 121.286L371.42 126.743C372.285 126.091 372.826 125.393 373.041 124.648C373.272 123.907 373.182 123.18 372.771 122.468Z" fill="white"/>
</svg>
