<svg width="207" height="207" viewBox="0 0 207 207" fill="none" xmlns="http://www.w3.org/2000/svg">
<circle cx="103.5" cy="103.5" r="103.5" fill="#E6F2EE"/>
<path d="M83.2759 25.31C84.9528 24.7409 86.1084 25.3909 86.7428 27.2601L88.5431 32.5645L86.0426 33.4132L84.5361 28.9744C84.3586 28.4516 84.1327 28.102 83.8584 27.9256C83.5873 27.7426 83.2421 27.7223 82.8229 27.8646C82.2113 28.0721 81.8519 28.6176 81.7447 29.501L83.3793 34.3171L80.864 35.1708L79.3575 30.732C79.18 30.2092 78.9566 29.8588 78.6872 29.6807C78.421 29.4961 78.0783 29.4749 77.6591 29.6172C77.0623 29.8197 76.7044 30.3289 76.5853 31.1449L78.2525 36.0572L75.7372 36.9109L73.0731 29.0616L75.5885 28.2079L75.9701 29.3324C76.2144 28.2209 76.9284 27.4643 78.1121 27.0626C79.3895 26.629 80.3785 26.9259 81.0791 27.9531C81.1434 27.3483 81.3529 26.8152 81.7078 26.3537C82.0627 25.8922 82.5854 25.5443 83.2759 25.31Z" fill="#003A27"/>
<path d="M24.7483 72.2389C25.2396 70.9324 25.9287 70.0397 26.8155 69.5609C27.6993 69.0753 28.7433 69.0589 29.9474 69.5118C31.1758 69.9738 32.0191 70.7055 32.4772 71.7069C32.9303 72.7065 32.9158 73.8473 32.4336 75.1294L31.8643 76.6431L34.8112 77.7514L33.8431 80.3254L23.2109 76.3265L24.7483 72.2389ZM29.8826 75.8978L30.2484 74.9252C30.4831 74.3012 30.4961 73.7636 30.2875 73.3123C30.0788 72.861 29.6918 72.529 29.1263 72.3163C28.5803 72.111 28.0972 72.1157 27.677 72.3304C27.2537 72.5385 26.9238 72.957 26.6873 73.5858L26.3215 74.5584L29.8826 75.8978Z" fill="#003A27"/>
<path d="M47.498 58.4316C47.255 58.9693 46.9143 59.4572 46.476 59.8955C46.0378 60.3338 45.5498 60.6744 45.0121 60.9175C44.4744 61.1606 43.9275 61.295 43.3714 61.3208C42.8153 61.3465 42.2555 61.2471 41.692 61.0224C41.1249 60.7941 40.6056 60.4442 40.1342 59.9728C39.5044 59.3431 39.0956 58.6433 38.9078 57.8736C38.7236 57.1002 38.7513 56.3508 38.9907 55.6252C39.2264 54.896 39.6388 54.2368 40.2281 53.6475C40.821 53.0546 41.4821 52.6403 42.2113 52.4046C42.9405 52.1615 43.6918 52.1321 44.4652 52.3162C45.2386 52.5003 45.9402 52.9073 46.57 53.5371C47.0414 54.0085 47.3894 54.5296 47.614 55.1004C47.8387 55.6639 47.9363 56.2255 47.9068 56.7853C47.8774 57.3451 47.7411 57.8939 47.498 58.4316ZM44.8022 58.2216C45.1594 57.8644 45.3159 57.4427 45.2718 56.9566C45.2239 56.4668 44.9808 56.0027 44.5425 55.5645C44.1043 55.1262 43.6421 54.885 43.156 54.8408C42.6698 54.7966 42.2481 54.9531 41.8909 55.3104C41.5337 55.6676 41.3771 56.0893 41.4213 56.5754C41.4655 57.0615 41.7068 57.5237 42.145 57.962C42.587 58.4039 43.0492 58.6489 43.5316 58.6967C44.0177 58.7409 44.4413 58.5826 44.8022 58.2216Z" fill="#003A27"/>
<path d="M49.4453 44.0644C50.2391 43.3044 51.1582 42.9614 52.2028 43.0356C53.2473 43.1098 54.2487 43.6473 55.2069 44.6479C55.6896 45.152 56.0559 45.6738 56.3057 46.2133C56.5556 46.7529 56.6861 47.2733 56.6974 47.7745C56.705 48.272 56.6117 48.7507 56.4176 49.2106C56.2272 49.667 55.9401 50.0789 55.5564 50.4463C54.6912 51.2748 53.7275 51.5486 52.6653 51.2677L53.4488 52.0859L51.6657 53.7933L43.3663 45.1262L45.2961 43.2783L48.4408 46.5623C48.3544 45.6211 48.6892 44.7885 49.4453 44.0644ZM53.3582 49.3819C53.7607 48.9965 53.9416 48.5565 53.9007 48.062C53.8599 47.5675 53.6125 47.0833 53.1586 46.6093C52.7047 46.1353 52.2335 45.8691 51.7448 45.8106C51.2525 45.7484 50.8051 45.91 50.4026 46.2954C50.0076 46.6736 49.8303 47.121 49.8707 47.6376C49.9111 48.1542 50.1456 48.6363 50.5743 49.084C50.9846 49.5276 51.4524 49.7827 51.9778 49.8493C52.5031 49.916 52.9632 49.7602 53.3582 49.3819Z" fill="#003A27"/>
<path d="M174.893 79.9858L173.002 80.9895C172.869 80.8408 172.689 80.5931 172.462 80.2466C172.231 79.9024 172.03 79.5605 171.859 79.2208C171.585 78.6764 171.414 78.197 171.346 77.7826C171.279 77.3728 171.317 77.0128 171.458 76.7027C171.607 76.3949 171.812 76.1312 172.075 75.9116C172.338 75.6921 172.692 75.4699 173.139 75.2453L176.329 73.6411L175.781 72.5523L177.624 71.6256L178.171 72.7144L179.86 71.8649L181.479 74.0238L179.365 75.0874L180.326 76.9998L178.484 77.9265L177.522 76.0141L174.73 77.4182C174.349 77.6101 174.128 77.8203 174.068 78.0487C174.015 78.2794 174.082 78.5809 174.269 78.9531C174.466 79.344 174.674 79.6882 174.893 79.9858Z" fill="#003A27"/>
<path d="M60.8434 45.9255L53.9407 36.1095L56.1135 34.5816L63.0162 44.3976L60.8434 45.9255Z" fill="#003A27"/>
<path d="M70.7523 33.6762L71.2171 34.4994L66.2849 37.2841C67.0242 38.1168 67.9879 38.1976 69.1762 37.5267C69.8701 37.135 70.4134 36.577 70.806 35.8529L72.433 37.1773C71.9101 38.2321 71.0749 39.0834 69.9274 39.7313C68.6167 40.4713 67.401 40.7122 66.2801 40.4538C65.1613 40.1883 64.269 39.466 63.6032 38.2868C62.9426 37.1166 62.7695 35.9733 63.0841 34.8566C63.3987 33.74 64.1161 32.8654 65.2363 32.2329C66.3066 31.6286 67.3438 31.4527 68.3477 31.7054C69.3516 31.958 70.1531 32.6149 70.7523 33.6762ZM66.2001 34.0035C65.8554 34.1981 65.6294 34.4812 65.5222 34.8527C65.415 35.2243 65.447 35.6518 65.6183 36.1353L68.2239 34.6641C67.9185 34.2504 67.5894 33.9906 67.2366 33.8848C66.8857 33.7719 66.5402 33.8114 66.2001 34.0035Z" fill="#003A27"/>
<path d="M103.797 31.2734C101.854 31.2734 100.357 30.6276 99.3047 29.3359L100.438 27.5469C100.974 28.0208 101.482 28.3906 101.961 28.6562C102.44 28.9167 102.958 29.0469 103.516 29.0469C103.969 29.0469 104.32 28.9531 104.57 28.7656C104.826 28.5781 104.953 28.3255 104.953 28.0078C104.953 27.7266 104.849 27.4948 104.641 27.3125C104.432 27.125 104.125 26.9453 103.719 26.7734C103.589 26.7214 103.385 26.6406 103.109 26.5312C102.839 26.4219 102.617 26.3333 102.445 26.2656C102.273 26.1927 102.057 26.0911 101.797 25.9609C101.536 25.8307 101.323 25.7057 101.156 25.5859C100.99 25.4609 100.81 25.3021 100.617 25.1094C100.424 24.9167 100.271 24.7161 100.156 24.5078C100.047 24.2995 99.9531 24.0521 99.875 23.7656C99.8021 23.4792 99.7656 23.1719 99.7656 22.8438C99.7656 22.2708 99.875 21.7578 100.094 21.3047C100.312 20.8516 100.607 20.487 100.977 20.2109C101.352 19.9349 101.771 19.7266 102.234 19.5859C102.698 19.4401 103.193 19.3672 103.719 19.3672C105.438 19.3672 106.729 19.9167 107.594 21.0156L106.406 22.7266C105.932 22.3464 105.505 22.0599 105.125 21.8672C104.75 21.6745 104.341 21.5781 103.898 21.5781C103.487 21.5781 103.156 21.6667 102.906 21.8438C102.661 22.0156 102.539 22.2526 102.539 22.5547C102.539 22.8151 102.641 23.0312 102.844 23.2031C103.052 23.3698 103.359 23.5365 103.766 23.7031C103.906 23.7604 104.112 23.8438 104.383 23.9531C104.659 24.0625 104.888 24.1536 105.07 24.2266C105.258 24.2995 105.482 24.401 105.742 24.5312C106.008 24.6615 106.229 24.7891 106.406 24.9141C106.589 25.0339 106.779 25.1901 106.977 25.3828C107.174 25.5703 107.333 25.7656 107.453 25.9688C107.573 26.1719 107.672 26.4141 107.75 26.6953C107.828 26.9766 107.867 27.276 107.867 27.5938C107.867 28.3906 107.685 29.0703 107.32 29.6328C106.961 30.1953 106.479 30.6094 105.875 30.875C105.276 31.1406 104.583 31.2734 103.797 31.2734Z" fill="#003A27"/>
<path d="M33.1861 61.9874L34.824 63.0224C34.4169 62.5064 34.1862 61.9355 34.1319 61.3097C34.0759 60.6768 34.2205 60.0873 34.5655 59.5413L36.943 61.0438C36.7371 61.3696 36.5851 61.6833 36.487 61.9848C36.3873 62.2791 36.3421 62.5894 36.3516 62.9158C36.361 63.2421 36.4737 63.5659 36.6896 63.8872C36.9055 64.2085 37.2215 64.5128 37.6374 64.8003L40.1933 66.4155L38.7743 68.6609L31.7671 64.2329L33.1861 61.9874Z" fill="#003A27"/>
<path d="M117.318 29.6459L117.085 31.7743C116.887 31.8008 116.581 31.8104 116.167 31.8032C115.752 31.8011 115.357 31.7753 114.98 31.7257C114.376 31.6461 113.883 31.5182 113.502 31.3419C113.125 31.1663 112.849 30.9329 112.672 30.6417C112.501 30.346 112.398 30.0278 112.364 29.6871C112.33 29.3464 112.346 28.9282 112.411 28.4325L112.877 24.8928L111.669 24.7337L111.938 22.6888L113.146 22.8479L113.393 20.9734L116.089 20.8477L115.78 23.1946L117.902 23.474L117.633 25.5189L115.511 25.2395L115.103 28.3377C115.047 28.7612 115.097 29.0619 115.252 29.2399C115.413 29.4135 115.7 29.5274 116.113 29.5818C116.547 29.6389 116.948 29.6603 117.318 29.6459Z" fill="#003A27"/>
<path d="M128.601 34.5014L126.08 33.826C126.042 33.4868 126.049 33.1679 126.102 32.8694C125.722 33.1397 125.279 33.323 124.774 33.4193C124.269 33.5107 123.776 33.4916 123.293 33.3622C122.523 33.156 121.956 32.7882 121.591 32.2591C121.23 31.7312 121.154 31.0799 121.362 30.3052C121.617 29.3543 122.209 28.7636 123.139 28.5329C124.074 28.3035 125.42 28.4108 127.178 28.8547L127.232 28.651C127.43 27.9114 127.057 27.415 126.111 27.1615C125.306 26.9459 124.49 27.0022 123.663 27.3307L123.132 25.4817C123.612 25.2169 124.192 25.0567 124.87 25.0011C125.554 24.9419 126.299 25.0201 127.104 25.2358C129.463 25.868 130.356 27.2557 129.782 29.3988L128.72 33.3606C128.6 33.8084 128.56 34.1886 128.601 34.5014ZM124.892 31.7688C125.441 31.9158 125.969 31.8147 126.478 31.4658L126.856 30.0546C125.285 29.6984 124.395 29.9128 124.185 30.6976C124.116 30.9541 124.142 31.1769 124.264 31.366C124.391 31.5564 124.601 31.6906 124.892 31.7688Z" fill="#003A27"/>
<path d="M137.906 36.1399L137.13 38.1356C136.932 38.1099 136.634 38.04 136.236 37.9259C135.836 37.8166 135.46 37.6891 135.109 37.5436C134.546 37.3104 134.103 37.0594 133.78 36.7904C133.462 36.5234 133.256 36.2264 133.16 35.8993C133.071 35.5693 133.054 35.2354 133.11 34.8976C133.165 34.5597 133.288 34.1598 133.48 33.6979L134.846 30.3993L133.72 29.9329L134.509 28.0274L135.635 28.4938L136.359 26.7471L138.995 27.3233L138.089 29.5103L140.067 30.3295L139.278 32.235L137.3 31.4158L136.104 34.303C135.941 34.6975 135.911 35.0009 136.015 35.213C136.125 35.4223 136.373 35.6067 136.758 35.7661C137.162 35.9336 137.545 36.0582 137.906 36.1399Z" fill="#003A27"/>
<path d="M148.224 39.4133L147.751 40.2319L142.846 37.3999C142.505 38.4598 142.925 39.3309 144.107 40.0132C144.797 40.4116 145.553 40.5959 146.377 40.5659L146.063 42.6402C144.889 42.7261 143.731 42.4396 142.59 41.7807C141.286 41.0281 140.461 40.1035 140.114 39.007C139.774 37.9085 139.942 36.7729 140.619 35.6002C141.291 34.4365 142.188 33.7062 143.309 33.4095C144.431 33.1129 145.549 33.2861 146.663 33.9293C147.727 34.5439 148.406 35.3477 148.699 36.3406C148.991 37.3336 148.833 38.3578 148.224 39.4133ZM145.628 35.6593C145.285 35.4614 144.927 35.4107 144.552 35.5072C144.178 35.6037 143.826 35.8486 143.496 36.2419L146.088 37.738C146.289 37.2647 146.345 36.8492 146.257 36.4916C146.176 36.132 145.966 35.8546 145.628 35.6593Z" fill="#003A27"/>
<path d="M161.339 46.5882C162.638 47.791 162.618 49.1168 161.277 50.5655L157.472 54.6765L155.534 52.8829L158.718 49.4427C159.093 49.0375 159.293 48.6723 159.317 48.347C159.349 48.0215 159.202 47.7083 158.877 47.4076C158.403 46.9689 157.752 46.913 156.924 47.2399L153.47 50.9725L151.52 49.1683L154.704 45.7281C155.079 45.3229 155.281 44.9594 155.309 44.6377C155.344 44.3157 155.2 44.0043 154.875 43.7036C154.412 43.2756 153.794 43.2036 153.02 43.4879L149.496 47.2951L147.547 45.4908L153.177 39.4074L155.127 41.2116L154.32 42.0831C155.414 41.7681 156.419 42.0351 157.336 42.8842C158.326 43.8004 158.537 44.8114 157.968 45.917C158.53 45.6851 159.099 45.6152 159.674 45.7072C160.248 45.7992 160.803 46.0929 161.339 46.5882Z" fill="#003A27"/>
<path d="M167.11 59.3763L166.408 60.0098L162.612 55.806C161.962 56.7095 162.093 57.6677 163.008 58.6804C163.542 59.2719 164.205 59.68 164.998 59.9047L164.061 61.7819C162.918 61.5024 161.904 60.8736 161.021 59.8957C160.012 58.7785 159.511 57.6449 159.518 56.4947C159.533 55.3449 160.042 54.3162 161.047 53.4086C162.045 52.508 163.123 52.0891 164.281 52.1518C165.439 52.2146 166.45 52.7233 167.312 53.6781C168.136 54.5904 168.534 55.5639 168.507 56.5988C168.48 57.6336 168.014 58.5595 167.11 59.3763ZM165.795 55.0058C165.53 54.712 165.204 54.5534 164.818 54.5301C164.432 54.5067 164.022 54.6315 163.588 54.9043L165.593 57.1251C165.93 56.7366 166.111 56.3587 166.137 55.9912C166.171 55.6242 166.057 55.2957 165.795 55.0058Z" fill="#003A27"/>
<path d="M175.085 65.0916C176.043 66.5807 175.693 67.8594 174.033 68.9277L169.322 71.9592L167.893 69.7387L171.835 67.2019C172.299 66.9031 172.585 66.6014 172.693 66.2969C172.804 65.9895 172.739 65.6475 172.497 65.2709C172.316 64.9906 172.055 64.787 171.713 64.6601C171.379 64.5348 171.005 64.4934 170.593 64.5358L166.316 67.2883L164.879 65.0547L171.849 60.5687L173.286 62.8023L172.235 63.4788C173.439 63.4722 174.389 64.0098 175.085 65.0916Z" fill="#003A27"/>
</svg>
