<svg width="273" height="217" viewBox="0 0 273 217" fill="none" xmlns="http://www.w3.org/2000/svg">
<path d="M208.675 191.16C211.246 195.559 206.833 200.485 202.23 198.346L155.367 176.529C153.315 175.573 150.921 176.031 149.464 177.669L116.046 214.953C112.77 218.607 106.573 215.737 107.014 210.754L111.472 159.985C111.673 157.749 110.408 155.603 108.356 154.647L61.4937 132.83C56.8899 130.691 57.482 123.985 62.3498 123.04L111.97 113.479C114.149 113.062 115.754 111.262 115.955 109.04L120.413 58.2702C120.854 53.2875 127.403 52.023 129.974 56.4221L156.176 101.285C157.333 103.257 159.574 104.307 161.752 103.89L211.373 94.3286C216.241 93.3838 219.71 99.3119 216.42 102.979L183.002 140.263C181.531 141.901 181.317 144.338 182.473 146.31L208.675 191.173L208.675 191.16Z" fill="#FFD156"/>
<path d="M232.737 125.348L238.236 79.459L192.101 79.8382L200.907 125.348C210.134 137.871 226.526 134.563 232.737 125.348Z" fill="url(#paint0_linear_262_1686)"/>
<path d="M230.315 109.986C232.964 102.654 229.275 94.6095 222.074 92.0184C214.873 89.4272 206.887 93.2705 204.237 100.603C201.587 107.935 205.277 115.979 212.478 118.57C219.679 121.162 227.665 117.318 230.315 109.986Z" fill="#016242"/>
<path d="M215.554 88.1664C228.494 87.9027 238.892 83.1812 238.779 77.6207C238.665 72.0603 228.082 67.7664 215.142 68.0301C202.202 68.2938 191.804 73.0152 191.917 78.5757C192.031 84.1362 202.614 88.4301 215.554 88.1664Z" fill="#CDC9C1"/>
<path d="M236.611 71.083L238.584 76.3199L237.622 74.6818L236.029 73.8507L236.611 71.083Z" fill="#CDC9C1"/>
<path d="M192.91 72.7859L191.907 78.1841L192.546 76.4251L193.961 75.368L192.91 72.7859Z" fill="#CDC9C1"/>
<path d="M214.995 81.805C227.101 81.5584 236.828 77.1433 236.721 71.9437C236.615 66.7441 226.715 62.729 214.61 62.9757C202.505 63.2224 192.778 67.6375 192.884 72.837C192.991 78.0366 202.89 82.0517 214.995 81.805Z" fill="#DAD9D9"/>
<path d="M238.346 92.965C233.823 95.6914 230.217 96.8366 225.815 97.0467C224.135 97.1268 223.235 99.256 224.447 100.421C228.297 104.118 231.081 107.247 233.778 111.65C234.635 113.051 236.833 112.776 237.223 111.181L241.183 94.9613C241.572 93.3665 239.752 92.1176 238.346 92.965Z" fill="#FFD156"/>
<rect x="69.2065" y="52.3296" width="11.2465" height="16.0664" rx="0.887717" transform="rotate(-30.9232 69.2065 52.3296)" fill="#8BE1FF"/>
<rect width="11.2465" height="16.0664" rx="0.887717" transform="matrix(0.98897 0.148113 0.148113 -0.98897 10.6172 121.029)" fill="#4FD1A6"/>
<rect width="11.2465" height="16.0664" rx="0.887717" transform="matrix(0.728203 -0.685361 -0.685361 -0.728203 45.5972 89.0382)" fill="#C09C56"/>
<rect width="11.2465" height="16.0664" rx="0.887717" transform="matrix(0.159222 -0.987243 -0.987243 -0.159222 85.8423 104.807)" fill="#9747FF"/>
<rect x="115.892" y="11.9467" width="11.2465" height="16.0664" rx="0.887717" transform="rotate(61.3159 115.892 11.9467)" fill="#FF8DA0"/>
<rect x="7.98047" y="73.1816" width="11.2465" height="16.0664" rx="0.887717" transform="rotate(26.3387 7.98047 73.1816)" fill="#E75F69"/>
<rect x="34.5854" y="38.493" width="11.2465" height="16.0664" rx="0.887717" transform="rotate(-59.5702 34.5854 38.493)" fill="#FFD156"/>
<rect x="151.764" y="25.3958" width="11.2465" height="16.0664" rx="0.887717" transform="rotate(-9.86269 151.764 25.3958)" fill="#4FD1A6"/>
<rect width="11.2465" height="16.0664" rx="0.887717" transform="matrix(0.65942 -0.751774 -0.751774 -0.65942 159.404 73.589)" fill="#7BB3C6"/>
<rect x="175.732" y="56.0149" width="11.2465" height="16.0664" rx="0.887717" transform="rotate(-57.3059 175.732 56.0149)" fill="#9747FF"/>
<rect width="11.2465" height="16.0664" rx="0.887717" transform="matrix(0.82015 0.572149 0.572149 -0.82015 173.069 19.7797)" fill="#FFD156"/>
<rect width="11.2465" height="16.0664" rx="0.887717" transform="matrix(0.981673 -0.190571 -0.190571 -0.981673 256.914 67.1285)" fill="#9747FF"/>
<rect x="139.336" y="0.836182" width="11.2465" height="16.0664" rx="0.887717" transform="rotate(-2.28015 139.336 0.836182)" fill="#C09C56"/>
<rect width="11.2465" height="16.0664" rx="0.887717" transform="matrix(0.942816 -0.333314 -0.333314 -0.942816 209.495 38.8148)" fill="#FF8DA0"/>
<rect width="11.2465" height="16.0664" rx="0.887717" transform="matrix(0.886818 0.462118 0.462118 -0.886818 228.108 53.6963)" fill="#4FD1A6"/>
<rect width="11.2465" height="16.0664" rx="0.887717" transform="matrix(0.888089 -0.459673 -0.459673 -0.888089 263.012 104.16)" fill="#8BE1FF"/>
<rect x="84.2568" y="27.5663" width="11.2465" height="16.0664" rx="0.887717" transform="rotate(173.869 84.2568 27.5663)" fill="#9747FF"/>
<rect width="11.2465" height="16.0664" rx="0.887717" transform="matrix(-0.959931 0.280237 0.280237 0.959931 107.156 76.1307)" fill="#0D99FF"/>
<circle cx="116.699" cy="132.215" r="4.88244" fill="#154835"/>
<circle cx="165.524" cy="120.674" r="4.88244" fill="#154835"/>
<path d="M149.171 144.468C144.975 146.086 141.178 143.96 138.984 138.792C138.322 137.233 139.366 135.549 141.017 135.174L151.12 132.881C153.064 132.44 154.916 133.989 154.65 135.965C154.031 140.564 152.652 143.126 149.171 144.468Z" fill="#154835"/>
<defs>
<linearGradient id="paint0_linear_262_1686" x1="222.756" y1="73.8974" x2="202.664" y2="129.752" gradientUnits="userSpaceOnUse">
<stop stop-color="#F3F1EB"/>
<stop offset="1" stop-color="#C4C1B9"/>
</linearGradient>
</defs>
</svg>
