<svg width="499" height="499" viewBox="0 0 499 499" fill="none" xmlns="http://www.w3.org/2000/svg">
<circle cx="249.5" cy="249.5" r="249.5" fill="#308E6B"/>
<path d="M78.6314 170.327C77.366 172.531 75.7527 174.388 73.7714 175.918C71.7901 177.447 69.6417 178.549 67.2857 179.223C64.95 179.898 62.4261 180.086 59.7142 179.789C57.0023 179.491 54.3845 178.645 51.8205 177.271C49.2566 175.898 47.1128 174.186 45.4295 172.137C43.726 170.088 42.5466 167.935 41.9113 165.657C41.2558 163.38 41.0842 161.019 41.3767 158.593C41.6691 156.166 42.4481 153.851 43.7134 151.647C44.9785 149.424 46.6118 147.547 48.5929 145.998C50.5739 144.449 52.7426 143.347 55.0783 142.673C57.434 141.979 59.9579 141.79 62.6496 142.088C65.3615 142.386 67.9993 143.212 70.5632 144.586C73.1271 145.959 75.2508 147.671 76.9545 149.739C78.658 151.788 79.8175 153.962 80.4732 156.258C81.1287 158.536 81.3003 160.897 80.9879 163.343C80.6754 165.789 79.8968 168.123 78.6314 170.327ZM68.7312 168.949C69.6922 168.234 70.4691 167.345 71.0618 166.282C71.6546 165.22 72.0246 164.121 72.1713 162.947C72.318 161.773 72.2018 160.583 71.8634 159.396C71.5047 158.209 70.8227 157.026 69.7977 155.886C68.7522 154.728 67.4259 153.729 65.8181 152.851C64.1904 151.992 62.6071 151.446 61.0681 151.212C59.509 150.977 58.1152 151.034 56.9071 151.382C55.6787 151.729 54.574 152.271 53.6133 153.006C52.6526 153.741 51.876 154.65 51.2628 155.693C50.6496 156.736 50.3 157.854 50.1733 159.008C50.0467 160.182 50.1627 161.352 50.5012 162.54C50.8394 163.707 51.5413 164.87 52.5866 166.01C53.6113 167.13 54.9377 168.129 56.5656 169.006C58.1934 169.865 59.7769 170.431 61.3161 170.685C62.855 170.919 64.2289 170.882 65.4575 170.554C66.6858 170.206 67.7703 169.665 68.7108 168.93L68.7312 168.949Z" fill="white"/>
<path d="M100.353 138.807C99.0578 140.322 97.7384 141.545 96.4348 142.437C95.1311 143.33 93.764 143.931 92.3135 144.241C90.863 144.551 89.3273 144.435 87.7469 143.929C86.1662 143.405 84.5203 142.453 82.8492 141.092L70.3061 130.861L75.9011 124.31L88.5246 134.599C90.9003 136.534 93.011 136.429 94.8369 134.304C95.7792 133.202 96.1837 132.108 96.0309 131.059C95.8579 129.991 95.2077 129.007 94.1002 128.087L81.4767 117.798L87.111 111.207L99.6541 121.439C101.325 122.799 102.579 124.223 103.374 125.653C104.169 127.102 104.546 128.557 104.485 130.017C104.424 131.477 104.044 132.922 103.365 134.351C102.686 135.78 101.689 137.253 100.373 138.787L100.353 138.807Z" fill="white"/>
<path d="M110.803 89.508L114.822 94.5076C114.084 92.4526 113.959 90.4098 114.447 88.3793C114.935 86.3287 116.001 84.6115 117.645 83.2677L123.472 90.5091C122.494 91.3233 121.694 92.1552 121.072 93.005C120.45 93.8346 119.987 94.7625 119.683 95.7885C119.38 96.8346 119.395 97.9769 119.727 99.2153C120.059 100.454 120.728 101.748 121.734 103.098L128.004 110.895L121.252 116.473L104.052 95.1057L110.803 89.528L110.803 89.508Z" fill="white"/>
<path d="M194.798 76.5245C188.84 78.4036 183.626 77.8624 179.174 74.881L180.929 68.2337C183.032 69.187 184.937 69.8291 186.664 70.1991C188.392 70.5496 190.094 70.4495 191.81 69.8984C193.198 69.4495 194.177 68.8294 194.767 67.9987C195.376 67.1677 195.519 66.2643 195.216 65.2685C194.953 64.3899 194.403 63.7696 193.586 63.4076C192.768 63.0261 191.661 62.7657 190.246 62.627C189.8 62.5934 189.103 62.5435 188.153 62.4772C187.223 62.4106 186.448 62.3421 185.867 62.2907C185.266 62.2396 184.51 62.1316 183.578 61.9671C182.647 61.8221 181.89 61.6357 181.249 61.4283C180.626 61.201 179.906 60.877 179.146 60.4751C178.366 60.0734 177.702 59.5918 177.153 59.05C176.624 58.5079 176.092 57.8287 175.579 57.012C175.084 56.1951 174.666 55.2792 174.363 54.2638C173.817 52.4871 173.66 50.7839 173.891 49.1737C174.122 47.5635 174.685 46.1451 175.541 44.919C176.415 43.6927 177.506 42.64 178.791 41.7612C180.077 40.8628 181.52 40.1584 183.139 39.6477C188.403 37.9735 192.9 38.4258 196.591 41.0053L194.602 47.4595C192.793 46.7378 191.199 46.268 189.841 46.0305C188.502 45.7928 187.168 45.8882 185.799 46.3172C184.546 46.7252 183.605 47.3056 183.015 48.0971C182.424 48.8691 182.28 49.7137 182.563 50.6509C182.806 51.4515 183.336 52.0327 184.114 52.3756C184.912 52.6987 186.018 52.9002 187.414 53.0392C187.898 53.0722 188.615 53.1415 189.545 53.2081C190.495 53.2744 191.289 53.3427 191.909 53.3936C192.549 53.4442 193.344 53.5321 194.255 53.6773C195.186 53.8222 196.002 54.0079 196.663 54.2151C197.342 54.4024 198.063 54.7068 198.861 55.1083C199.641 55.4904 200.324 55.9521 200.892 56.4544C201.46 56.9764 201.991 57.6165 202.504 58.4136C203.018 59.2106 203.416 60.1072 203.719 61.0834C204.486 63.5628 204.573 65.8354 204 67.9399C203.446 70.0442 202.365 71.7828 200.757 73.195C199.168 74.6068 197.188 75.6905 194.778 76.4464L194.798 76.5245Z" fill="white"/>
<path d="M240.297 66.7457C238.594 67.6226 236.75 68.1709 234.767 68.3905C232.783 68.6102 230.853 68.4987 229.016 68.0362C227.16 67.5739 225.514 66.8173 224.059 65.7668C222.604 64.7163 221.379 63.3324 220.423 61.6341C219.446 59.9166 218.838 58 218.596 55.865C218.268 53.0119 218.644 50.4219 219.725 48.1146C220.825 45.7875 222.399 43.9598 224.466 42.6117C226.532 41.2442 228.898 40.4172 231.582 40.1109C234.266 39.8045 236.782 40.0835 239.092 40.9482C241.42 41.7932 243.386 43.226 244.97 45.2468C246.554 47.2675 247.501 49.7046 247.829 52.5577C248.071 54.6927 247.902 56.7163 247.322 58.5897C246.761 60.4628 245.866 62.0681 244.676 63.4244C243.466 64.781 242.019 65.8879 240.336 66.7646L240.297 66.7457ZM233.91 60.8014C235.525 60.6254 236.781 59.8708 237.641 58.5575C238.5 57.2248 238.83 55.5684 238.59 53.5889C238.37 51.6091 237.689 50.0628 236.545 48.9694C235.401 47.876 234.032 47.427 232.398 47.6227C230.784 47.7988 229.528 48.5534 228.668 49.8667C227.808 51.1799 227.478 52.8363 227.698 54.8161C227.919 56.8153 228.601 58.3616 229.725 59.4552C230.868 60.5486 232.257 60.9974 233.891 60.8017L233.91 60.8014Z" fill="white"/>
<path d="M268.052 67.263L271.13 28.1117L279.912 28.7888L276.833 67.9401L268.052 67.263Z" fill="white"/>
<path d="M310.38 76.0983C308.422 75.5548 306.741 74.8656 305.376 74.0304C304.012 73.2154 302.884 72.1944 301.993 70.9876C301.102 69.7809 300.565 68.3057 300.384 66.6027C300.223 64.8994 300.418 62.9683 301.008 60.8291L305.322 44.7766L313.734 47.1259L309.381 63.2805C308.563 66.3158 309.523 68.2322 312.28 69.0092C313.719 69.4172 314.872 69.301 315.78 68.7007C316.688 68.0801 317.352 67.0565 317.732 65.6103L322.085 49.4558L330.557 51.8247L326.242 67.8772C325.672 70.0161 324.878 71.7925 323.86 73.1656C322.843 74.5388 321.661 75.508 320.274 76.0941C318.888 76.6802 317.379 76.943 315.766 76.9433C314.173 76.9229 312.378 76.6413 310.4 76.098L310.38 76.0983Z" fill="white"/>
<path d="M359.286 87.2308L356.254 93.5294C355.605 93.4007 354.611 93.1199 353.312 92.667C351.993 92.2338 350.774 91.7407 349.635 91.1879C347.804 90.3114 346.378 89.4101 345.355 88.4646C344.353 87.5384 343.714 86.5293 343.478 85.4563C343.242 84.3639 343.268 83.2876 343.537 82.2082C343.807 81.1289 344.296 79.8511 345.045 78.394L350.35 67.9975L346.689 66.2444L349.746 60.239L353.406 61.9921L356.206 56.479L364.908 58.8917L361.398 65.7832L367.824 68.8509L364.768 74.8563L358.322 71.7889L353.687 80.8857C353.056 82.1261 352.887 83.1064 353.179 83.8069C353.511 84.507 354.288 85.1622 355.548 85.7526C356.87 86.3813 358.109 86.8546 359.306 87.211L359.286 87.2308Z" fill="white"/>
<path d="M394.253 80.533C393.016 79.6151 392.252 78.5357 391.96 77.2946C391.667 76.0536 391.929 74.9222 392.726 73.8812C393.562 72.8008 394.641 72.2036 395.943 72.1286C397.246 72.0537 398.516 72.4654 399.752 73.3833C401.009 74.3203 401.773 75.4192 402.046 76.6799C402.299 77.9215 402.017 79.0921 401.182 80.1725C400.385 81.2134 399.326 81.7715 398.042 81.8268C396.779 81.9012 395.509 81.4506 394.253 80.533ZM372.05 102.308L388.451 80.9959L395.391 86.1784L378.991 107.49L372.05 102.308Z" fill="white"/>
<path d="M402.032 131.037C400.29 130.137 398.726 128.914 397.338 127.389C395.951 125.863 394.903 124.173 394.195 122.338C393.488 120.503 393.123 118.663 393.139 116.819C393.156 114.975 393.595 113.125 394.437 111.291C395.299 109.456 396.565 107.776 398.216 106.312C400.425 104.339 402.823 103.106 405.433 102.612C408.042 102.138 410.54 102.366 412.905 103.278C415.291 104.19 417.423 105.686 419.28 107.747C421.157 109.828 422.414 112.097 423.069 114.554C423.744 117.011 423.715 119.516 422.963 122.052C422.21 124.587 420.73 126.85 418.522 128.823C416.871 130.307 415.074 131.372 413.131 132.018C411.207 132.664 409.319 132.889 407.465 132.692C405.612 132.495 403.794 131.937 402.052 131.037L402.032 131.037ZM403.226 122.122C404.349 123.371 405.725 123.975 407.354 123.914C409.002 123.833 410.583 123.111 412.135 121.748C413.666 120.366 414.553 118.871 414.794 117.265C415.035 115.658 414.574 114.221 413.451 112.973C412.329 111.724 410.953 111.12 409.324 111.181C407.695 111.242 406.115 111.964 404.563 113.346C403.012 114.729 402.105 116.224 401.864 117.81C401.623 119.417 402.084 120.854 403.226 122.122Z" fill="white"/>
<path d="M447.109 147.589C450.118 152.583 448.838 156.741 443.249 160.081L427.41 169.575L422.917 162.143L436.169 154.207C437.729 153.276 438.712 152.313 439.097 151.317C439.502 150.321 439.309 149.194 438.557 147.936C437.987 146.992 437.143 146.309 436.043 145.848C434.942 145.406 433.726 145.223 432.354 145.32L417.977 153.944L413.464 146.452L436.926 132.403L441.439 139.894L437.904 142.02C441.885 142.108 444.954 143.971 447.149 147.608L447.109 147.589Z" fill="white"/>
</svg>
