<svg width="246" height="146" viewBox="0 0 246 146" fill="none" xmlns="http://www.w3.org/2000/svg">
<g filter="url(#filter0_d_264_1761)">
<path d="M52.3277 60.6494C52.1277 62.7394 48.9377 65.2494 46.6977 66.0094C44.5977 66.5294 42.8277 63.7994 40.5877 62.2194C35.7977 57.8494 25.1977 55.2994 23.4377 63.1994C23.2777 68.6394 27.1277 72.3994 30.0177 77.0794C32.1577 80.6594 36.1277 85.0694 34.4377 89.2294C33.9877 90.1994 33.2177 90.7194 32.3777 90.6994C30.3877 90.6994 28.9777 87.8094 27.2277 85.8794C23.9177 81.8194 20.0277 77.4094 17.3177 73.2494C10.7977 64.6294 14.0477 51.5994 25.6577 49.5694C30.7577 48.2294 39.1577 50.5694 45.6077 54.7294C47.7277 56.0194 49.5177 57.2594 50.9277 58.3994C51.7377 59.0794 52.3077 59.7594 52.3377 60.5294V60.6494H52.3277Z" fill="#FFF9F0"/>
<path d="M116.387 79.9001C114.207 84.1101 95.9874 79.0101 75.6874 68.5101C55.3874 58.0101 40.5974 45.7301 42.2374 41.2601C44.0074 36.4201 60.7674 42.4401 83.5674 53.2801C104.197 63.0901 118.557 75.7001 116.377 79.9101L116.387 79.9001Z" fill="#FFF9F0"/>
<path d="M43.4476 41.7405C36.7176 55.1405 33.0776 73.0305 30.9776 88.2105C30.2876 94.4405 28.6476 100.71 31.9376 106.23C38.6376 120.98 56.3676 129.11 75.4976 127.42C88.7476 125.62 103.068 104.13 116.608 81.0205C118.208 78.2105 117.618 71.5705 113.768 71.1405C81.8976 71.0905 60.7076 62.7405 47.2076 43.2905C48.0976 42.1105 46.0076 42.2705 47.2076 43.2905L43.4476 41.7305V41.7405Z" fill="#FFF9F0"/>
<path d="M67.6076 93.5399C65.8676 99.7999 55.1276 96.7499 55.8776 90.7799C57.1576 84.1299 68.4776 87.4399 67.6376 93.3799L67.6076 93.5499V93.5399Z" fill="#5D4440"/>
<path d="M89.6576 88.6696C88.0876 92.8596 82.1676 91.8896 83.4776 87.0896C84.5776 83.7696 90.6776 84.6596 89.7076 88.4996L89.6576 88.6696Z" fill="#5D4440"/>
<path d="M55.9777 74.1999C54.4077 78.3899 48.4877 77.4199 49.7977 72.6199C50.8977 69.2999 56.9977 70.1899 56.0277 74.0299L55.9777 74.1999Z" fill="#5D4440"/>
<path d="M210.328 55.5097C210.898 56.6897 209.828 57.7997 208.778 58.1797C206.928 58.9697 204.108 58.3197 203.518 56.2197C203.658 54.5297 205.798 54.8197 206.968 54.0797C208.288 53.4697 209.668 54.0997 210.248 55.3397L210.318 55.4997L210.328 55.5097Z" fill="#5D4440"/>
<path d="M48.7976 49.32C46.2276 47.06 43.5177 44.28 43.6077 42.54C44.2577 44.48 46.0976 46.79 48.7976 49.32Z" fill="#5D4440"/>
<path d="M45.5276 41C45.4576 41.01 45.3976 41.02 45.3376 41.03C45.3776 41.02 45.4076 41.01 45.4476 41H45.5276Z" fill="#5D4440"/>
<path d="M56.1276 43.2296C54.9676 42.8796 52.8876 42.1596 50.7476 41.6196C52.5676 42.0296 54.3576 42.5996 56.1276 43.2296Z" fill="#5D4440"/>
<path d="M72.1977 49.7396C68.1977 47.8696 64.1177 46.1496 59.9777 44.5996L60.4877 44.7796C64.4977 46.2296 68.3877 47.9096 72.1977 49.7396Z" fill="#5D4440"/>
<path d="M101.838 79.2097C93.1776 76.3997 83.5376 71.7597 74.6376 66.7197C84.1076 71.8997 94.0476 76.4997 101.838 79.2097Z" fill="#5D4440"/>
<path d="M94.9776 61.9399C93.6876 61.4499 92.4476 60.7299 91.3276 60.0099C90.4576 59.4799 89.5776 58.9599 88.6976 58.4399C90.7976 59.6099 92.8876 60.7799 94.9776 61.9399Z" fill="#5D4440"/>
<path d="M101.478 61.54C100.478 62.26 99.4076 62.57 98.3276 62.6C99.4276 62.5 100.488 62.11 101.478 61.54Z" fill="#5D4440"/>
<path d="M105.048 58.8896C104.458 59.3896 103.858 59.8597 103.228 60.3097C103.338 60.2197 103.448 60.1296 103.548 60.0396C104.068 59.6596 104.568 59.2796 105.048 58.8896Z" fill="#5D4440"/>
<path d="M116.258 35C115.598 37.13 115.418 39.44 115.138 41.71C115.168 41.38 115.188 41.05 115.208 40.72C115.388 38.79 115.618 36.84 116.258 35Z" fill="#5D4440"/>
<path d="M121.308 74.3296C120.008 75.6396 118.818 77.0096 117.708 78.3996C118.798 76.9896 119.998 75.6196 121.308 74.3296Z" fill="#5D4440"/>
<path d="M119.838 28.75C119.528 29.55 119.128 30.27 118.578 30.83C118.538 30.87 118.508 30.91 118.468 30.95C118.978 30.24 119.458 29.52 119.838 28.75Z" fill="#5D4440"/>
<path d="M124.278 28.48C124.238 28.69 124.218 28.91 124.218 29.12C124.218 29.06 124.208 29.01 124.208 28.95C124.218 28.79 124.238 28.63 124.278 28.48Z" fill="#5D4440"/>
<path d="M125.428 40.4597C125.018 40.3897 124.688 40.0897 124.488 39.4697C124.668 39.9397 124.968 40.2997 125.428 40.4597Z" fill="#5D4440"/>
<path d="M124.518 34.0899C124.548 33.1599 124.488 32.2599 124.408 31.3599C124.548 32.2399 124.678 33.1299 124.518 34.0899Z" fill="#5D4440"/>
<path d="M124.698 21.1697C124.488 21.1897 124.298 21.2297 124.108 21.2797C124.088 21.2697 124.078 21.2797 124.058 21.2897C123.908 21.3197 123.768 21.3697 123.638 21.4297C123.578 21.4397 123.528 21.4597 123.478 21.4897C123.478 21.4897 123.471 21.4897 123.458 21.4897C123.338 21.5397 123.218 21.5997 123.108 21.6697C123.428 21.4597 123.778 21.2897 124.208 21.1997C124.378 21.1697 124.538 21.1597 124.698 21.1597V21.1697Z" fill="#5D4440"/>
<path d="M126.748 23.19C126.708 22.76 126.568 22.35 126.328 22.02C126.578 22.35 126.728 22.75 126.748 23.19Z" fill="#5D4440"/>
<path d="M131.518 35.8398C130.398 36.9498 129.128 38.2798 127.968 39.2298C128.048 39.1498 128.128 39.0798 128.208 39.0098C129.328 37.9498 130.408 36.8698 131.518 35.8398Z" fill="#5D4440"/>
<path d="M140.008 66.4397C138.568 66.4097 137.138 66.3397 135.708 66.4497C137.108 66.2697 138.538 66.2597 140.008 66.4397Z" fill="#5D4440"/>
<path d="M139.668 39.1297C139.348 39.1697 139.168 38.9997 139.098 38.7197C139.188 38.9797 139.378 39.1297 139.668 39.1297Z" fill="#5D4440"/>
<path d="M139.768 35.8599C139.648 36.2399 139.508 36.6199 139.338 36.9899C139.288 37.1199 139.248 37.2499 139.208 37.3699C139.288 37.0499 139.408 36.7299 139.528 36.4599C139.618 36.2599 139.698 36.0599 139.768 35.8599Z" fill="#5D4440"/>
<path d="M141.498 30.8398C141.418 30.9698 141.348 31.0998 141.288 31.2298C141.058 31.6798 140.878 32.1398 140.718 32.6098C140.808 32.2998 140.918 31.9998 141.048 31.6998C141.158 31.3998 141.318 31.1098 141.498 30.8398Z" fill="#5D4440"/>
<path d="M142.568 37.3096C142.488 37.3896 142.408 37.4596 142.328 37.5396C141.598 38.1796 140.908 38.7696 140.178 39.0096C141.038 38.5496 141.828 37.9696 142.568 37.3096Z" fill="#5D4440"/>
<path d="M143.508 27.6398C143.508 27.4198 143.478 27.2198 143.418 27.0498C143.508 27.2498 143.528 27.4398 143.508 27.6398Z" fill="#5D4440"/>
<path d="M149.408 65.5796C148.128 65.7396 146.858 65.9296 145.578 66.0996C146.858 65.9196 148.128 65.7296 149.408 65.5796Z" fill="#5D4440"/>
<path d="M149.958 29.4697C148.928 30.4597 147.958 31.5097 146.998 32.5797C147.958 31.4797 148.918 30.3997 149.958 29.4697Z" fill="#5D4440"/>
<path d="M156.818 23.8096C154.418 25.5896 152.138 27.5097 149.958 29.4697C152.128 27.4497 154.418 25.5496 156.818 23.8096Z" fill="#5D4440"/>
<path d="M167.798 65.3198C167.478 65.6998 166.928 65.9498 166.318 66.1098C166.898 65.9198 167.448 65.6498 167.798 65.3198Z" fill="#5D4440"/>
<path d="M168.128 64.2897C168.128 64.2897 168.138 64.3497 168.128 64.3697C168.068 64.1697 167.908 63.9497 167.618 63.7197C167.878 63.8797 168.058 64.0697 168.128 64.2897Z" fill="#5D4440"/>
<path d="M168.328 17.0796C168.168 17.1396 168.018 17.2096 167.858 17.2796C167.908 17.2496 167.968 17.2196 168.018 17.1996C168.118 17.1596 168.218 17.1196 168.328 17.0796Z" fill="#5D4440"/>
<path d="M175.368 60.8599C174.128 61.2499 172.848 61.5099 171.548 61.6899C172.838 61.4899 174.118 61.2199 175.368 60.8599Z" fill="#5D4440"/>
<path d="M178.318 15.76C177.238 15.02 175.638 14.82 174.228 15.15C172.518 15.55 170.848 16.08 169.218 16.71C172.018 15.57 176.098 14.03 178.318 15.76Z" fill="#5D4440"/>
<path d="M179.298 19.4297C179.008 20.3997 178.418 21.2997 177.738 22.1497C178.398 21.2997 178.978 20.4097 179.298 19.4297Z" fill="#5D4440"/>
<path d="M183.298 48.6699C183.028 48.9999 182.758 49.3399 182.488 49.6799C182.398 49.7799 182.308 49.8799 182.228 49.9699C182.578 49.5399 182.938 49.0999 183.298 48.6699Z" fill="#5D4440"/>
<path d="M201.918 33.6196C200.658 34.1996 199.408 34.8296 198.178 35.4796C198.508 35.2996 198.838 35.1196 199.168 34.9396C200.068 34.4696 200.988 34.0396 201.918 33.6196Z" fill="#5D4440"/>
<path d="M209.668 30.9497C209.218 31.0797 208.768 31.1997 208.318 31.2997C208.518 31.2397 208.728 31.1897 208.928 31.1397C209.178 31.0797 209.418 31.0197 209.668 30.9497Z" fill="#5D4440"/>
<path d="M216.298 26.8599L216.208 27.0099C215.588 27.8799 214.798 28.5899 213.898 29.1599C214.788 28.5799 215.578 27.8699 216.198 27.0099L216.298 26.8599Z" fill="#5D4440"/>
<path d="M231.658 32.4399C230.318 34.2399 227.248 35.3199 225.328 33.7099C224.288 32.8799 223.848 31.1399 224.918 30.1799C225.838 29.3599 227.128 28.7799 228.368 28.5999C230.418 28.1599 233.138 30.1399 231.748 32.3099L231.648 32.4399H231.658Z" fill="#5D4440"/>
<path d="M216.298 26.8599L216.198 27.0099C215.578 27.8699 214.788 28.5799 213.898 29.1599C213.748 29.2599 213.598 29.3498 213.438 29.4398C213.288 29.5298 213.128 29.6198 212.968 29.6998C212.148 30.1298 211.278 30.4698 210.408 30.7398C210.158 30.8198 209.908 30.8797 209.668 30.9497C209.418 31.0197 209.178 31.0797 208.928 31.1397C208.728 31.1897 208.518 31.2397 208.318 31.2997C208.208 31.3197 208.088 31.3498 207.978 31.3898C206.508 31.7498 205.098 32.2498 203.708 32.8298C203.408 32.9498 203.108 33.0698 202.808 33.2098C201.568 33.7198 200.358 34.3096 199.168 34.9396C198.838 35.1196 198.508 35.2996 198.178 35.4796C198.148 35.4896 198.118 35.5098 198.078 35.5298C197.978 35.5798 197.868 35.6398 197.768 35.6898C196.718 36.2498 195.708 36.8698 194.738 37.5398C194.428 37.7398 194.128 37.9498 193.828 38.1798C193.548 38.3798 193.268 38.5898 192.988 38.7998C192.948 38.8298 192.908 38.8598 192.868 38.8898C192.598 39.0998 192.338 39.3098 192.078 39.5298C191.218 40.2298 190.398 40.9598 189.598 41.7298C189.338 41.9698 189.068 42.2298 188.808 42.4998C188.538 42.7498 188.278 43.0198 188.028 43.2898C187.688 43.6398 187.348 43.9898 187.018 44.3498C186.018 45.4298 185.058 46.5398 184.128 47.6598C183.848 47.9998 183.568 48.3299 183.298 48.6699C182.938 49.0999 182.578 49.5399 182.228 49.9699C180.468 52.0499 181.988 51.8998 183.618 51.4598C183.798 51.4098 183.978 51.3498 184.148 51.2998C184.348 51.2398 184.548 51.1798 184.738 51.1198C184.808 51.0998 184.868 51.0798 184.928 51.0598C191.098 49.1198 197.538 47.8798 203.878 46.5498C206.438 46.3398 211.918 43.0998 213.258 46.2698C213.398 50.2098 206.478 49.9598 203.658 50.5598C193.428 51.4398 184.938 57.7999 175.368 60.8599C174.118 61.2199 172.838 61.4899 171.548 61.6899C171.188 61.7399 170.818 61.7898 170.458 61.8398C168.818 62.0298 167.168 62.1398 165.548 62.2998C165.508 62.2998 165.468 62.2998 165.438 62.2998C164.378 62.4098 163.338 62.5498 162.318 62.7398C162.268 62.8598 162.358 62.9198 162.558 62.9798C162.608 62.9798 162.648 62.9798 162.688 62.9998C162.728 62.9998 162.768 63.0098 162.798 63.0098C162.928 63.0298 163.068 63.0398 163.218 63.0498C163.308 63.0598 163.398 63.0698 163.498 63.0698C163.788 63.0998 164.098 63.1098 164.408 63.1198H164.458C164.458 63.1198 164.568 63.1398 164.618 63.1398C164.758 63.1398 164.898 63.1498 165.048 63.1498C165.508 63.1798 165.968 63.2198 166.388 63.2898C166.548 63.3198 166.698 63.3598 166.838 63.3898C166.928 63.4098 167.018 63.4398 167.108 63.4698C167.248 63.5298 167.388 63.5898 167.508 63.6498C167.548 63.6698 167.588 63.6898 167.618 63.7098C167.908 63.9398 168.068 64.1598 168.128 64.3598C168.128 64.3698 168.138 64.3698 168.138 64.3698C168.148 64.7298 168.048 65.0198 167.838 65.2598C167.828 65.2798 167.808 65.2898 167.798 65.3098C167.448 65.6398 166.898 65.9098 166.318 66.0998C166.258 66.1198 166.188 66.1398 166.118 66.1598C165.638 66.2798 165.128 66.3498 164.678 66.3998C161.358 66.5898 158.088 65.4798 154.778 65.3498C154.268 65.3098 153.768 65.2998 153.268 65.2998C152.838 65.2998 152.418 65.3098 151.988 65.3398C151.648 65.3498 151.308 65.3798 150.958 65.4098C150.808 65.4098 150.648 65.4298 150.498 65.4498C150.138 65.4798 149.778 65.5198 149.418 65.5698C148.138 65.7198 146.868 65.9098 145.588 66.0898C144.658 66.1998 143.728 66.3098 142.788 66.3698C142.538 66.3998 142.288 66.4098 142.038 66.4198C141.408 66.4498 140.768 66.4398 140.138 66.4298H140.018C138.548 66.2498 137.118 66.2598 135.718 66.4398C135.648 66.4398 135.588 66.4498 135.518 66.4598C131.628 66.9298 128.068 68.7198 124.918 71.1398C124.598 71.3798 124.288 71.6298 123.988 71.8798C123.638 72.1598 123.298 72.4498 122.968 72.7498C122.948 72.7598 122.928 72.7798 122.918 72.7998C122.368 73.2898 121.828 73.7898 121.318 74.3198C120.008 75.6098 118.808 76.9798 117.718 78.3898C117.498 78.6698 117.278 78.9598 117.068 79.2398C116.068 80.6098 114.708 81.7498 112.988 81.7798H112.948C109.658 81.3998 106.018 80.5398 102.178 79.3098C102.058 79.2798 101.948 79.2398 101.848 79.1998C94.0576 76.4898 84.1176 71.8898 74.6476 66.7098C74.2976 66.5098 73.9476 66.3198 73.5976 66.1198C65.6476 61.5698 58.3376 56.7398 52.9276 52.6798C52.2276 52.1198 50.6176 50.8798 48.9176 49.4098C48.8776 49.3698 48.8376 49.3298 48.8076 49.3098C46.1076 46.7798 44.2676 44.4698 43.6176 42.5298C43.6176 42.3698 43.6476 42.2298 43.6976 42.0898C43.7276 42.0098 43.7676 41.9398 43.8176 41.8798C43.8376 41.8398 43.8576 41.7998 43.8976 41.7698C43.8976 41.7598 43.8976 41.7498 43.9076 41.7498C43.9476 41.6998 43.9876 41.6498 44.0376 41.6098C44.1876 41.4698 44.3776 41.3498 44.6176 41.2398C44.7276 41.1998 44.8376 41.1498 44.9676 41.1098C45.0876 41.0698 45.2176 41.0398 45.3476 41.0198C45.4076 41.0098 45.4676 40.9998 45.5376 40.9898C47.2576 40.9898 48.9576 41.2098 50.6376 41.5798C50.6776 41.5898 50.7176 41.5998 50.7576 41.6098C52.8976 42.1498 54.9776 42.8698 56.1376 43.2198C56.2176 43.2498 56.2876 43.2698 56.3576 43.2898C56.3776 43.2898 56.3876 43.2898 56.4076 43.2898C57.6076 43.7198 58.8076 44.1598 59.9876 44.5798C64.1276 46.1298 68.2076 47.8498 72.2076 49.7198C72.7476 49.9698 73.2776 50.2198 73.8076 50.4898C78.7676 52.9198 83.6076 55.5798 88.4376 58.2698C88.5276 58.3198 88.6176 58.3698 88.7076 58.4198C89.5876 58.9398 90.4676 59.4598 91.3376 59.9898C92.4576 60.7098 93.6976 61.4298 94.9876 61.9198C95.0076 61.9298 95.0176 61.9398 95.0376 61.9498C96.1476 62.5098 97.2576 62.6898 98.3376 62.5798C99.4176 62.5498 100.488 62.2398 101.488 61.5198C102.088 61.1798 102.668 60.7698 103.208 60.3198L103.238 60.2898C103.868 59.8398 104.468 59.3698 105.058 58.8698C105.368 58.6198 105.668 58.3498 105.968 58.0998C107.288 56.9298 108.478 55.6898 109.538 54.3398C109.758 54.0598 109.978 53.7698 110.198 53.4798C110.398 53.2098 110.588 52.9398 110.778 52.6598C110.898 52.4898 111.018 52.3098 111.138 52.1298C111.308 51.8798 111.478 51.6098 111.628 51.3498C111.798 51.0898 111.958 50.8198 112.098 50.5498C112.268 50.2798 112.418 50.0098 112.548 49.7298C112.708 49.4498 112.848 49.1698 112.988 48.8898C113.098 48.7198 113.208 48.5498 113.298 48.3698C114.478 46.3598 114.938 44.0798 115.138 41.7798C115.138 41.7498 115.148 41.7198 115.148 41.6898C115.428 39.4198 115.608 37.1098 116.268 34.9798C116.358 34.6898 116.458 34.3898 116.578 34.0998C117.068 32.9598 117.788 31.9498 118.478 30.9298C118.518 30.8898 118.548 30.8498 118.588 30.8098C119.138 30.2498 119.538 29.5298 119.848 28.7298C120.058 28.3098 120.238 27.8698 120.368 27.4098C120.568 26.7098 120.748 25.8998 120.988 25.1098C121.038 24.9498 121.088 24.7998 121.138 24.6398C121.188 24.4898 121.248 24.3298 121.298 24.1798C121.298 24.1798 121.298 24.1765 121.298 24.1698C121.328 24.0998 121.358 24.0198 121.388 23.9398C121.418 23.8598 121.448 23.7898 121.478 23.7198C121.548 23.5498 121.628 23.3798 121.718 23.2198C121.778 23.0998 121.848 22.9798 121.928 22.8698C122.008 22.7298 122.108 22.5898 122.208 22.4598C122.288 22.3698 122.358 22.2898 122.438 22.1998C122.508 22.1298 122.578 22.0598 122.648 21.9998C122.778 21.8798 122.918 21.7798 123.068 21.6898C123.188 21.6098 123.318 21.5398 123.458 21.4798C123.458 21.4798 123.464 21.4798 123.478 21.4798C123.478 21.4798 123.578 21.4298 123.638 21.4198C123.768 21.3598 123.908 21.3098 124.058 21.2798C124.078 21.2698 124.088 21.2598 124.108 21.2698C124.298 21.2198 124.488 21.1797 124.698 21.1597C124.778 21.1597 124.858 21.1598 124.928 21.1598C125.048 21.1698 125.168 21.1998 125.268 21.2398C125.398 21.2798 125.528 21.3298 125.648 21.3998C125.708 21.4198 125.768 21.4498 125.818 21.4998C125.878 21.5398 125.928 21.5798 125.988 21.6298C126.018 21.6498 126.048 21.6698 126.068 21.6998C126.108 21.7298 126.148 21.7698 126.178 21.8098C126.228 21.8698 126.278 21.9298 126.328 21.9998C126.568 22.3298 126.708 22.7398 126.748 23.1698C126.748 23.2198 126.758 23.2698 126.758 23.3198C126.758 23.4198 126.758 23.5098 126.738 23.6098V23.6398C126.738 23.7398 126.718 23.8398 126.688 23.9498C126.678 24.0098 126.658 24.0698 126.638 24.1298C126.628 24.1798 126.608 24.2198 126.588 24.2698C126.558 24.3798 126.518 24.4798 126.478 24.5798C126.428 24.6898 126.378 24.7998 126.328 24.8998C126.168 25.2198 125.978 25.5198 125.758 25.8298C125.578 26.0998 125.388 26.3598 125.208 26.6198C125.148 26.7098 125.078 26.7998 125.018 26.8998C124.948 26.9898 124.888 27.0898 124.838 27.1798C124.718 27.3598 124.618 27.5398 124.528 27.7398C124.478 27.8198 124.448 27.8998 124.418 27.9898C124.398 28.0098 124.388 28.0398 124.388 28.0798C124.358 28.1398 124.338 28.2098 124.328 28.2698C124.298 28.3298 124.278 28.3898 124.278 28.4598C124.238 28.6098 124.218 28.7698 124.208 28.9298C124.208 28.9898 124.218 29.0398 124.218 29.0998C124.178 29.8198 124.288 30.5298 124.398 31.2398C124.398 31.2698 124.408 31.2998 124.408 31.3398C124.488 32.2398 124.548 33.1398 124.518 34.0698C124.528 34.0798 124.528 34.0898 124.518 34.1098C124.468 34.7198 124.348 35.5698 124.278 36.4398C124.188 37.4798 124.168 38.5698 124.458 39.3598C124.468 39.3898 124.478 39.4198 124.488 39.4498C124.688 40.0698 125.018 40.3698 125.428 40.4398H125.448C125.448 40.4398 125.508 40.4598 125.538 40.4698C126.318 40.5598 127.058 40.0098 127.708 39.4298C127.798 39.3598 127.888 39.2898 127.968 39.2098C129.128 38.2598 130.398 36.9298 131.518 35.8198C131.518 35.8198 131.518 35.7998 131.528 35.7998C132.188 35.1698 132.858 34.5598 133.548 33.9798C134.978 32.7998 136.548 31.8598 137.398 30.3898C138.068 29.3698 138.508 28.1698 139.398 27.2998C139.558 27.1198 139.748 26.9598 139.958 26.8198C140.068 26.7498 140.168 26.6798 140.278 26.6198C140.918 26.2698 141.658 26.0998 142.258 26.1798C142.428 26.2098 142.588 26.2498 142.738 26.3198C142.848 26.3498 142.938 26.4098 143.018 26.4798C143.198 26.6598 143.328 26.8298 143.408 27.0098C143.408 27.0098 143.408 27.0198 143.408 27.0298C143.468 27.1998 143.498 27.3998 143.498 27.6198V27.7398C143.468 27.8698 143.428 27.9998 143.388 28.1198C143.348 28.2398 143.288 28.3598 143.238 28.4798C143.188 28.5698 143.148 28.6498 143.098 28.7298C142.938 28.9698 142.768 29.1998 142.588 29.4298C142.428 29.6298 142.248 29.8398 142.088 30.0398C141.928 30.2398 141.758 30.4498 141.608 30.6598C141.568 30.7098 141.528 30.7698 141.488 30.8198C141.308 31.0898 141.148 31.3798 141.038 31.6798C140.908 31.9798 140.798 32.2798 140.708 32.5898C140.648 32.7698 140.588 32.9498 140.548 33.1298C140.508 33.2298 140.478 33.3298 140.458 33.4298C140.258 34.0998 140.088 34.7798 139.888 35.4498C139.848 35.5798 139.808 35.7098 139.758 35.8398C139.688 36.0398 139.608 36.2398 139.518 36.4398C139.398 36.7098 139.278 37.0298 139.198 37.3498C139.178 37.4398 139.148 37.5298 139.128 37.6298C139.018 38.0398 138.998 38.3898 139.078 38.6498C139.078 38.6698 139.088 38.6798 139.088 38.6998C139.158 38.9798 139.338 39.1498 139.658 39.1098C139.688 39.1098 139.718 39.1098 139.758 39.0998C139.868 39.0998 139.988 39.0698 140.118 39.0198C140.138 39.0098 140.148 38.9998 140.168 38.9898C140.898 38.7498 141.588 38.1598 142.318 37.5198C142.398 37.4398 142.478 37.3698 142.558 37.2898C143.938 36.0998 145.178 34.6498 146.408 33.2198C146.598 32.9998 146.798 32.7798 146.988 32.5598C147.948 31.4898 148.918 30.4398 149.948 29.4498C152.128 27.4898 154.408 25.5698 156.808 23.7898C157.038 23.6198 157.278 23.4398 157.508 23.2798C160.758 20.9598 164.218 18.9298 167.848 17.2598C168.008 17.1898 168.158 17.1198 168.318 17.0598C168.618 16.9298 168.908 16.8098 169.208 16.6898C170.838 16.0598 172.508 15.5298 174.218 15.1298C175.628 14.7998 177.228 14.9998 178.308 15.7398C178.348 15.7698 178.378 15.7898 178.418 15.8298C178.828 16.1698 179.158 16.6398 179.408 17.2498C179.538 17.8898 179.518 18.4998 179.378 19.0798C179.358 19.1898 179.318 19.2998 179.288 19.4098C178.968 20.3898 178.388 21.2798 177.728 22.1298C177.328 22.6298 176.908 23.1098 176.498 23.5898C176.308 23.7998 176.128 24.0098 175.948 24.2198C175.738 24.4798 175.518 24.7498 175.318 25.0098C174.658 25.8398 174.088 27.2698 175.548 26.9898C176.688 26.7998 178.388 25.8498 179.688 25.3798C182.188 24.3098 185.138 24.1098 187.278 22.3098C190.108 20.1798 189.928 16.1398 191.778 13.3998C193.628 10.8698 197.128 9.68981 200.168 10.0698C207.468 11.5798 201.218 18.1098 204.958 21.4698C205.088 21.5698 205.208 21.6598 205.338 21.7498C205.598 21.9198 205.858 22.0698 206.138 22.1998C206.278 22.2598 206.418 22.3198 206.558 22.3698C206.928 22.4998 207.318 22.6098 207.708 22.6898C208.098 22.7698 208.508 22.8198 208.908 22.8498C209.318 22.8898 209.728 22.9098 210.148 22.9298C210.568 22.9498 210.978 22.9598 211.398 22.9798C212.438 23.0198 213.478 23.1098 214.468 23.3898C216.068 23.7398 217.478 25.2098 216.288 26.8398L216.298 26.8599Z" fill="#5D4440"/>
<path d="M121.388 23.96C121.358 24.04 121.328 24.12 121.298 24.19C121.298 24.19 121.298 24.1933 121.298 24.2C121.328 24.11 121.358 24.04 121.398 23.96H121.388Z" fill="#5D4440"/>
<path d="M43.6876 42.0996C43.6376 42.2396 43.6077 42.38 43.6077 42.54C43.6077 42.51 43.5876 42.4896 43.5776 42.4596C43.5976 42.3296 43.6376 42.2096 43.6876 42.0996Z" fill="#5D4440"/>
<path d="M44.6076 41.25C44.3676 41.36 44.1776 41.48 44.0276 41.62C44.1876 41.46 44.3776 41.34 44.6076 41.25Z" fill="#5D4440"/>
<path d="M50.6276 41.5897C48.9476 41.2197 47.2476 40.99 45.5276 41C46.8876 40.82 48.7676 41.1297 50.6276 41.5897Z" fill="#5D4440"/>
<path d="M73.5877 66.1299C63.7477 60.6799 54.5177 54.6199 48.9077 49.4199C50.6077 50.8899 52.2177 52.1299 52.9177 52.6899C58.3277 56.7499 65.6377 61.5799 73.5877 66.1299Z" fill="#5D4440"/>
<path d="M59.9777 44.5996C58.7977 44.1796 57.5976 43.7396 56.3976 43.3096C56.4476 43.3296 56.5076 43.3496 56.5576 43.3596C57.7076 43.7596 58.8477 44.1696 59.9777 44.5996Z" fill="#5D4440"/>
<path d="M88.4276 58.2898C83.5976 55.5998 78.7576 52.9398 73.7976 50.5098C78.7776 52.8898 83.6576 55.4998 88.4276 58.2898Z" fill="#5D4440"/>
<path d="M98.3276 62.6C97.2476 62.71 96.1377 62.5299 95.0277 61.9699C95.0077 61.9599 94.9976 61.9499 94.9776 61.9399C96.0776 62.3699 97.2176 62.64 98.3276 62.6Z" fill="#5D4440"/>
<path d="M103.198 60.3398C102.658 60.7898 102.078 61.2 101.478 61.54C101.538 61.5 101.588 61.4598 101.648 61.4198C102.178 61.0698 102.698 60.7098 103.198 60.3398Z" fill="#5D4440"/>
<path d="M112.938 81.7898C110.458 81.7898 106.688 80.8798 102.168 79.3198C106.008 80.5498 109.648 81.4098 112.938 81.7898Z" fill="#5D4440"/>
<path d="M109.528 54.3599C108.468 55.7099 107.278 56.9499 105.958 58.1199C107.248 56.9499 108.448 55.7099 109.528 54.3599Z" fill="#5D4440"/>
<path d="M115.128 41.7998C114.928 44.0998 114.468 46.3798 113.288 48.3898C114.428 46.3798 114.838 44.1098 115.128 41.7998Z" fill="#5D4440"/>
<path d="M118.468 30.95C117.778 31.97 117.058 32.9797 116.568 34.1197C116.998 32.9897 117.608 31.92 118.468 30.95Z" fill="#5D4440"/>
<path d="M120.978 25.1299C120.738 25.9199 120.558 26.7299 120.358 27.4299C120.228 27.8899 120.048 28.33 119.838 28.75C120.288 27.61 120.588 26.3199 120.978 25.1299Z" fill="#5D4440"/>
<path d="M124.398 31.2596C124.288 30.5496 124.178 29.84 124.218 29.12C124.268 29.85 124.338 30.5596 124.398 31.2596Z" fill="#5D4440"/>
<path d="M124.458 39.38C124.168 38.59 124.188 37.5 124.278 36.46C124.198 37.8 124.268 38.74 124.458 39.38Z" fill="#5D4440"/>
<path d="M124.518 34.1299C124.508 34.8699 124.428 35.65 124.278 36.46C124.348 35.59 124.468 34.7399 124.518 34.1299Z" fill="#5D4440"/>
<path d="M135.508 66.4697C131.648 66.9897 128.078 68.7497 124.908 71.1497C128.058 68.7297 131.618 66.9397 135.508 66.4697Z" fill="#5D4440"/>
<path d="M127.708 39.4497C127.058 40.0297 126.318 40.5797 125.538 40.4897C125.508 40.4797 125.478 40.4697 125.448 40.4597C126.058 40.5397 126.848 40.1197 127.708 39.4497Z" fill="#5D4440"/>
<path d="M133.548 34C132.858 34.58 132.188 35.19 131.528 35.82C132.298 35.04 132.998 34.37 133.548 34Z" fill="#5D4440"/>
<path d="M139.088 38.6699C139.008 38.4099 139.028 38.0599 139.138 37.6499C139.058 38.0199 139.028 38.3899 139.088 38.6699Z" fill="#5D4440"/>
<path d="M140.468 33.4497C140.288 34.1197 140.118 34.7997 139.898 35.4697C140.098 34.7997 140.268 34.1197 140.468 33.4497Z" fill="#5D4440"/>
<path d="M140.178 39.0096C140.178 39.0096 140.148 39.0298 140.128 39.0398C139.998 39.0898 139.878 39.1098 139.768 39.1198C139.908 39.0998 140.048 39.0596 140.178 39.0096Z" fill="#5D4440"/>
<path d="M142.028 66.4297C141.398 66.4597 140.768 66.4697 140.128 66.4397C140.758 66.4497 141.398 66.4597 142.028 66.4297Z" fill="#5D4440"/>
<path d="M143.408 27.0298C143.328 26.8498 143.198 26.68 143.018 26.5C143.198 26.63 143.328 26.7998 143.408 27.0298Z" fill="#5D4440"/>
<path d="M146.418 33.2397C145.188 34.6697 143.948 36.1196 142.568 37.3096C143.928 36.0296 145.168 34.6397 146.418 33.2397Z" fill="#5D4440"/>
<path d="M167.858 17.2796C164.228 18.9496 160.768 20.9798 157.518 23.2998C160.768 20.9398 164.208 18.8496 167.858 17.2796Z" fill="#5D4440"/>
<path d="M166.118 66.1699C165.608 66.3199 165.078 66.4099 164.678 66.4099C165.128 66.3599 165.638 66.2899 166.118 66.1699Z" fill="#5D4440"/>
<path d="M165.048 63.1599C164.898 63.1599 164.758 63.1499 164.618 63.1499C164.568 63.1499 164.508 63.1399 164.458 63.1299C164.658 63.1399 164.858 63.1499 165.048 63.1599Z" fill="#5D4440"/>
<path d="M167.618 63.7197C167.618 63.7197 167.548 63.6797 167.508 63.6597C167.538 63.6597 167.558 63.6797 167.578 63.6897C167.588 63.6997 167.608 63.7097 167.618 63.7197Z" fill="#5D4440"/>
<path d="M167.838 65.2699C168.048 65.0299 168.148 64.7399 168.138 64.3799C168.238 64.7099 168.108 65.0099 167.838 65.2699Z" fill="#5D4440"/>
<path d="M170.458 61.8398C168.828 62.0498 167.178 62.1798 165.548 62.2998C167.168 62.1398 168.818 62.0298 170.458 61.8398Z" fill="#5D4440"/>
<path d="M179.418 18.9996C179.418 18.9996 179.398 19.0696 179.388 19.0996C179.528 18.5196 179.548 17.9096 179.418 17.2696C179.168 16.6596 178.838 16.1896 178.428 15.8496C179.308 16.4996 179.788 17.5596 179.418 18.9996Z" fill="#5D4440"/>
<path d="M187.018 44.3498C186.028 45.4298 185.068 46.5398 184.128 47.6598C185.058 46.5398 186.018 45.4298 187.018 44.3498Z" fill="#5D4440"/>
<path d="M198.078 35.5298C196.938 36.1598 195.828 36.8398 194.738 37.5398C195.708 36.8698 196.718 36.2498 197.768 35.6898C197.868 35.6398 197.978 35.5798 198.078 35.5298Z" fill="#5D4440"/>
<path d="M207.978 31.3898C206.518 31.7798 205.098 32.2698 203.708 32.8298C205.098 32.2498 206.508 31.7498 207.978 31.3898Z" fill="#5D4440"/>
<path d="M67.6076 93.5399C65.8676 99.7999 55.1276 96.7499 55.8776 90.7799C57.1576 84.1299 68.4776 87.4399 67.6376 93.3799L67.6076 93.5499V93.5399Z" fill="#5D4440"/>
<path d="M231.658 32.4399C230.318 34.2399 227.248 35.3199 225.328 33.7099C224.288 32.8799 223.848 31.1399 224.918 30.1799C225.838 29.3599 227.128 28.7799 228.368 28.5999C230.418 28.1599 233.138 30.1399 231.748 32.3099L231.648 32.4399H231.658Z" fill="#5D4440"/>
<path d="M209.758 57.6099C207.978 59.0499 204.918 58.7399 203.688 56.7399C203.008 55.5399 204.528 54.7599 205.508 54.6199C206.568 54.3699 207.768 53.4999 208.818 53.9799C210.078 54.3699 211.168 56.4599 209.898 57.4899L209.768 57.6099H209.758Z" fill="#5D4440"/>
</g>
<defs>
<filter id="filter0_d_264_1761" x="0.2" y="0.2" width="245.727" height="145.241" filterUnits="userSpaceOnUse" color-interpolation-filters="sRGB">
<feFlood flood-opacity="0" result="BackgroundImageFix"/>
<feColorMatrix in="SourceAlpha" type="matrix" values="0 0 0 0 0 0 0 0 0 0 0 0 0 0 0 0 0 0 127 0" result="hardAlpha"/>
<feOffset dy="4"/>
<feGaussianBlur stdDeviation="6.9"/>
<feComposite in2="hardAlpha" operator="out"/>
<feColorMatrix type="matrix" values="0 0 0 0 0 0 0 0 0 0 0 0 0 0 0 0 0 0 0.04 0"/>
<feBlend mode="normal" in2="BackgroundImageFix" result="effect1_dropShadow_264_1761"/>
<feBlend mode="normal" in="SourceGraphic" in2="effect1_dropShadow_264_1761" result="shape"/>
</filter>
</defs>
</svg>
