<svg width="216" height="143" viewBox="0 0 216 143" fill="none" xmlns="http://www.w3.org/2000/svg">
<path d="M176.739 80.4211C193.951 86.5742 218.602 100.233 202.318 117.68C187.673 133.37 157.673 138.318 137.197 140.086C131.073 140.615 110.838 141.592 102.995 141.628C95.1617 141.514 75.0353 140.335 68.9687 139.745C48.6816 137.773 19.2037 132.529 6.17191 116.7C-10.9166 95.9441 28.3611 81.021 44.07 77.2354L176.739 80.4211Z" fill="#C0BCBC"/>
<path d="M200.662 53.8657C199.41 64.4732 190.711 73.9716 182.32 79.8171C176.956 83.5552 162.053 94.4593 160.529 95.1576C160.529 95.1576 162.292 94.2725 161.742 94.5303C164.37 89.3271 161.225 91.0277 166.524 79.7934L168.785 72.3628C174.874 69.2849 181.428 65.2163 183.856 58.3929C186.117 52.0403 178.844 45.4201 172.342 51.1343C172.947 46.4851 174.266 35.9695 174.431 31.5171L175.371 36.1876C181.179 34.1437 186.56 34.6142 191.866 36.6873C196.439 38.4748 199.904 42.2492 200.672 48.7973C200.867 50.4717 200.864 52.1726 200.662 53.8657Z" fill="#FAFAFA"/>
<path d="M56.5312 97.5043C44.9385 80.2886 40.9279 49.7296 41.5086 29.0573C41.5749 26.6962 41.7094 24.2845 42.5812 22.0399C44.1066 18.1121 49.2896 14.3879 53.105 12.3628C62.6804 7.28015 79.684 2.30736 94.4326 1.01741C100.169 0.515792 105.635 0.226634 110.97 0.162659C116.299 0.252147 121.734 0.567387 127.416 1.09632C137.931 1.98003 148.182 4.36093 157.842 8.16307C164.439 10.7998 173.028 14.3775 176.201 20.9694C177.991 24.6926 177.858 29.0842 177.192 33.2443C173.376 57.077 171.901 89.1552 151.321 105.715C110.977 120.726 87.4218 120.844 56.5312 97.5043Z" fill="url(#paint0_linear_87_8734)"/>
<path d="M108.699 122.234C100.175 121.471 88.4845 118.793 80.1108 119.984C71.3042 121.235 64.6842 127.606 55.5617 128.266C46.2468 128.941 34.9504 124.742 32.3884 115.886C29.5629 106.12 42.4518 101.281 50.3576 101.603C60.047 102 66.6043 105.808 74.4745 110.571C76.1795 111.661 78.7099 111.541 80.6422 111.541C89.5488 111.53 98.7281 111.419 107.54 110.943C117.06 110.43 127.422 109.834 136.913 109.344C144.121 108.971 157.939 106.352 155.753 117.402C153.915 126.7 143.67 126.494 135.428 125.731C126.072 124.865 108.848 122.248 108.699 122.234Z" fill="#9C9898"/>
<path d="M168.604 30.8335C168.246 37.8345 142.309 43.3592 110.671 43.1732C79.0333 42.9872 51.4724 37.1481 51.8298 30.1471C52.1873 23.1462 80.527 13.734 112.165 13.92C143.803 14.106 168.961 23.8325 168.604 30.8335Z" fill="#957F6E"/>
<path d="M85.8624 80.1597L101.102 92.3341C101.883 92.9584 103.042 92.8673 103.784 92.1232L135.873 59.9631" stroke="#53A185" stroke-width="11" stroke-linecap="round"/>
<defs>
<linearGradient id="paint0_linear_87_8734" x1="111.048" y1="0.162843" x2="110.811" y2="99.2075" gradientUnits="userSpaceOnUse">
<stop stop-color="white"/>
<stop offset="1" stop-color="#E1DFDF"/>
</linearGradient>
</defs>
</svg>
