<svg width="310" height="310" viewBox="0 0 310 310" fill="none" xmlns="http://www.w3.org/2000/svg">
<circle cx="155" cy="155" r="155" fill="#317A60"/>
<path d="M48.9814 142.218C48.7523 143.467 48.3812 144.571 47.8678 145.529C47.3545 146.487 46.7056 147.292 45.9211 147.942C45.1288 148.581 44.1751 149.017 43.0602 149.249C41.9357 149.48 40.6963 149.471 39.3419 149.222L25.9712 146.77L26.9014 141.698L39.4941 144.008C40.8449 144.276 41.9391 144.183 42.7765 143.731C43.614 143.279 44.1358 142.491 44.3419 141.368C44.5498 140.234 44.3443 139.298 43.7252 138.559C43.1062 137.82 42.1195 137.326 40.7651 137.078L28.1725 134.768L29.1026 129.696L42.4734 132.149C43.8277 132.397 44.9896 132.829 45.9591 133.443C46.9208 134.047 47.6577 134.792 48.1699 135.681C48.6725 136.567 48.992 137.559 49.1283 138.656C49.2647 139.754 49.2157 140.941 48.9814 142.218Z" fill="white"/>
<path d="M54.932 119.718C53.7229 122.387 52.0412 124.182 49.8868 125.103L47.7642 122.228C48.6566 121.678 49.4152 121.116 50.0401 120.541C50.6561 119.962 51.1474 119.268 51.5142 118.459C51.7399 117.961 51.8218 117.532 51.7599 117.171C51.6932 116.798 51.4864 116.533 51.1395 116.375C50.7481 116.198 50.3784 116.245 50.0304 116.516C49.6735 116.783 49.1549 117.336 48.4746 118.175C48.1203 118.626 47.8007 119.012 47.5158 119.333C47.226 119.641 46.8583 119.968 46.4126 120.313C45.958 120.653 45.515 120.898 45.0835 121.045C44.6521 121.193 44.1519 121.256 43.5829 121.234C43.005 121.208 42.4092 121.056 41.7954 120.778C40.9949 120.415 40.3627 119.941 39.8989 119.356C39.4391 118.761 39.1607 118.11 39.0636 117.401C38.9577 116.688 38.9734 115.956 39.1107 115.203C39.2431 114.438 39.4907 113.655 39.8534 112.854C40.4016 111.644 41.0623 110.636 41.8356 109.828C42.604 109.008 43.4083 108.439 44.2484 108.123L46.12 110.949C45.3456 111.499 44.7247 112.006 44.2573 112.469C43.781 112.929 43.4059 113.461 43.1318 114.066C42.9061 114.564 42.8157 115 42.8606 115.374C42.9095 115.74 43.0941 115.995 43.4143 116.14C43.5744 116.212 43.7394 116.239 43.9091 116.219C44.0828 116.191 44.2403 116.139 44.3817 116.064C44.523 115.988 44.6926 115.851 44.8903 115.651C45.0881 115.451 45.256 115.27 45.394 115.107C45.5361 114.936 45.7322 114.692 45.9823 114.377C46.2785 114.007 46.5335 113.704 46.7474 113.469C46.9564 113.22 47.2167 112.942 47.5283 112.633C47.8399 112.323 48.1278 112.079 48.3918 111.898C48.647 111.713 48.9507 111.54 49.3029 111.378C49.6502 111.203 49.9871 111.098 50.3136 111.064C50.6441 111.021 51.0138 111.033 51.4229 111.1C51.827 111.155 52.2426 111.279 52.6696 111.472C54.3063 112.214 55.3053 113.31 55.6667 114.76C56.0193 116.206 55.7743 117.859 54.932 119.718Z" fill="white"/>
<path d="M67.5533 95.4425L64.8351 99.5105C64.2096 99.3744 63.6478 99.1693 63.1497 98.8953C63.4007 99.7325 63.4594 100.629 63.3257 101.585C63.1838 102.536 62.8525 103.401 62.3316 104.18C61.5015 105.422 60.5067 106.208 59.3471 106.537C58.193 106.859 56.9907 106.601 55.7402 105.766C54.2056 104.74 53.5137 103.333 53.6645 101.542C53.8207 99.7441 54.8226 97.4186 56.6701 94.5657L56.3412 94.346C55.1476 93.5485 54.0408 93.913 53.0208 95.4395C52.1527 96.7387 51.7612 98.2212 51.8461 99.887L48.2426 99.7166C48.0622 98.7035 48.127 97.5782 48.4371 96.3407C48.7445 95.0897 49.3322 93.8146 50.2002 92.5154C52.7448 88.7072 55.7466 87.9588 59.2056 90.27L65.6 94.5426C66.3227 95.0254 66.9738 95.3254 67.5533 95.4425ZM60.4667 100.379C61.0581 99.4944 61.1973 98.4951 60.8843 97.3816L58.6066 95.8597C57.0276 98.4339 56.8715 100.144 58.1381 100.99C58.5523 101.267 58.9639 101.354 59.3729 101.252C59.7875 101.141 60.1521 100.85 60.4667 100.379Z" fill="white"/>
<path d="M67.7603 69.9973C69.1689 68.4934 70.8548 67.7576 72.818 67.7901C74.7812 67.8225 76.7108 68.7266 78.6068 70.5024C79.5618 71.3969 80.3008 72.3366 80.8236 73.3213C81.3463 74.3059 81.6438 75.2669 81.7159 76.2042C81.7809 77.1348 81.6551 78.0405 81.3385 78.9214C81.0286 79.7952 80.5331 80.5956 79.8522 81.3226C78.3168 82.962 76.5405 83.5728 74.5232 83.1552L76.0734 84.6072L72.9091 87.9857L56.4872 72.6048L59.9118 68.9484L66.1342 74.7763C65.8765 73.0229 66.4185 71.4299 67.7603 69.9973ZM75.6282 79.554C76.3425 78.7914 76.6362 77.9492 76.5093 77.0275C76.3824 76.1059 75.8699 75.2245 74.9718 74.3833C74.0738 73.5422 73.1643 73.0918 72.2434 73.0321C71.3154 72.9658 70.4943 73.3139 69.78 74.0766C69.0791 74.825 68.7927 75.6807 68.921 76.6438C69.0492 77.6068 69.5374 78.4856 70.3856 79.28C71.1991 80.0686 72.1009 80.4986 73.0913 80.5698C74.0816 80.641 74.9272 80.3024 75.6282 79.554Z" fill="white"/>
<path d="M83.2224 53.7499C82.47 54.2229 81.7293 54.4116 81.0003 54.3162C80.2713 54.2207 79.7041 53.8505 79.2988 53.2056C78.8778 52.5359 78.7772 51.8437 78.9969 51.1289C79.2166 50.414 79.7026 49.8202 80.455 49.3472C81.2239 48.8639 81.9739 48.6809 82.7051 48.798C83.4362 48.9152 84.0122 49.3086 84.4332 49.9783C84.8385 50.6232 84.9262 51.2948 84.6961 51.9931C84.4743 52.6862 83.983 53.2718 83.2224 53.7499ZM90.5621 70.1063L82.2911 56.9478L86.5078 54.2974L94.7787 67.4559L90.5621 70.1063Z" fill="white"/>
<path d="M103.714 62.4415L93.0468 42.6307L97.432 40.2695L108.099 60.0803L103.714 62.4415Z" fill="white"/>
<path d="M113.62 38.0998C112.779 38.3855 112.014 38.3974 111.327 38.1356C110.64 37.8738 110.174 37.3822 109.93 36.6609C109.675 35.9119 109.738 35.2152 110.117 34.5707C110.497 33.9263 111.107 33.4613 111.949 33.1756C112.809 32.8837 113.581 32.8794 114.265 33.1629C114.949 33.4463 115.418 33.9626 115.672 34.7116C115.917 35.4329 115.847 36.1065 115.461 36.7324C115.085 37.3552 114.471 37.811 113.62 38.0998ZM116.969 55.712L111.973 40.9948L116.689 39.3939L121.685 54.1111L116.969 55.712Z" fill="white"/>
<path d="M137.133 45.4753L137.874 49.421C137.533 49.5762 136.989 49.76 136.242 49.9724C135.497 50.1944 134.773 50.3635 134.07 50.4796C132.942 50.6658 131.988 50.7044 131.208 50.5957C130.438 50.4853 129.815 50.2171 129.338 49.7909C128.87 49.3535 128.513 48.8384 128.267 48.2456C128.02 47.6528 127.821 46.894 127.668 45.969L126.578 39.3641L124.323 39.7363L123.693 35.9208L125.948 35.5485L125.37 32.0509L130.139 30.358L130.862 34.7372L134.822 34.0834L135.452 37.8989L131.492 38.5528L132.446 44.3339C132.577 45.124 132.829 45.6365 133.205 45.8715C133.588 46.0952 134.165 46.1434 134.936 46.0162C135.745 45.8825 136.478 45.7022 137.133 45.4753Z" fill="white"/>
<path d="M152.991 43.6709L156.228 34.6621H161.033L154.045 51.6689C152.834 54.6572 150.891 56.1514 148.215 56.1514C147.366 56.1514 146.458 56.0391 145.491 55.8145L145.784 52.0352C146.018 52.1523 146.638 52.2109 147.644 52.2109C148.523 52.2109 149.177 52.04 149.607 51.6982C150.037 51.3564 150.393 50.79 150.676 49.999L144.407 34.6621H149.563L152.991 43.6709Z" fill="white"/>
<path d="M203.123 36.2444L201.705 40.4196L196.795 38.7528L191.366 54.7461L186.483 53.0887L191.912 37.0954L187.016 35.4332L188.433 31.2581L203.123 36.2444Z" fill="white"/>
<path d="M218.563 56.4554L217.728 58.0186L208.362 53.0123C207.787 55.0195 208.628 56.6261 210.885 57.8322C212.202 58.5366 213.631 58.8354 215.172 58.7289L214.712 62.6353C212.517 62.8682 210.33 62.4023 208.151 61.2377C205.662 59.9073 204.058 58.2252 203.34 56.1916C202.636 54.154 202.882 52.0155 204.079 49.7763C205.266 47.5542 206.902 46.1308 208.985 45.506C211.069 44.8812 213.174 45.1373 215.302 46.2744C217.334 47.3608 218.655 48.8254 219.265 50.6682C219.874 52.511 219.641 54.4401 218.563 56.4554ZM213.468 49.5798C212.814 49.2299 212.139 49.1569 211.443 49.3608C210.747 49.5647 210.103 50.0452 209.51 50.8023L214.458 53.447C214.805 52.5477 214.886 51.7657 214.698 51.1009C214.524 50.4321 214.114 49.925 213.468 49.5798Z" fill="white"/>
<path d="M225.174 72.8128C222.85 71.0293 221.483 68.9839 221.075 66.6765L224.358 65.2623C224.69 66.2563 225.066 67.1228 225.483 67.8618C225.907 68.593 226.471 69.2292 227.176 69.7702C227.61 70.1031 228.01 70.2803 228.375 70.3019C228.753 70.3217 229.059 70.1805 229.29 69.8784C229.552 69.5375 229.59 69.1668 229.405 68.7663C229.226 68.3581 228.805 67.7274 228.143 66.8744C227.784 66.427 227.481 66.0282 227.233 65.6778C226.999 65.3256 226.764 64.8933 226.529 64.3809C226.301 63.8608 226.164 63.3739 226.118 62.9202C226.072 62.4666 226.124 61.9652 226.275 61.416C226.432 60.8591 226.715 60.3133 227.125 59.7788C227.66 59.0815 228.265 58.5735 228.941 58.2547C229.624 57.9419 230.322 57.8187 231.034 57.8851C231.752 57.9438 232.462 58.1255 233.164 58.4301C233.879 58.7329 234.586 59.1518 235.283 59.6869C236.337 60.4954 237.169 61.3679 237.78 62.3043C238.404 63.239 238.775 64.1513 238.892 65.0413L235.715 66.2223C235.355 65.3433 235.003 64.6235 234.658 64.0631C234.318 63.4948 233.885 63.0086 233.358 62.6043C232.924 62.2714 232.52 62.0843 232.145 62.0431C231.779 62.0078 231.488 62.1296 231.274 62.4085C231.167 62.548 231.104 62.7026 231.084 62.8723C231.073 63.048 231.088 63.2132 231.129 63.3679C231.17 63.5227 231.266 63.7191 231.415 63.9571C231.565 64.1951 231.703 64.3997 231.83 64.571C231.965 64.7483 232.158 64.9946 232.408 65.3099C232.701 65.6823 232.938 65.9993 233.119 66.2611C233.313 66.5211 233.525 66.8379 233.756 67.2115C233.986 67.5852 234.159 67.9211 234.275 68.2193C234.397 68.5097 234.497 68.8448 234.574 69.2246C234.666 69.6025 234.691 69.9544 234.651 70.2802C234.618 70.6118 234.522 70.9692 234.363 71.3523C234.219 71.7335 234.004 72.1101 233.718 72.4819C232.624 73.9075 231.33 74.6316 229.836 74.6542C228.347 74.6691 226.793 74.0553 225.174 72.8128Z" fill="white"/>
<path d="M246.243 87.4493L243.374 90.2572C243.056 90.0602 242.601 89.7103 242.009 89.2073C241.411 88.7109 240.868 88.2026 240.38 87.6823C239.599 86.8484 239.037 86.0769 238.694 85.3679C238.358 84.6659 238.235 83.9986 238.324 83.366C238.428 82.7337 238.658 82.1505 239.014 81.6164C239.37 81.0822 239.89 80.4947 240.574 79.8538L245.46 75.2776L243.898 73.6098L246.721 70.9662L248.283 72.634L250.87 70.2107L254.927 73.235L251.687 76.2691L254.431 79.1985L251.609 81.8421L248.865 78.9127L244.588 82.9181C244.004 83.4655 243.718 83.9605 243.731 84.4031C243.758 84.8462 244.039 85.3528 244.573 85.923C245.134 86.5217 245.69 87.0305 246.243 87.4493Z" fill="white"/>
<path d="M265.841 89.5521C265.347 88.8132 265.138 88.078 265.213 87.3466C265.288 86.6153 265.642 86.038 266.276 85.6148C266.933 85.1753 267.623 85.0554 268.343 85.2551C269.064 85.4548 269.671 85.9241 270.165 86.663C270.669 87.4181 270.873 88.1628 270.777 88.8969C270.68 89.631 270.303 90.2178 269.645 90.6572C269.012 91.0804 268.343 91.1867 267.638 90.9762C266.939 90.7738 266.34 90.2991 265.841 89.5521ZM249.696 97.345L262.618 88.7104L265.385 92.8515L252.463 101.486L249.696 97.345Z" fill="white"/>
<path d="M276.435 111.453C277.805 114.477 276.805 116.753 273.433 118.281L263.867 122.615L261.823 118.105L269.829 114.478C270.772 114.051 271.385 113.569 271.667 113.034C271.959 112.494 271.931 111.842 271.585 111.077C271.327 110.508 270.898 110.059 270.299 109.73C269.713 109.406 269.031 109.227 268.254 109.193L259.568 113.128L257.513 108.592L271.669 102.178L273.725 106.714L271.59 107.682C273.824 107.999 275.439 109.256 276.435 111.453Z" fill="white"/>
<path d="M270.97 137.482L271.714 142.095C272.019 143.846 271.869 145.206 271.264 146.173C270.671 147.149 269.773 147.741 268.57 147.951C268.041 148.043 267.526 148.048 267.027 147.967C266.527 147.885 266.008 147.668 265.471 147.316C264.934 146.963 264.442 146.474 263.996 145.847C263.542 145.233 263.117 144.385 262.721 143.304C262.317 142.234 261.99 140.983 261.74 139.549C261.475 138.029 261.348 136.698 261.357 135.557C261.368 134.425 261.561 133.479 261.934 132.72C262.308 131.962 262.865 131.518 263.606 131.389C264.895 131.164 265.943 131.978 266.751 133.83C267.031 132.304 267.811 131.43 269.09 131.207C269.87 131.072 270.566 131.203 271.181 131.602C271.807 132.008 272.461 132.633 273.143 133.475C273.835 131.531 275.158 130.389 277.111 130.049C278.737 129.766 280.161 130.202 281.383 131.357C282.605 132.512 283.404 134.167 283.779 136.323C284.084 138.074 284.027 139.625 283.608 140.976L286.518 143.176L284.397 146.192L281.956 143.702C281.329 144.258 280.568 144.613 279.673 144.769C277.98 145.064 276.523 144.609 275.302 143.404C274.091 142.197 273.291 140.478 272.903 138.246C272.765 137.457 272.705 136.654 272.721 135.839C272.351 135.417 271.968 135.241 271.574 135.31C271.266 135.363 271.056 135.554 270.945 135.88C270.842 136.205 270.851 136.739 270.97 137.482ZM280.435 138.808C280.794 138.309 280.913 137.713 280.793 137.021C280.672 136.328 280.356 135.793 279.844 135.416C279.333 135.04 278.711 134.915 277.98 135.042C277.211 135.176 276.643 135.503 276.277 136.023C275.914 136.552 275.793 137.168 275.915 137.87C276.036 138.563 276.354 139.082 276.87 139.428C277.387 139.775 278.029 139.881 278.799 139.747C279.54 139.618 280.085 139.305 280.435 138.808ZM264.446 139.718C264.657 140.93 264.956 141.849 265.342 142.476C265.729 143.102 266.177 143.371 266.687 143.283C267.11 143.209 267.398 142.98 267.549 142.597C267.691 142.216 267.693 141.601 267.555 140.752L266.798 136.23C266.312 135.889 265.862 135.754 265.448 135.826C264.361 136.015 264.027 137.312 264.446 139.718Z" fill="white"/>
</svg>
